<svg width="16" height="14" viewBox="0 0 16 14" fill="none" xmlns="http://www.w3.org/2000/svg">
<path fill-rule="evenodd" clip-rule="evenodd" d="M7.34168 13.6438C7.12296 13.425 7.00009 13.1283 7.00009 12.8189C7.00009 12.5096 7.12296 12.2129 7.34168 11.9941L12.3502 6.9856L7.34168 1.9771C7.12916 1.75706 7.01157 1.46236 7.01422 1.15647C7.01688 0.85057 7.13958 0.557955 7.35589 0.341645C7.5722 0.125336 7.86481 0.00263786 8.17071 -2.09808e-05C8.4766 -0.00267887 8.77131 0.114915 8.99134 0.327433L14.8247 6.16077C15.0434 6.37955 15.1663 6.67624 15.1663 6.9856C15.1663 7.29496 15.0434 7.59165 14.8247 7.81043L8.99134 13.6438C8.77256 13.8625 8.47587 13.9854 8.16651 13.9854C7.85715 13.9854 7.56046 13.8625 7.34168 13.6438ZM0.341676 13.6438C0.122959 13.425 9.25064e-05 13.1283 9.25064e-05 12.8189C9.25064e-05 12.5096 0.122959 12.2129 0.341676 11.9941L5.35018 6.9856L0.341676 1.9771C0.129158 1.75706 0.0115643 1.46236 0.0142221 1.15647C0.01688 0.85057 0.139579 0.557955 0.355888 0.341645C0.572197 0.125336 0.864812 0.00263786 1.17071 -2.09808e-05C1.4766 -0.00267887 1.77131 0.114915 1.99134 0.327433L7.82468 6.16077C8.04339 6.37955 8.16626 6.67624 8.16626 6.9856C8.16626 7.29496 8.04339 7.59165 7.82468 7.81043L1.99134 13.6438C1.77256 13.8625 1.47587 13.9854 1.16651 13.9854C0.857151 13.9854 0.560457 13.8625 0.341676 13.6438Z" fill="white"/>
</svg>
