<svg width="352" height="376" viewBox="0 0 352 376" fill="none" xmlns="http://www.w3.org/2000/svg">
<g filter="url(#filter0_d_4172_3489)">
<rect x="11.7998" y="56.855" width="328" height="306" rx="21" fill="white" shape-rendering="crispEdges"/>
<rect x="12.2998" y="57.355" width="327" height="305" rx="20.5" stroke="#E3E1E1" shape-rendering="crispEdges"/>
<path d="M56.9998 235.855V221.855H61.9198C62.6665 221.855 63.3398 222.038 63.9398 222.405C64.5465 222.772 65.0265 223.268 65.3798 223.895C65.7398 224.515 65.9198 225.208 65.9198 225.975C65.9198 226.648 65.7865 227.262 65.5198 227.815C65.2531 228.368 64.8865 228.832 64.4198 229.205C63.9598 229.572 63.4365 229.825 62.8498 229.965L66.2498 235.855H64.3098L60.9698 230.105H58.6798V235.855H56.9998ZM58.6798 228.425H61.7498C62.2031 228.425 62.6198 228.315 62.9998 228.095C63.3798 227.868 63.6798 227.565 63.8998 227.185C64.1265 226.798 64.2398 226.365 64.2398 225.885C64.2398 225.398 64.1265 224.965 63.8998 224.585C63.6798 224.198 63.3798 223.895 62.9998 223.675C62.6198 223.448 62.2031 223.335 61.7498 223.335H58.6798V228.425ZM72.2982 236.115C71.3782 236.115 70.5382 235.878 69.7782 235.405C69.0249 234.932 68.4216 234.298 67.9682 233.505C67.5216 232.705 67.2982 231.822 67.2982 230.855C67.2982 230.122 67.4282 229.438 67.6882 228.805C67.9482 228.165 68.3049 227.605 68.7582 227.125C69.2182 226.638 69.7516 226.258 70.3582 225.985C70.9649 225.712 71.6116 225.575 72.2982 225.575C73.0516 225.575 73.7416 225.728 74.3682 226.035C75.0016 226.335 75.5416 226.755 75.9882 227.295C76.4416 227.835 76.7782 228.462 76.9982 229.175C77.2249 229.888 77.3082 230.652 77.2482 231.465H69.0882C69.1682 232.032 69.3549 232.538 69.6482 232.985C69.9416 233.425 70.3149 233.775 70.7682 234.035C71.2282 234.295 71.7382 234.428 72.2982 234.435C72.8982 234.435 73.4416 234.282 73.9282 233.975C74.4149 233.662 74.8082 233.235 75.1082 232.695L76.8182 233.095C76.4182 233.982 75.8149 234.708 75.0082 235.275C74.2016 235.835 73.2982 236.115 72.2982 236.115ZM69.0382 230.145H75.5582C75.5049 229.585 75.3249 229.075 75.0182 228.615C74.7116 228.148 74.3216 227.775 73.8482 227.495C73.3749 227.215 72.8582 227.075 72.2982 227.075C71.7382 227.075 71.2249 227.212 70.7582 227.485C70.2916 227.758 69.9049 228.128 69.5982 228.595C69.2982 229.055 69.1116 229.572 69.0382 230.145ZM86.9148 225.855H88.5948V235.855H86.9148L86.8448 234.165C86.5315 234.745 86.0981 235.215 85.5448 235.575C84.9981 235.935 84.3448 236.115 83.5848 236.115C82.8515 236.115 82.1648 235.978 81.5248 235.705C80.8848 235.425 80.3181 235.042 79.8248 234.555C79.3381 234.062 78.9581 233.495 78.6848 232.855C78.4115 232.215 78.2748 231.525 78.2748 230.785C78.2748 230.072 78.4081 229.398 78.6748 228.765C78.9415 228.132 79.3115 227.578 79.7848 227.105C80.2648 226.625 80.8181 226.252 81.4448 225.985C82.0715 225.712 82.7448 225.575 83.4648 225.575C84.2515 225.575 84.9415 225.762 85.5348 226.135C86.1281 226.502 86.6081 226.978 86.9748 227.565L86.9148 225.855ZM83.5548 234.485C84.2148 234.485 84.7848 234.325 85.2648 234.005C85.7515 233.678 86.1248 233.238 86.3848 232.685C86.6515 232.132 86.7848 231.522 86.7848 230.855C86.7848 230.175 86.6515 229.562 86.3848 229.015C86.1181 228.462 85.7415 228.025 85.2548 227.705C84.7748 227.378 84.2081 227.215 83.5548 227.215C82.8948 227.215 82.2948 227.378 81.7548 227.705C81.2148 228.032 80.7848 228.472 80.4648 229.025C80.1515 229.572 79.9948 230.182 79.9948 230.855C79.9948 231.528 80.1581 232.142 80.4848 232.695C80.8115 233.242 81.2448 233.678 81.7848 234.005C82.3248 234.325 82.9148 234.485 83.5548 234.485ZM97.2882 233.215L98.7882 234.025C98.3349 234.658 97.7582 235.165 97.0582 235.545C96.3649 235.925 95.6116 236.115 94.7982 236.115C93.8782 236.115 93.0382 235.878 92.2782 235.405C91.5249 234.932 90.9216 234.298 90.4682 233.505C90.0216 232.705 89.7982 231.822 89.7982 230.855C89.7982 230.122 89.9282 229.438 90.1882 228.805C90.4482 228.165 90.8049 227.605 91.2582 227.125C91.7182 226.638 92.2516 226.258 92.8582 225.985C93.4649 225.712 94.1116 225.575 94.7982 225.575C95.6116 225.575 96.3649 225.765 97.0582 226.145C97.7582 226.525 98.3349 227.035 98.7882 227.675L97.2882 228.485C96.9682 228.092 96.5882 227.788 96.1482 227.575C95.7082 227.362 95.2582 227.255 94.7982 227.255C94.1782 227.255 93.6149 227.422 93.1082 227.755C92.6082 228.082 92.2116 228.518 91.9182 229.065C91.6249 229.612 91.4782 230.208 91.4782 230.855C91.4782 231.502 91.6249 232.098 91.9182 232.645C92.2182 233.185 92.6182 233.618 93.1182 233.945C93.6249 234.272 94.1849 234.435 94.7982 234.435C95.2916 234.435 95.7549 234.322 96.1882 234.095C96.6216 233.868 96.9882 233.575 97.2882 233.215ZM109.258 229.635V235.855H107.578V230.005C107.578 229.498 107.454 229.038 107.208 228.625C106.961 228.212 106.631 227.885 106.218 227.645C105.804 227.398 105.344 227.275 104.838 227.275C104.338 227.275 103.878 227.398 103.458 227.645C103.044 227.885 102.714 228.212 102.468 228.625C102.221 229.038 102.098 229.498 102.098 230.005V235.855H100.418V220.855H102.098V227.105C102.451 226.638 102.898 226.268 103.438 225.995C103.978 225.715 104.564 225.575 105.198 225.575C105.944 225.575 106.624 225.758 107.238 226.125C107.858 226.485 108.348 226.972 108.708 227.585C109.074 228.198 109.258 228.882 109.258 229.635ZM120.462 236.115C119.542 236.115 118.702 235.878 117.942 235.405C117.189 234.932 116.586 234.298 116.132 233.505C115.686 232.705 115.462 231.822 115.462 230.855C115.462 230.122 115.592 229.438 115.852 228.805C116.112 228.165 116.469 227.605 116.922 227.125C117.382 226.638 117.916 226.258 118.522 225.985C119.129 225.712 119.776 225.575 120.462 225.575C121.382 225.575 122.219 225.812 122.972 226.285C123.732 226.758 124.336 227.395 124.782 228.195C125.236 228.995 125.462 229.882 125.462 230.855C125.462 231.582 125.332 232.262 125.072 232.895C124.812 233.528 124.452 234.088 123.992 234.575C123.539 235.055 123.009 235.432 122.402 235.705C121.802 235.978 121.156 236.115 120.462 236.115ZM120.462 234.435C121.089 234.435 121.652 234.272 122.152 233.945C122.659 233.612 123.056 233.175 123.342 232.635C123.636 232.088 123.782 231.495 123.782 230.855C123.782 230.202 123.632 229.602 123.332 229.055C123.039 228.508 122.642 228.072 122.142 227.745C121.642 227.418 121.082 227.255 120.462 227.255C119.836 227.255 119.272 227.422 118.772 227.755C118.272 228.082 117.876 228.518 117.582 229.065C117.289 229.612 117.142 230.208 117.142 230.855C117.142 231.522 117.292 232.128 117.592 232.675C117.892 233.215 118.296 233.645 118.802 233.965C119.309 234.278 119.862 234.435 120.462 234.435ZM126.58 232.055V225.855H128.26V231.685C128.26 232.192 128.384 232.652 128.63 233.065C128.877 233.478 129.207 233.808 129.62 234.055C130.04 234.295 130.5 234.415 131 234.415C131.507 234.415 131.964 234.295 132.37 234.055C132.784 233.808 133.114 233.478 133.36 233.065C133.607 232.652 133.73 232.192 133.73 231.685V225.855H135.41L135.42 235.855H133.74L133.73 234.585C133.377 235.052 132.93 235.425 132.39 235.705C131.85 235.978 131.267 236.115 130.64 236.115C129.894 236.115 129.21 235.935 128.59 235.575C127.977 235.208 127.487 234.718 127.12 234.105C126.76 233.492 126.58 232.808 126.58 232.055ZM142.609 227.535H140.339L140.329 235.855H138.649L138.659 227.535H136.939V225.855H138.659L138.649 222.715H140.329L140.339 225.855H142.609V227.535ZM154.387 227.535H152.117L152.107 235.855H150.427L150.437 227.535H148.717V225.855H150.437L150.427 222.715H152.107L152.117 225.855H154.387V227.535ZM160.326 236.115C159.406 236.115 158.566 235.878 157.806 235.405C157.052 234.932 156.449 234.298 155.996 233.505C155.549 232.705 155.326 231.822 155.326 230.855C155.326 230.122 155.456 229.438 155.716 228.805C155.976 228.165 156.332 227.605 156.786 227.125C157.246 226.638 157.779 226.258 158.386 225.985C158.992 225.712 159.639 225.575 160.326 225.575C161.246 225.575 162.082 225.812 162.836 226.285C163.596 226.758 164.199 227.395 164.646 228.195C165.099 228.995 165.326 229.882 165.326 230.855C165.326 231.582 165.196 232.262 164.936 232.895C164.676 233.528 164.316 234.088 163.856 234.575C163.402 235.055 162.872 235.432 162.266 235.705C161.666 235.978 161.019 236.115 160.326 236.115ZM160.326 234.435C160.952 234.435 161.516 234.272 162.016 233.945C162.522 233.612 162.919 233.175 163.206 232.635C163.499 232.088 163.646 231.495 163.646 230.855C163.646 230.202 163.496 229.602 163.196 229.055C162.902 228.508 162.506 228.072 162.006 227.745C161.506 227.418 160.946 227.255 160.326 227.255C159.699 227.255 159.136 227.422 158.636 227.755C158.136 228.082 157.739 228.518 157.446 229.065C157.152 229.612 157.006 230.208 157.006 230.855C157.006 231.522 157.156 232.128 157.456 232.675C157.756 233.215 158.159 233.645 158.666 233.965C159.172 234.278 159.726 234.435 160.326 234.435ZM177.102 227.535H174.832L174.822 235.855H173.142L173.152 227.535H171.432V225.855H173.152L173.142 222.715H174.822L174.832 225.855H177.102V227.535ZM178.894 235.855V225.855H180.574V227.105C180.928 226.638 181.374 226.268 181.914 225.995C182.454 225.715 183.041 225.575 183.674 225.575C184.061 225.575 184.434 225.625 184.794 225.725L184.114 227.405C183.841 227.318 183.574 227.275 183.314 227.275C182.814 227.275 182.354 227.398 181.934 227.645C181.521 227.885 181.191 228.212 180.944 228.625C180.698 229.038 180.574 229.498 180.574 230.005V235.855H178.894ZM193.555 225.855H195.235V235.855H193.555L193.485 234.165C193.172 234.745 192.739 235.215 192.185 235.575C191.639 235.935 190.985 236.115 190.225 236.115C189.492 236.115 188.805 235.978 188.165 235.705C187.525 235.425 186.959 235.042 186.465 234.555C185.979 234.062 185.599 233.495 185.325 232.855C185.052 232.215 184.915 231.525 184.915 230.785C184.915 230.072 185.049 229.398 185.315 228.765C185.582 228.132 185.952 227.578 186.425 227.105C186.905 226.625 187.459 226.252 188.085 225.985C188.712 225.712 189.385 225.575 190.105 225.575C190.892 225.575 191.582 225.762 192.175 226.135C192.769 226.502 193.249 226.978 193.615 227.565L193.555 225.855ZM190.195 234.485C190.855 234.485 191.425 234.325 191.905 234.005C192.392 233.678 192.765 233.238 193.025 232.685C193.292 232.132 193.425 231.522 193.425 230.855C193.425 230.175 193.292 229.562 193.025 229.015C192.759 228.462 192.382 228.025 191.895 227.705C191.415 227.378 190.849 227.215 190.195 227.215C189.535 227.215 188.935 227.378 188.395 227.705C187.855 228.032 187.425 228.472 187.105 229.025C186.792 229.572 186.635 230.182 186.635 230.855C186.635 231.528 186.799 232.142 187.125 232.695C187.452 233.242 187.885 233.678 188.425 234.005C188.965 234.325 189.555 234.485 190.195 234.485ZM197.234 225.855H198.914V235.855H197.234V225.855ZM198.094 224.225C197.828 224.225 197.604 224.138 197.424 223.965C197.244 223.792 197.154 223.575 197.154 223.315C197.154 223.055 197.244 222.838 197.424 222.665C197.604 222.492 197.824 222.405 198.084 222.405C198.344 222.405 198.564 222.492 198.744 222.665C198.924 222.838 199.014 223.055 199.014 223.315C199.014 223.575 198.924 223.792 198.744 223.965C198.571 224.138 198.354 224.225 198.094 224.225ZM210.098 229.635V235.855H208.418V230.005C208.418 229.498 208.294 229.038 208.048 228.625C207.801 228.212 207.471 227.885 207.058 227.645C206.644 227.398 206.184 227.275 205.678 227.275C205.178 227.275 204.718 227.398 204.298 227.645C203.884 227.885 203.554 228.212 203.308 228.625C203.061 229.038 202.938 229.498 202.938 230.005V235.855H201.258V225.855H202.938V227.105C203.291 226.638 203.738 226.268 204.278 225.995C204.818 225.715 205.404 225.575 206.038 225.575C206.784 225.575 207.464 225.758 208.078 226.125C208.698 226.485 209.188 226.972 209.548 227.585C209.914 228.198 210.098 228.882 210.098 229.635ZM212.097 225.855H213.777V235.855H212.097V225.855ZM212.957 224.225C212.691 224.225 212.467 224.138 212.287 223.965C212.107 223.792 212.017 223.575 212.017 223.315C212.017 223.055 212.107 222.838 212.287 222.665C212.467 222.492 212.687 222.405 212.947 222.405C213.207 222.405 213.427 222.492 213.607 222.665C213.787 222.838 213.877 223.055 213.877 223.315C213.877 223.575 213.787 223.792 213.607 223.965C213.434 224.138 213.217 224.225 212.957 224.225ZM224.961 229.635V235.855H223.281V230.005C223.281 229.498 223.158 229.038 222.911 228.625C222.664 228.212 222.334 227.885 221.921 227.645C221.508 227.398 221.048 227.275 220.541 227.275C220.041 227.275 219.581 227.398 219.161 227.645C218.748 227.885 218.418 228.212 218.171 228.625C217.924 229.038 217.801 229.498 217.801 230.005V235.855H216.121V225.855H217.801V227.105C218.154 226.638 218.601 226.268 219.141 225.995C219.681 225.715 220.268 225.575 220.901 225.575C221.648 225.575 222.328 225.758 222.941 226.125C223.561 226.485 224.051 226.972 224.411 227.585C224.778 228.198 224.961 228.882 224.961 229.635ZM234.575 225.855H236.255V236.175C236.255 236.835 236.112 237.448 235.825 238.015C235.545 238.588 235.165 239.085 234.685 239.505C234.205 239.932 233.659 240.262 233.045 240.495C232.432 240.735 231.792 240.855 231.125 240.855C230.432 240.855 229.762 240.698 229.115 240.385C228.469 240.078 227.902 239.665 227.415 239.145C226.935 238.632 226.589 238.055 226.375 237.415L227.915 236.715C228.042 237.175 228.269 237.588 228.595 237.955C228.929 238.328 229.315 238.622 229.755 238.835C230.202 239.055 230.659 239.165 231.125 239.165C231.565 239.165 231.989 239.088 232.395 238.935C232.809 238.782 233.179 238.568 233.505 238.295C233.839 238.028 234.099 237.712 234.285 237.345C234.479 236.985 234.575 236.595 234.575 236.175V234.185C234.235 234.758 233.785 235.225 233.225 235.585C232.672 235.938 232.025 236.115 231.285 236.115C230.579 236.115 229.915 235.978 229.295 235.705C228.675 235.432 228.132 235.055 227.665 234.575C227.199 234.088 226.832 233.528 226.565 232.895C226.299 232.262 226.165 231.582 226.165 230.855C226.165 230.128 226.299 229.448 226.565 228.815C226.832 228.175 227.199 227.615 227.665 227.135C228.132 226.648 228.675 226.268 229.295 225.995C229.915 225.722 230.579 225.585 231.285 225.585C232.025 225.585 232.672 225.762 233.225 226.115C233.785 226.468 234.235 226.935 234.575 227.515V225.855ZM231.295 234.485C231.942 234.485 232.502 234.318 232.975 233.985C233.455 233.652 233.825 233.208 234.085 232.655C234.345 232.102 234.475 231.502 234.475 230.855C234.475 230.188 234.342 229.582 234.075 229.035C233.815 228.482 233.445 228.042 232.965 227.715C232.492 227.382 231.935 227.215 231.295 227.215C230.669 227.215 230.095 227.378 229.575 227.705C229.055 228.032 228.642 228.472 228.335 229.025C228.035 229.572 227.885 230.182 227.885 230.855C227.885 231.528 228.039 232.142 228.345 232.695C228.659 233.242 229.072 233.678 229.585 234.005C230.105 234.325 230.675 234.485 231.295 234.485ZM250.355 233.215L251.855 234.025C251.401 234.658 250.825 235.165 250.125 235.545C249.431 235.925 248.678 236.115 247.865 236.115C246.945 236.115 246.105 235.878 245.345 235.405C244.591 234.932 243.988 234.298 243.535 233.505C243.088 232.705 242.865 231.822 242.865 230.855C242.865 230.122 242.995 229.438 243.255 228.805C243.515 228.165 243.871 227.605 244.325 227.125C244.785 226.638 245.318 226.258 245.925 225.985C246.531 225.712 247.178 225.575 247.865 225.575C248.678 225.575 249.431 225.765 250.125 226.145C250.825 226.525 251.401 227.035 251.855 227.675L250.355 228.485C250.035 228.092 249.655 227.788 249.215 227.575C248.775 227.362 248.325 227.255 247.865 227.255C247.245 227.255 246.681 227.422 246.175 227.755C245.675 228.082 245.278 228.518 244.985 229.065C244.691 229.612 244.545 230.208 244.545 230.855C244.545 231.502 244.691 232.098 244.985 232.645C245.285 233.185 245.685 233.618 246.185 233.945C246.691 234.272 247.251 234.435 247.865 234.435C248.358 234.435 248.821 234.322 249.255 234.095C249.688 233.868 250.055 233.575 250.355 233.215ZM257.884 236.115C256.964 236.115 256.124 235.878 255.364 235.405C254.611 234.932 254.008 234.298 253.554 233.505C253.108 232.705 252.884 231.822 252.884 230.855C252.884 230.122 253.014 229.438 253.274 228.805C253.534 228.165 253.891 227.605 254.344 227.125C254.804 226.638 255.338 226.258 255.944 225.985C256.551 225.712 257.198 225.575 257.884 225.575C258.638 225.575 259.328 225.728 259.954 226.035C260.588 226.335 261.128 226.755 261.574 227.295C262.028 227.835 262.364 228.462 262.584 229.175C262.811 229.888 262.894 230.652 262.834 231.465H254.674C254.754 232.032 254.941 232.538 255.234 232.985C255.528 233.425 255.901 233.775 256.354 234.035C256.814 234.295 257.324 234.428 257.884 234.435C258.484 234.435 259.028 234.282 259.514 233.975C260.001 233.662 260.394 233.235 260.694 232.695L262.404 233.095C262.004 233.982 261.401 234.708 260.594 235.275C259.788 235.835 258.884 236.115 257.884 236.115ZM254.624 230.145H261.144C261.091 229.585 260.911 229.075 260.604 228.615C260.298 228.148 259.908 227.775 259.434 227.495C258.961 227.215 258.444 227.075 257.884 227.075C257.324 227.075 256.811 227.212 256.344 227.485C255.878 227.758 255.491 228.128 255.184 228.595C254.884 229.055 254.698 229.572 254.624 230.145ZM273.359 229.635V235.855H271.679V230.005C271.679 229.498 271.556 229.038 271.309 228.625C271.063 228.212 270.733 227.885 270.319 227.645C269.906 227.398 269.446 227.275 268.939 227.275C268.439 227.275 267.979 227.398 267.559 227.645C267.146 227.885 266.816 228.212 266.569 228.625C266.323 229.038 266.199 229.498 266.199 230.005V235.855H264.519V225.855H266.199V227.105C266.553 226.638 266.999 226.268 267.539 225.995C268.079 225.715 268.666 225.575 269.299 225.575C270.046 225.575 270.726 225.758 271.339 226.125C271.959 226.485 272.449 226.972 272.809 227.585C273.176 228.198 273.359 228.882 273.359 229.635ZM280.539 227.535H278.269L278.259 235.855H276.579L276.589 227.535H274.869V225.855H276.589L276.579 222.715H278.259L278.269 225.855H280.539V227.535ZM286.478 236.115C285.558 236.115 284.718 235.878 283.958 235.405C283.205 234.932 282.601 234.298 282.148 233.505C281.701 232.705 281.478 231.822 281.478 230.855C281.478 230.122 281.608 229.438 281.868 228.805C282.128 228.165 282.485 227.605 282.938 227.125C283.398 226.638 283.931 226.258 284.538 225.985C285.145 225.712 285.791 225.575 286.478 225.575C287.231 225.575 287.921 225.728 288.548 226.035C289.181 226.335 289.721 226.755 290.168 227.295C290.621 227.835 290.958 228.462 291.178 229.175C291.405 229.888 291.488 230.652 291.428 231.465H283.268C283.348 232.032 283.535 232.538 283.828 232.985C284.121 233.425 284.495 233.775 284.948 234.035C285.408 234.295 285.918 234.428 286.478 234.435C287.078 234.435 287.621 234.282 288.108 233.975C288.595 233.662 288.988 233.235 289.288 232.695L290.998 233.095C290.598 233.982 289.995 234.708 289.188 235.275C288.381 235.835 287.478 236.115 286.478 236.115ZM283.218 230.145H289.738C289.685 229.585 289.505 229.075 289.198 228.615C288.891 228.148 288.501 227.775 288.028 227.495C287.555 227.215 287.038 227.075 286.478 227.075C285.918 227.075 285.405 227.212 284.938 227.485C284.471 227.758 284.085 228.128 283.778 228.595C283.478 229.055 283.291 229.572 283.218 230.145ZM293.113 235.855V225.855H294.793V227.105C295.146 226.638 295.593 226.268 296.133 225.995C296.673 225.715 297.26 225.575 297.893 225.575C298.28 225.575 298.653 225.625 299.013 225.725L298.333 227.405C298.06 227.318 297.793 227.275 297.533 227.275C297.033 227.275 296.573 227.398 296.153 227.645C295.74 227.885 295.41 228.212 295.163 228.625C294.916 229.038 294.793 229.498 294.793 230.005V235.855H293.113ZM303.292 236.045C302.752 236.025 302.225 235.925 301.712 235.745C301.205 235.558 300.759 235.308 300.372 234.995C299.992 234.675 299.715 234.308 299.542 233.895L300.982 233.275C301.082 233.502 301.262 233.715 301.522 233.915C301.782 234.115 302.082 234.275 302.422 234.395C302.762 234.515 303.105 234.575 303.452 234.575C303.819 234.575 304.162 234.518 304.482 234.405C304.802 234.292 305.062 234.125 305.262 233.905C305.469 233.678 305.572 233.408 305.572 233.095C305.572 232.762 305.459 232.502 305.232 232.315C305.012 232.122 304.732 231.972 304.392 231.865C304.059 231.752 303.719 231.645 303.372 231.545C302.685 231.372 302.072 231.165 301.532 230.925C300.992 230.678 300.565 230.368 300.252 229.995C299.945 229.615 299.792 229.132 299.792 228.545C299.792 227.925 299.962 227.388 300.302 226.935C300.649 226.482 301.102 226.132 301.662 225.885C302.222 225.638 302.822 225.515 303.462 225.515C304.269 225.515 305.005 225.688 305.672 226.035C306.339 226.382 306.835 226.852 307.162 227.445L305.812 228.235C305.699 227.995 305.525 227.785 305.292 227.605C305.059 227.418 304.792 227.272 304.492 227.165C304.192 227.058 303.885 227.002 303.572 226.995C303.185 226.982 302.822 227.032 302.482 227.145C302.149 227.258 301.879 227.432 301.672 227.665C301.472 227.892 301.372 228.175 301.372 228.515C301.372 228.848 301.479 229.102 301.692 229.275C301.912 229.448 302.195 229.588 302.542 229.695C302.895 229.795 303.279 229.912 303.692 230.045C304.299 230.238 304.865 230.462 305.392 230.715C305.919 230.968 306.342 231.285 306.662 231.665C306.989 232.045 307.149 232.515 307.142 233.075C307.142 233.688 306.959 234.225 306.592 234.685C306.225 235.138 305.749 235.485 305.162 235.725C304.582 235.965 303.959 236.072 303.292 236.045ZM308.397 236.975L309.017 233.595H310.697L309.517 236.975H308.397ZM65.0398 249.855H66.7198V259.855H65.0398L64.9698 258.165C64.6565 258.745 64.2231 259.215 63.6698 259.575C63.1231 259.935 62.4698 260.115 61.7098 260.115C60.9765 260.115 60.2898 259.978 59.6498 259.705C59.0098 259.425 58.4431 259.042 57.9498 258.555C57.4631 258.062 57.0831 257.495 56.8098 256.855C56.5365 256.215 56.3998 255.525 56.3998 254.785C56.3998 254.072 56.5331 253.398 56.7998 252.765C57.0665 252.132 57.4365 251.578 57.9098 251.105C58.3898 250.625 58.9431 250.252 59.5698 249.985C60.1965 249.712 60.8698 249.575 61.5898 249.575C62.3765 249.575 63.0665 249.762 63.6598 250.135C64.2531 250.502 64.7331 250.978 65.0998 251.565L65.0398 249.855ZM61.6798 258.485C62.3398 258.485 62.9098 258.325 63.3898 258.005C63.8765 257.678 64.2498 257.238 64.5098 256.685C64.7765 256.132 64.9098 255.522 64.9098 254.855C64.9098 254.175 64.7765 253.562 64.5098 253.015C64.2431 252.462 63.8665 252.025 63.3798 251.705C62.8998 251.378 62.3331 251.215 61.6798 251.215C61.0198 251.215 60.4198 251.378 59.8798 251.705C59.3398 252.032 58.9098 252.472 58.5898 253.025C58.2765 253.572 58.1198 254.182 58.1198 254.855C58.1198 255.528 58.2831 256.142 58.6098 256.695C58.9365 257.242 59.3698 257.678 59.9098 258.005C60.4498 258.325 61.0398 258.485 61.6798 258.485ZM75.4132 257.215L76.9132 258.025C76.4599 258.658 75.8832 259.165 75.1832 259.545C74.4899 259.925 73.7366 260.115 72.9232 260.115C72.0032 260.115 71.1632 259.878 70.4032 259.405C69.6499 258.932 69.0466 258.298 68.5932 257.505C68.1466 256.705 67.9232 255.822 67.9232 254.855C67.9232 254.122 68.0532 253.438 68.3132 252.805C68.5732 252.165 68.9299 251.605 69.3832 251.125C69.8432 250.638 70.3766 250.258 70.9832 249.985C71.5899 249.712 72.2366 249.575 72.9232 249.575C73.7366 249.575 74.4899 249.765 75.1832 250.145C75.8832 250.525 76.4599 251.035 76.9132 251.675L75.4132 252.485C75.0932 252.092 74.7132 251.788 74.2732 251.575C73.8332 251.362 73.3832 251.255 72.9232 251.255C72.3032 251.255 71.7399 251.422 71.2332 251.755C70.7332 252.082 70.3366 252.518 70.0432 253.065C69.7499 253.612 69.6032 254.208 69.6032 254.855C69.6032 255.502 69.7499 256.098 70.0432 256.645C70.3432 257.185 70.7432 257.618 71.2432 257.945C71.7499 258.272 72.3099 258.435 72.9232 258.435C73.4166 258.435 73.8799 258.322 74.3132 258.095C74.7466 257.868 75.1132 257.575 75.4132 257.215ZM86.5828 249.855H88.2628V259.855H86.5828L86.5128 258.165C86.1994 258.745 85.7661 259.215 85.2128 259.575C84.6661 259.935 84.0128 260.115 83.2528 260.115C82.5194 260.115 81.8328 259.978 81.1928 259.705C80.5528 259.425 79.9861 259.042 79.4928 258.555C79.0061 258.062 78.6261 257.495 78.3528 256.855C78.0794 256.215 77.9428 255.525 77.9428 254.785C77.9428 254.072 78.0761 253.398 78.3428 252.765C78.6094 252.132 78.9794 251.578 79.4528 251.105C79.9328 250.625 80.4861 250.252 81.1128 249.985C81.7394 249.712 82.4128 249.575 83.1328 249.575C83.9194 249.575 84.6094 249.762 85.2028 250.135C85.7961 250.502 86.2761 250.978 86.6428 251.565L86.5828 249.855ZM83.2228 258.485C83.8828 258.485 84.4528 258.325 84.9328 258.005C85.4194 257.678 85.7928 257.238 86.0528 256.685C86.3194 256.132 86.4528 255.522 86.4528 254.855C86.4528 254.175 86.3194 253.562 86.0528 253.015C85.7861 252.462 85.4094 252.025 84.9228 251.705C84.4428 251.378 83.8761 251.215 83.2228 251.215C82.5628 251.215 81.9628 251.378 81.4228 251.705C80.8828 252.032 80.4528 252.472 80.1328 253.025C79.8194 253.572 79.6628 254.182 79.6628 254.855C79.6628 255.528 79.8261 256.142 80.1528 256.695C80.4794 257.242 80.9128 257.678 81.4528 258.005C81.9928 258.325 82.5828 258.485 83.2228 258.485ZM98.1162 244.855H99.7962V259.855H98.1162V258.155C97.7762 258.742 97.3195 259.215 96.7462 259.575C96.1729 259.935 95.4995 260.115 94.7262 260.115C93.9995 260.115 93.3195 259.978 92.6862 259.705C92.0529 259.432 91.4929 259.055 91.0062 258.575C90.5262 258.088 90.1495 257.528 89.8762 256.895C89.6029 256.262 89.4662 255.582 89.4662 254.855C89.4662 254.128 89.6029 253.448 89.8762 252.815C90.1495 252.175 90.5262 251.615 91.0062 251.135C91.4929 250.648 92.0529 250.268 92.6862 249.995C93.3195 249.722 93.9995 249.585 94.7262 249.585C95.4995 249.585 96.1729 249.765 96.7462 250.125C97.3195 250.485 97.7762 250.958 98.1162 251.545V244.855ZM94.7462 258.485C95.4062 258.485 95.9762 258.325 96.4562 258.005C96.9429 257.678 97.3162 257.238 97.5762 256.685C97.8429 256.132 97.9762 255.522 97.9762 254.855C97.9762 254.175 97.8429 253.562 97.5762 253.015C97.3095 252.462 96.9329 252.025 96.4462 251.705C95.9662 251.378 95.3995 251.215 94.7462 251.215C94.0862 251.215 93.4862 251.378 92.9462 251.705C92.4129 252.032 91.9862 252.472 91.6662 253.025C91.3462 253.572 91.1862 254.182 91.1862 254.855C91.1862 255.528 91.3495 256.142 91.6762 256.695C92.0029 257.242 92.4362 257.678 92.9762 258.005C93.5162 258.325 94.1062 258.485 94.7462 258.485ZM106.497 260.115C105.577 260.115 104.737 259.878 103.977 259.405C103.224 258.932 102.621 258.298 102.167 257.505C101.721 256.705 101.497 255.822 101.497 254.855C101.497 254.122 101.627 253.438 101.887 252.805C102.147 252.165 102.504 251.605 102.957 251.125C103.417 250.638 103.951 250.258 104.557 249.985C105.164 249.712 105.811 249.575 106.497 249.575C107.251 249.575 107.941 249.728 108.567 250.035C109.201 250.335 109.741 250.755 110.187 251.295C110.641 251.835 110.977 252.462 111.197 253.175C111.424 253.888 111.507 254.652 111.447 255.465H103.287C103.367 256.032 103.554 256.538 103.847 256.985C104.141 257.425 104.514 257.775 104.967 258.035C105.427 258.295 105.937 258.428 106.497 258.435C107.097 258.435 107.641 258.282 108.127 257.975C108.614 257.662 109.007 257.235 109.307 256.695L111.017 257.095C110.617 257.982 110.014 258.708 109.207 259.275C108.401 259.835 107.497 260.115 106.497 260.115ZM103.237 254.145H109.757C109.704 253.585 109.524 253.075 109.217 252.615C108.911 252.148 108.521 251.775 108.047 251.495C107.574 251.215 107.057 251.075 106.497 251.075C105.937 251.075 105.424 251.212 104.957 251.485C104.491 251.758 104.104 252.128 103.797 252.595C103.497 253.055 103.311 253.572 103.237 254.145ZM113.133 259.855V249.855H114.813V251.105C115.166 250.638 115.609 250.268 116.143 249.995C116.683 249.715 117.269 249.575 117.903 249.575C118.643 249.575 119.319 249.755 119.933 250.115C120.546 250.475 121.029 250.952 121.383 251.545C121.736 250.952 122.216 250.475 122.823 250.115C123.436 249.755 124.109 249.575 124.843 249.575C125.596 249.575 126.279 249.758 126.893 250.125C127.506 250.485 127.993 250.972 128.353 251.585C128.719 252.198 128.903 252.882 128.903 253.635V259.855H127.223V254.035C127.223 253.542 127.103 253.085 126.863 252.665C126.623 252.245 126.299 251.908 125.893 251.655C125.486 251.402 125.036 251.275 124.543 251.275C124.049 251.275 123.599 251.395 123.193 251.635C122.786 251.868 122.463 252.195 122.223 252.615C121.983 253.028 121.863 253.502 121.863 254.035V259.855H120.183V254.035C120.183 253.502 120.063 253.028 119.823 252.615C119.583 252.195 119.256 251.868 118.843 251.635C118.436 251.395 117.986 251.275 117.493 251.275C117.006 251.275 116.556 251.402 116.143 251.655C115.736 251.908 115.413 252.245 115.173 252.665C114.933 253.085 114.813 253.542 114.813 254.035V259.855H113.133ZM130.906 249.855H132.586V259.855H130.906V249.855ZM131.766 248.225C131.499 248.225 131.276 248.138 131.096 247.965C130.916 247.792 130.826 247.575 130.826 247.315C130.826 247.055 130.916 246.838 131.096 246.665C131.276 246.492 131.496 246.405 131.756 246.405C132.016 246.405 132.236 246.492 132.416 246.665C132.596 246.838 132.686 247.055 132.686 247.315C132.686 247.575 132.596 247.792 132.416 247.965C132.243 248.138 132.026 248.225 131.766 248.225ZM139.251 260.115C138.331 260.115 137.491 259.878 136.731 259.405C135.978 258.932 135.375 258.298 134.921 257.505C134.475 256.705 134.251 255.822 134.251 254.855C134.251 254.122 134.381 253.438 134.641 252.805C134.901 252.165 135.258 251.605 135.711 251.125C136.171 250.638 136.705 250.258 137.311 249.985C137.918 249.712 138.565 249.575 139.251 249.575C140.005 249.575 140.695 249.728 141.321 250.035C141.955 250.335 142.495 250.755 142.941 251.295C143.395 251.835 143.731 252.462 143.951 253.175C144.178 253.888 144.261 254.652 144.201 255.465H136.041C136.121 256.032 136.308 256.538 136.601 256.985C136.895 257.425 137.268 257.775 137.721 258.035C138.181 258.295 138.691 258.428 139.251 258.435C139.851 258.435 140.395 258.282 140.881 257.975C141.368 257.662 141.761 257.235 142.061 256.695L143.771 257.095C143.371 257.982 142.768 258.708 141.961 259.275C141.155 259.835 140.251 260.115 139.251 260.115ZM135.991 254.145H142.511C142.458 253.585 142.278 253.075 141.971 252.615C141.665 252.148 141.275 251.775 140.801 251.495C140.328 251.215 139.811 251.075 139.251 251.075C138.691 251.075 138.178 251.212 137.711 251.485C137.245 251.758 136.858 252.128 136.551 252.595C136.251 253.055 136.065 253.572 135.991 254.145ZM148.976 260.045C148.436 260.025 147.909 259.925 147.396 259.745C146.889 259.558 146.442 259.308 146.056 258.995C145.676 258.675 145.399 258.308 145.226 257.895L146.666 257.275C146.766 257.502 146.946 257.715 147.206 257.915C147.466 258.115 147.766 258.275 148.106 258.395C148.446 258.515 148.789 258.575 149.136 258.575C149.502 258.575 149.846 258.518 150.166 258.405C150.486 258.292 150.746 258.125 150.946 257.905C151.152 257.678 151.256 257.408 151.256 257.095C151.256 256.762 151.142 256.502 150.916 256.315C150.696 256.122 150.416 255.972 150.076 255.865C149.742 255.752 149.402 255.645 149.056 255.545C148.369 255.372 147.756 255.165 147.216 254.925C146.676 254.678 146.249 254.368 145.936 253.995C145.629 253.615 145.476 253.132 145.476 252.545C145.476 251.925 145.646 251.388 145.986 250.935C146.332 250.482 146.786 250.132 147.346 249.885C147.906 249.638 148.506 249.515 149.146 249.515C149.952 249.515 150.689 249.688 151.356 250.035C152.022 250.382 152.519 250.852 152.846 251.445L151.496 252.235C151.382 251.995 151.209 251.785 150.976 251.605C150.742 251.418 150.476 251.272 150.176 251.165C149.876 251.058 149.569 251.002 149.256 250.995C148.869 250.982 148.506 251.032 148.166 251.145C147.832 251.258 147.562 251.432 147.356 251.665C147.156 251.892 147.056 252.175 147.056 252.515C147.056 252.848 147.162 253.102 147.376 253.275C147.596 253.448 147.879 253.588 148.226 253.695C148.579 253.795 148.962 253.912 149.376 254.045C149.982 254.238 150.549 254.462 151.076 254.715C151.602 254.968 152.026 255.285 152.346 255.665C152.672 256.045 152.832 256.515 152.826 257.075C152.826 257.688 152.642 258.225 152.276 258.685C151.909 259.138 151.432 259.485 150.846 259.725C150.266 259.965 149.642 260.072 148.976 260.045ZM154.08 260.975L154.7 257.595H156.38L155.2 260.975H154.08ZM165.852 247.385V249.855H168.782V251.535H165.852V259.855H164.172V251.535H162.882V249.855H164.172V247.385C164.172 246.872 164.295 246.408 164.542 245.995C164.795 245.575 165.132 245.242 165.552 244.995C165.979 244.742 166.445 244.615 166.952 244.615C167.325 244.615 167.689 244.692 168.042 244.845C168.395 244.992 168.709 245.212 168.982 245.505L167.782 246.695C167.689 246.568 167.565 246.472 167.412 246.405C167.265 246.332 167.112 246.295 166.952 246.295C166.652 246.295 166.392 246.402 166.172 246.615C165.959 246.828 165.852 247.085 165.852 247.385ZM170.32 249.855H172V259.855H170.32V249.855ZM171.18 248.225C170.913 248.225 170.69 248.138 170.51 247.965C170.33 247.792 170.24 247.575 170.24 247.315C170.24 247.055 170.33 246.838 170.51 246.665C170.69 246.492 170.91 246.405 171.17 246.405C171.43 246.405 171.65 246.492 171.83 246.665C172.01 246.838 172.1 247.055 172.1 247.315C172.1 247.575 172.01 247.792 171.83 247.965C171.657 248.138 171.44 248.225 171.18 248.225ZM179.582 251.535H177.312L177.302 259.855H175.622L175.632 251.535H173.912V249.855H175.632L175.622 246.715H177.302L177.312 249.855H179.582V251.535ZM190.215 253.635V259.855H188.535V254.005C188.535 253.498 188.411 253.038 188.165 252.625C187.918 252.212 187.588 251.885 187.175 251.645C186.761 251.398 186.301 251.275 185.795 251.275C185.295 251.275 184.835 251.398 184.415 251.645C184.001 251.885 183.671 252.212 183.425 252.625C183.178 253.038 183.055 253.498 183.055 254.005V259.855H181.375V249.855H183.055V251.105C183.408 250.638 183.855 250.268 184.395 249.995C184.935 249.715 185.521 249.575 186.155 249.575C186.901 249.575 187.581 249.758 188.195 250.125C188.815 250.485 189.305 250.972 189.665 251.585C190.031 252.198 190.215 252.882 190.215 253.635ZM196.419 260.115C195.499 260.115 194.659 259.878 193.899 259.405C193.146 258.932 192.543 258.298 192.089 257.505C191.643 256.705 191.419 255.822 191.419 254.855C191.419 254.122 191.549 253.438 191.809 252.805C192.069 252.165 192.426 251.605 192.879 251.125C193.339 250.638 193.873 250.258 194.479 249.985C195.086 249.712 195.733 249.575 196.419 249.575C197.173 249.575 197.863 249.728 198.489 250.035C199.123 250.335 199.663 250.755 200.109 251.295C200.563 251.835 200.899 252.462 201.119 253.175C201.346 253.888 201.429 254.652 201.369 255.465H193.209C193.289 256.032 193.476 256.538 193.769 256.985C194.063 257.425 194.436 257.775 194.889 258.035C195.349 258.295 195.859 258.428 196.419 258.435C197.019 258.435 197.563 258.282 198.049 257.975C198.536 257.662 198.929 257.235 199.229 256.695L200.939 257.095C200.539 257.982 199.936 258.708 199.129 259.275C198.323 259.835 197.419 260.115 196.419 260.115ZM193.159 254.145H199.679C199.626 253.585 199.446 253.075 199.139 252.615C198.833 252.148 198.443 251.775 197.969 251.495C197.496 251.215 196.979 251.075 196.419 251.075C195.859 251.075 195.346 251.212 194.879 251.485C194.413 251.758 194.026 252.128 193.719 252.595C193.419 253.055 193.233 253.572 193.159 254.145ZM206.144 260.045C205.604 260.025 205.077 259.925 204.564 259.745C204.057 259.558 203.61 259.308 203.224 258.995C202.844 258.675 202.567 258.308 202.394 257.895L203.834 257.275C203.934 257.502 204.114 257.715 204.374 257.915C204.634 258.115 204.934 258.275 205.274 258.395C205.614 258.515 205.957 258.575 206.304 258.575C206.67 258.575 207.014 258.518 207.334 258.405C207.654 258.292 207.914 258.125 208.114 257.905C208.32 257.678 208.424 257.408 208.424 257.095C208.424 256.762 208.31 256.502 208.084 256.315C207.864 256.122 207.584 255.972 207.244 255.865C206.91 255.752 206.57 255.645 206.224 255.545C205.537 255.372 204.924 255.165 204.384 254.925C203.844 254.678 203.417 254.368 203.104 253.995C202.797 253.615 202.644 253.132 202.644 252.545C202.644 251.925 202.814 251.388 203.154 250.935C203.5 250.482 203.954 250.132 204.514 249.885C205.074 249.638 205.674 249.515 206.314 249.515C207.12 249.515 207.857 249.688 208.524 250.035C209.19 250.382 209.687 250.852 210.014 251.445L208.664 252.235C208.55 251.995 208.377 251.785 208.144 251.605C207.91 251.418 207.644 251.272 207.344 251.165C207.044 251.058 206.737 251.002 206.424 250.995C206.037 250.982 205.674 251.032 205.334 251.145C205 251.258 204.73 251.432 204.524 251.665C204.324 251.892 204.224 252.175 204.224 252.515C204.224 252.848 204.33 253.102 204.544 253.275C204.764 253.448 205.047 253.588 205.394 253.695C205.747 253.795 206.13 253.912 206.544 254.045C207.15 254.238 207.717 254.462 208.244 254.715C208.77 254.968 209.194 255.285 209.514 255.665C209.84 256.045 210 256.515 209.994 257.075C209.994 257.688 209.81 258.225 209.444 258.685C209.077 259.138 208.6 259.485 208.014 259.725C207.434 259.965 206.81 260.072 206.144 260.045ZM214.757 260.045C214.217 260.025 213.69 259.925 213.177 259.745C212.67 259.558 212.224 259.308 211.837 258.995C211.457 258.675 211.18 258.308 211.007 257.895L212.447 257.275C212.547 257.502 212.727 257.715 212.987 257.915C213.247 258.115 213.547 258.275 213.887 258.395C214.227 258.515 214.57 258.575 214.917 258.575C215.284 258.575 215.627 258.518 215.947 258.405C216.267 258.292 216.527 258.125 216.727 257.905C216.934 257.678 217.037 257.408 217.037 257.095C217.037 256.762 216.924 256.502 216.697 256.315C216.477 256.122 216.197 255.972 215.857 255.865C215.524 255.752 215.184 255.645 214.837 255.545C214.15 255.372 213.537 255.165 212.997 254.925C212.457 254.678 212.03 254.368 211.717 253.995C211.41 253.615 211.257 253.132 211.257 252.545C211.257 251.925 211.427 251.388 211.767 250.935C212.114 250.482 212.567 250.132 213.127 249.885C213.687 249.638 214.287 249.515 214.927 249.515C215.734 249.515 216.47 249.688 217.137 250.035C217.804 250.382 218.3 250.852 218.627 251.445L217.277 252.235C217.164 251.995 216.99 251.785 216.757 251.605C216.524 251.418 216.257 251.272 215.957 251.165C215.657 251.058 215.35 251.002 215.037 250.995C214.65 250.982 214.287 251.032 213.947 251.145C213.614 251.258 213.344 251.432 213.137 251.665C212.937 251.892 212.837 252.175 212.837 252.515C212.837 252.848 212.944 253.102 213.157 253.275C213.377 253.448 213.66 253.588 214.007 253.695C214.36 253.795 214.744 253.912 215.157 254.045C215.764 254.238 216.33 254.462 216.857 254.715C217.384 254.968 217.807 255.285 218.127 255.665C218.454 256.045 218.614 256.515 218.607 257.075C218.607 257.688 218.424 258.225 218.057 258.685C217.69 259.138 217.214 259.485 216.627 259.725C216.047 259.965 215.424 260.072 214.757 260.045ZM62.0598 273.575C63.0331 273.575 63.9165 273.812 64.7098 274.285C65.5098 274.758 66.1465 275.395 66.6198 276.195C67.0931 276.988 67.3298 277.872 67.3298 278.845C67.3298 279.572 67.1931 280.255 66.9198 280.895C66.6465 281.528 66.2665 282.088 65.7798 282.575C65.2998 283.055 64.7398 283.432 64.0998 283.705C63.4665 283.978 62.7865 284.115 62.0598 284.115C61.2865 284.115 60.6131 283.935 60.0398 283.575C59.4731 283.208 59.0198 282.732 58.6798 282.145V283.855H56.9998V268.855H58.6798V275.545C59.0198 274.958 59.4731 274.485 60.0398 274.125C60.6131 273.758 61.2865 273.575 62.0598 273.575ZM62.0398 282.475C62.6998 282.475 63.2998 282.312 63.8398 281.985C64.3798 281.658 64.8098 281.222 65.1298 280.675C65.4498 280.122 65.6098 279.512 65.6098 278.845C65.6098 278.165 65.4465 277.552 65.1198 277.005C64.7931 276.452 64.3598 276.015 63.8198 275.695C63.2798 275.368 62.6865 275.205 62.0398 275.205C61.3865 275.205 60.8165 275.368 60.3298 275.695C59.8498 276.022 59.4765 276.462 59.2098 277.015C58.9498 277.568 58.8198 278.178 58.8198 278.845C58.8198 279.518 58.9498 280.132 59.2098 280.685C59.4765 281.232 59.8531 281.668 60.3398 281.995C60.8265 282.315 61.3931 282.475 62.0398 282.475ZM68.4553 280.055V273.855H70.1353V279.685C70.1353 280.192 70.2586 280.652 70.5053 281.065C70.7519 281.478 71.0819 281.808 71.4953 282.055C71.9153 282.295 72.3753 282.415 72.8753 282.415C73.3819 282.415 73.8386 282.295 74.2453 282.055C74.6586 281.808 74.9886 281.478 75.2353 281.065C75.4819 280.652 75.6053 280.192 75.6053 279.685V273.855H77.2853L77.2953 283.855H75.6153L75.6053 282.585C75.2519 283.052 74.8053 283.425 74.2653 283.705C73.7253 283.978 73.1419 284.115 72.5153 284.115C71.7686 284.115 71.0853 283.935 70.4653 283.575C69.8519 283.208 69.3619 282.718 68.9953 282.105C68.6353 281.492 68.4553 280.808 68.4553 280.055ZM82.3545 284.045C81.8145 284.025 81.2878 283.925 80.7745 283.745C80.2678 283.558 79.8212 283.308 79.4345 282.995C79.0545 282.675 78.7778 282.308 78.6045 281.895L80.0445 281.275C80.1445 281.502 80.3245 281.715 80.5845 281.915C80.8445 282.115 81.1445 282.275 81.4845 282.395C81.8245 282.515 82.1678 282.575 82.5145 282.575C82.8812 282.575 83.2245 282.518 83.5445 282.405C83.8645 282.292 84.1245 282.125 84.3245 281.905C84.5312 281.678 84.6345 281.408 84.6345 281.095C84.6345 280.762 84.5212 280.502 84.2945 280.315C84.0745 280.122 83.7945 279.972 83.4545 279.865C83.1212 279.752 82.7812 279.645 82.4345 279.545C81.7478 279.372 81.1345 279.165 80.5945 278.925C80.0545 278.678 79.6278 278.368 79.3145 277.995C79.0078 277.615 78.8545 277.132 78.8545 276.545C78.8545 275.925 79.0245 275.388 79.3645 274.935C79.7112 274.482 80.1645 274.132 80.7245 273.885C81.2845 273.638 81.8845 273.515 82.5245 273.515C83.3312 273.515 84.0678 273.688 84.7345 274.035C85.4012 274.382 85.8978 274.852 86.2245 275.445L84.8745 276.235C84.7612 275.995 84.5878 275.785 84.3545 275.605C84.1212 275.418 83.8545 275.272 83.5545 275.165C83.2545 275.058 82.9478 275.002 82.6345 274.995C82.2478 274.982 81.8845 275.032 81.5445 275.145C81.2112 275.258 80.9412 275.432 80.7345 275.665C80.5345 275.892 80.4345 276.175 80.4345 276.515C80.4345 276.848 80.5412 277.102 80.7545 277.275C80.9745 277.448 81.2578 277.588 81.6045 277.695C81.9578 277.795 82.3412 277.912 82.7545 278.045C83.3612 278.238 83.9278 278.462 84.4545 278.715C84.9812 278.968 85.4045 279.285 85.7245 279.665C86.0512 280.045 86.2112 280.515 86.2045 281.075C86.2045 281.688 86.0212 282.225 85.6545 282.685C85.2878 283.138 84.8112 283.485 84.2245 283.725C83.6445 283.965 83.0212 284.072 82.3545 284.045ZM87.7811 273.855H89.4611V283.855H87.7811V273.855ZM88.6411 272.225C88.3744 272.225 88.1511 272.138 87.9711 271.965C87.7911 271.792 87.7011 271.575 87.7011 271.315C87.7011 271.055 87.7911 270.838 87.9711 270.665C88.1511 270.492 88.3711 270.405 88.6311 270.405C88.8911 270.405 89.1111 270.492 89.2911 270.665C89.4711 270.838 89.5611 271.055 89.5611 271.315C89.5611 271.575 89.4711 271.792 89.2911 271.965C89.1177 272.138 88.9011 272.225 88.6411 272.225ZM100.644 277.635V283.855H98.9645V278.005C98.9645 277.498 98.8412 277.038 98.5945 276.625C98.3478 276.212 98.0178 275.885 97.6045 275.645C97.1912 275.398 96.7312 275.275 96.2245 275.275C95.7245 275.275 95.2645 275.398 94.8445 275.645C94.4312 275.885 94.1012 276.212 93.8545 276.625C93.6078 277.038 93.4845 277.498 93.4845 278.005V283.855H91.8045V273.855H93.4845V275.105C93.8378 274.638 94.2845 274.268 94.8245 273.995C95.3645 273.715 95.9512 273.575 96.5845 273.575C97.3312 273.575 98.0112 273.758 98.6245 274.125C99.2445 274.485 99.7345 274.972 100.094 275.585C100.461 276.198 100.644 276.882 100.644 277.635ZM106.849 284.115C105.929 284.115 105.089 283.878 104.329 283.405C103.576 282.932 102.972 282.298 102.519 281.505C102.072 280.705 101.849 279.822 101.849 278.855C101.849 278.122 101.979 277.438 102.239 276.805C102.499 276.165 102.856 275.605 103.309 275.125C103.769 274.638 104.302 274.258 104.909 273.985C105.516 273.712 106.162 273.575 106.849 273.575C107.602 273.575 108.292 273.728 108.919 274.035C109.552 274.335 110.092 274.755 110.539 275.295C110.992 275.835 111.329 276.462 111.549 277.175C111.776 277.888 111.859 278.652 111.799 279.465H103.639C103.719 280.032 103.906 280.538 104.199 280.985C104.492 281.425 104.866 281.775 105.319 282.035C105.779 282.295 106.289 282.428 106.849 282.435C107.449 282.435 107.992 282.282 108.479 281.975C108.966 281.662 109.359 281.235 109.659 280.695L111.369 281.095C110.969 281.982 110.366 282.708 109.559 283.275C108.752 283.835 107.849 284.115 106.849 284.115ZM103.589 278.145H110.109C110.056 277.585 109.876 277.075 109.569 276.615C109.262 276.148 108.872 275.775 108.399 275.495C107.926 275.215 107.409 275.075 106.849 275.075C106.289 275.075 105.776 275.212 105.309 275.485C104.842 275.758 104.456 276.128 104.149 276.595C103.849 277.055 103.662 277.572 103.589 278.145ZM116.573 284.045C116.033 284.025 115.507 283.925 114.993 283.745C114.487 283.558 114.04 283.308 113.653 282.995C113.273 282.675 112.997 282.308 112.823 281.895L114.263 281.275C114.363 281.502 114.543 281.715 114.803 281.915C115.063 282.115 115.363 282.275 115.703 282.395C116.043 282.515 116.387 282.575 116.733 282.575C117.1 282.575 117.443 282.518 117.763 282.405C118.083 282.292 118.343 282.125 118.543 281.905C118.75 281.678 118.853 281.408 118.853 281.095C118.853 280.762 118.74 280.502 118.513 280.315C118.293 280.122 118.013 279.972 117.673 279.865C117.34 279.752 117 279.645 116.653 279.545C115.967 279.372 115.353 279.165 114.813 278.925C114.273 278.678 113.847 278.368 113.533 277.995C113.227 277.615 113.073 277.132 113.073 276.545C113.073 275.925 113.243 275.388 113.583 274.935C113.93 274.482 114.383 274.132 114.943 273.885C115.503 273.638 116.103 273.515 116.743 273.515C117.55 273.515 118.287 273.688 118.953 274.035C119.62 274.382 120.117 274.852 120.443 275.445L119.093 276.235C118.98 275.995 118.807 275.785 118.573 275.605C118.34 275.418 118.073 275.272 117.773 275.165C117.473 275.058 117.167 275.002 116.853 274.995C116.467 274.982 116.103 275.032 115.763 275.145C115.43 275.258 115.16 275.432 114.953 275.665C114.753 275.892 114.653 276.175 114.653 276.515C114.653 276.848 114.76 277.102 114.973 277.275C115.193 277.448 115.477 277.588 115.823 277.695C116.177 277.795 116.56 277.912 116.973 278.045C117.58 278.238 118.147 278.462 118.673 278.715C119.2 278.968 119.623 279.285 119.943 279.665C120.27 280.045 120.43 280.515 120.423 281.075C120.423 281.688 120.24 282.225 119.873 282.685C119.507 283.138 119.03 283.485 118.443 283.725C117.863 283.965 117.24 284.072 116.573 284.045ZM125.187 284.045C124.647 284.025 124.12 283.925 123.607 283.745C123.1 283.558 122.653 283.308 122.267 282.995C121.887 282.675 121.61 282.308 121.437 281.895L122.877 281.275C122.977 281.502 123.157 281.715 123.417 281.915C123.677 282.115 123.977 282.275 124.317 282.395C124.657 282.515 125 282.575 125.347 282.575C125.713 282.575 126.057 282.518 126.377 282.405C126.697 282.292 126.957 282.125 127.157 281.905C127.363 281.678 127.467 281.408 127.467 281.095C127.467 280.762 127.353 280.502 127.127 280.315C126.907 280.122 126.627 279.972 126.287 279.865C125.953 279.752 125.613 279.645 125.267 279.545C124.58 279.372 123.967 279.165 123.427 278.925C122.887 278.678 122.46 278.368 122.147 277.995C121.84 277.615 121.687 277.132 121.687 276.545C121.687 275.925 121.857 275.388 122.197 274.935C122.543 274.482 122.997 274.132 123.557 273.885C124.117 273.638 124.717 273.515 125.357 273.515C126.163 273.515 126.9 273.688 127.567 274.035C128.233 274.382 128.73 274.852 129.057 275.445L127.707 276.235C127.593 275.995 127.42 275.785 127.187 275.605C126.953 275.418 126.687 275.272 126.387 275.165C126.087 275.058 125.78 275.002 125.467 274.995C125.08 274.982 124.717 275.032 124.377 275.145C124.043 275.258 123.773 275.432 123.567 275.665C123.367 275.892 123.267 276.175 123.267 276.515C123.267 276.848 123.373 277.102 123.587 277.275C123.807 277.448 124.09 277.588 124.437 277.695C124.79 277.795 125.173 277.912 125.587 278.045C126.193 278.238 126.76 278.462 127.287 278.715C127.813 278.968 128.237 279.285 128.557 279.665C128.883 280.045 129.043 280.515 129.037 281.075C129.037 281.688 128.853 282.225 128.487 282.685C128.12 283.138 127.643 283.485 127.057 283.725C126.477 283.965 125.853 284.072 125.187 284.045ZM135.052 284.115C134.132 284.115 133.292 283.878 132.532 283.405C131.779 282.932 131.175 282.298 130.722 281.505C130.275 280.705 130.052 279.822 130.052 278.855C130.052 278.122 130.182 277.438 130.442 276.805C130.702 276.165 131.059 275.605 131.512 275.125C131.972 274.638 132.505 274.258 133.112 273.985C133.719 273.712 134.365 273.575 135.052 273.575C135.805 273.575 136.495 273.728 137.122 274.035C137.755 274.335 138.295 274.755 138.742 275.295C139.195 275.835 139.532 276.462 139.752 277.175C139.979 277.888 140.062 278.652 140.002 279.465H131.842C131.922 280.032 132.109 280.538 132.402 280.985C132.695 281.425 133.069 281.775 133.522 282.035C133.982 282.295 134.492 282.428 135.052 282.435C135.652 282.435 136.195 282.282 136.682 281.975C137.169 281.662 137.562 281.235 137.862 280.695L139.572 281.095C139.172 281.982 138.569 282.708 137.762 283.275C136.955 283.835 136.052 284.115 135.052 284.115ZM131.792 278.145H138.312C138.259 277.585 138.079 277.075 137.772 276.615C137.465 276.148 137.075 275.775 136.602 275.495C136.129 275.215 135.612 275.075 135.052 275.075C134.492 275.075 133.979 275.212 133.512 275.485C133.045 275.758 132.659 276.128 132.352 276.595C132.052 277.055 131.865 277.572 131.792 278.145ZM144.776 284.045C144.236 284.025 143.71 283.925 143.196 283.745C142.69 283.558 142.243 283.308 141.856 282.995C141.476 282.675 141.2 282.308 141.026 281.895L142.466 281.275C142.566 281.502 142.746 281.715 143.006 281.915C143.266 282.115 143.566 282.275 143.906 282.395C144.246 282.515 144.59 282.575 144.936 282.575C145.303 282.575 145.646 282.518 145.966 282.405C146.286 282.292 146.546 282.125 146.746 281.905C146.953 281.678 147.056 281.408 147.056 281.095C147.056 280.762 146.943 280.502 146.716 280.315C146.496 280.122 146.216 279.972 145.876 279.865C145.543 279.752 145.203 279.645 144.856 279.545C144.17 279.372 143.556 279.165 143.016 278.925C142.476 278.678 142.05 278.368 141.736 277.995C141.43 277.615 141.276 277.132 141.276 276.545C141.276 275.925 141.446 275.388 141.786 274.935C142.133 274.482 142.586 274.132 143.146 273.885C143.706 273.638 144.306 273.515 144.946 273.515C145.753 273.515 146.49 273.688 147.156 274.035C147.823 274.382 148.32 274.852 148.646 275.445L147.296 276.235C147.183 275.995 147.01 275.785 146.776 275.605C146.543 275.418 146.276 275.272 145.976 275.165C145.676 275.058 145.37 275.002 145.056 274.995C144.67 274.982 144.306 275.032 143.966 275.145C143.633 275.258 143.363 275.432 143.156 275.665C142.956 275.892 142.856 276.175 142.856 276.515C142.856 276.848 142.963 277.102 143.176 277.275C143.396 277.448 143.68 277.588 144.026 277.695C144.38 277.795 144.763 277.912 145.176 278.045C145.783 278.238 146.35 278.462 146.876 278.715C147.403 278.968 147.826 279.285 148.146 279.665C148.473 280.045 148.633 280.515 148.626 281.075C148.626 281.688 148.443 282.225 148.076 282.685C147.71 283.138 147.233 283.485 146.646 283.725C146.066 283.965 145.443 284.072 144.776 284.045ZM149.881 284.975L150.501 281.595H152.181L151.001 284.975H149.881ZM167.423 273.855H169.103V283.855H167.423L167.353 282.165C167.039 282.745 166.606 283.215 166.053 283.575C165.506 283.935 164.853 284.115 164.093 284.115C163.359 284.115 162.673 283.978 162.033 283.705C161.393 283.425 160.826 283.042 160.333 282.555C159.846 282.062 159.466 281.495 159.193 280.855C158.919 280.215 158.783 279.525 158.783 278.785C158.783 278.072 158.916 277.398 159.183 276.765C159.449 276.132 159.819 275.578 160.293 275.105C160.773 274.625 161.326 274.252 161.953 273.985C162.579 273.712 163.253 273.575 163.973 273.575C164.759 273.575 165.449 273.762 166.043 274.135C166.636 274.502 167.116 274.978 167.483 275.565L167.423 273.855ZM164.063 282.485C164.723 282.485 165.293 282.325 165.773 282.005C166.259 281.678 166.633 281.238 166.893 280.685C167.159 280.132 167.293 279.522 167.293 278.855C167.293 278.175 167.159 277.562 166.893 277.015C166.626 276.462 166.249 276.025 165.763 275.705C165.283 275.378 164.716 275.215 164.063 275.215C163.403 275.215 162.803 275.378 162.263 275.705C161.723 276.032 161.293 276.472 160.973 277.025C160.659 277.572 160.503 278.182 160.503 278.855C160.503 279.528 160.666 280.142 160.993 280.695C161.319 281.242 161.753 281.678 162.293 282.005C162.833 282.325 163.423 282.485 164.063 282.485ZM179.941 277.635V283.855H178.261V278.005C178.261 277.498 178.138 277.038 177.891 276.625C177.645 276.212 177.315 275.885 176.901 275.645C176.488 275.398 176.028 275.275 175.521 275.275C175.021 275.275 174.561 275.398 174.141 275.645C173.728 275.885 173.398 276.212 173.151 276.625C172.905 277.038 172.781 277.498 172.781 278.005V283.855H171.101V273.855H172.781V275.105C173.135 274.638 173.581 274.268 174.121 273.995C174.661 273.715 175.248 273.575 175.881 273.575C176.628 273.575 177.308 273.758 177.921 274.125C178.541 274.485 179.031 274.972 179.391 275.585C179.758 276.198 179.941 276.882 179.941 277.635ZM189.796 268.855H191.476V283.855H189.796V282.155C189.456 282.742 188.999 283.215 188.426 283.575C187.853 283.935 187.179 284.115 186.406 284.115C185.679 284.115 184.999 283.978 184.366 283.705C183.733 283.432 183.173 283.055 182.686 282.575C182.206 282.088 181.829 281.528 181.556 280.895C181.283 280.262 181.146 279.582 181.146 278.855C181.146 278.128 181.283 277.448 181.556 276.815C181.829 276.175 182.206 275.615 182.686 275.135C183.173 274.648 183.733 274.268 184.366 273.995C184.999 273.722 185.679 273.585 186.406 273.585C187.179 273.585 187.853 273.765 188.426 274.125C188.999 274.485 189.456 274.958 189.796 275.545V268.855ZM186.426 282.485C187.086 282.485 187.656 282.325 188.136 282.005C188.623 281.678 188.996 281.238 189.256 280.685C189.523 280.132 189.656 279.522 189.656 278.855C189.656 278.175 189.523 277.562 189.256 277.015C188.989 276.462 188.613 276.025 188.126 275.705C187.646 275.378 187.079 275.215 186.426 275.215C185.766 275.215 185.166 275.378 184.626 275.705C184.093 276.032 183.666 276.472 183.346 277.025C183.026 277.572 182.866 278.182 182.866 278.855C182.866 279.528 183.029 280.142 183.356 280.695C183.683 281.242 184.116 281.678 184.656 282.005C185.196 282.325 185.786 282.485 186.426 282.485ZM205.569 281.215L207.069 282.025C206.616 282.658 206.039 283.165 205.339 283.545C204.646 283.925 203.893 284.115 203.079 284.115C202.159 284.115 201.319 283.878 200.559 283.405C199.806 282.932 199.203 282.298 198.749 281.505C198.303 280.705 198.079 279.822 198.079 278.855C198.079 278.122 198.209 277.438 198.469 276.805C198.729 276.165 199.086 275.605 199.539 275.125C199.999 274.638 200.533 274.258 201.139 273.985C201.746 273.712 202.393 273.575 203.079 273.575C203.893 273.575 204.646 273.765 205.339 274.145C206.039 274.525 206.616 275.035 207.069 275.675L205.569 276.485C205.249 276.092 204.869 275.788 204.429 275.575C203.989 275.362 203.539 275.255 203.079 275.255C202.459 275.255 201.896 275.422 201.389 275.755C200.889 276.082 200.493 276.518 200.199 277.065C199.906 277.612 199.759 278.208 199.759 278.855C199.759 279.502 199.906 280.098 200.199 280.645C200.499 281.185 200.899 281.618 201.399 281.945C201.906 282.272 202.466 282.435 203.079 282.435C203.573 282.435 204.036 282.322 204.469 282.095C204.903 281.868 205.269 281.575 205.569 281.215ZM213.099 284.115C212.179 284.115 211.339 283.878 210.579 283.405C209.826 282.932 209.222 282.298 208.769 281.505C208.322 280.705 208.099 279.822 208.099 278.855C208.099 278.122 208.229 277.438 208.489 276.805C208.749 276.165 209.106 275.605 209.559 275.125C210.019 274.638 210.552 274.258 211.159 273.985C211.766 273.712 212.412 273.575 213.099 273.575C214.019 273.575 214.856 273.812 215.609 274.285C216.369 274.758 216.972 275.395 217.419 276.195C217.872 276.995 218.099 277.882 218.099 278.855C218.099 279.582 217.969 280.262 217.709 280.895C217.449 281.528 217.089 282.088 216.629 282.575C216.176 283.055 215.646 283.432 215.039 283.705C214.439 283.978 213.792 284.115 213.099 284.115ZM213.099 282.435C213.726 282.435 214.289 282.272 214.789 281.945C215.296 281.612 215.692 281.175 215.979 280.635C216.272 280.088 216.419 279.495 216.419 278.855C216.419 278.202 216.269 277.602 215.969 277.055C215.676 276.508 215.279 276.072 214.779 275.745C214.279 275.418 213.719 275.255 213.099 275.255C212.472 275.255 211.909 275.422 211.409 275.755C210.909 276.082 210.512 276.518 210.219 277.065C209.926 277.612 209.779 278.208 209.779 278.855C209.779 279.522 209.929 280.128 210.229 280.675C210.529 281.215 210.932 281.645 211.439 281.965C211.946 282.278 212.499 282.435 213.099 282.435ZM227.735 273.855H229.415V283.855H227.735L227.665 282.165C227.352 282.745 226.918 283.215 226.365 283.575C225.818 283.935 225.165 284.115 224.405 284.115C223.672 284.115 222.985 283.978 222.345 283.705C221.705 283.425 221.138 283.042 220.645 282.555C220.158 282.062 219.778 281.495 219.505 280.855C219.232 280.215 219.095 279.525 219.095 278.785C219.095 278.072 219.228 277.398 219.495 276.765C219.762 276.132 220.132 275.578 220.605 275.105C221.085 274.625 221.638 274.252 222.265 273.985C222.892 273.712 223.565 273.575 224.285 273.575C225.072 273.575 225.762 273.762 226.355 274.135C226.948 274.502 227.428 274.978 227.795 275.565L227.735 273.855ZM224.375 282.485C225.035 282.485 225.605 282.325 226.085 282.005C226.572 281.678 226.945 281.238 227.205 280.685C227.472 280.132 227.605 279.522 227.605 278.855C227.605 278.175 227.472 277.562 227.205 277.015C226.938 276.462 226.562 276.025 226.075 275.705C225.595 275.378 225.028 275.215 224.375 275.215C223.715 275.215 223.115 275.378 222.575 275.705C222.035 276.032 221.605 276.472 221.285 277.025C220.972 277.572 220.815 278.182 220.815 278.855C220.815 279.528 220.978 280.142 221.305 280.695C221.632 281.242 222.065 281.678 222.605 282.005C223.145 282.325 223.735 282.485 224.375 282.485ZM238.109 281.215L239.609 282.025C239.155 282.658 238.579 283.165 237.879 283.545C237.185 283.925 236.432 284.115 235.619 284.115C234.699 284.115 233.859 283.878 233.099 283.405C232.345 282.932 231.742 282.298 231.289 281.505C230.842 280.705 230.619 279.822 230.619 278.855C230.619 278.122 230.749 277.438 231.009 276.805C231.269 276.165 231.625 275.605 232.079 275.125C232.539 274.638 233.072 274.258 233.679 273.985C234.285 273.712 234.932 273.575 235.619 273.575C236.432 273.575 237.185 273.765 237.879 274.145C238.579 274.525 239.155 275.035 239.609 275.675L238.109 276.485C237.789 276.092 237.409 275.788 236.969 275.575C236.529 275.362 236.079 275.255 235.619 275.255C234.999 275.255 234.435 275.422 233.929 275.755C233.429 276.082 233.032 276.518 232.739 277.065C232.445 277.612 232.299 278.208 232.299 278.855C232.299 279.502 232.445 280.098 232.739 280.645C233.039 281.185 233.439 281.618 233.939 281.945C234.445 282.272 235.005 282.435 235.619 282.435C236.112 282.435 236.575 282.322 237.009 282.095C237.442 281.868 237.809 281.575 238.109 281.215ZM250.078 277.635V283.855H248.398V278.005C248.398 277.498 248.275 277.038 248.028 276.625C247.781 276.212 247.451 275.885 247.038 275.645C246.625 275.398 246.165 275.275 245.658 275.275C245.158 275.275 244.698 275.398 244.278 275.645C243.865 275.885 243.535 276.212 243.288 276.625C243.041 277.038 242.918 277.498 242.918 278.005V283.855H241.238V268.855H242.918V275.105C243.271 274.638 243.718 274.268 244.258 273.995C244.798 273.715 245.385 273.575 246.018 273.575C246.765 273.575 247.445 273.758 248.058 274.125C248.678 274.485 249.168 274.972 249.528 275.585C249.895 276.198 250.078 276.882 250.078 277.635ZM252.078 273.855H253.758V283.855H252.078V273.855ZM252.938 272.225C252.671 272.225 252.448 272.138 252.268 271.965C252.088 271.792 251.998 271.575 251.998 271.315C251.998 271.055 252.088 270.838 252.268 270.665C252.448 270.492 252.668 270.405 252.928 270.405C253.188 270.405 253.408 270.492 253.588 270.665C253.768 270.838 253.858 271.055 253.858 271.315C253.858 271.575 253.768 271.792 253.588 271.965C253.415 272.138 253.198 272.225 252.938 272.225ZM264.941 277.635V283.855H263.261V278.005C263.261 277.498 263.138 277.038 262.891 276.625C262.645 276.212 262.315 275.885 261.901 275.645C261.488 275.398 261.028 275.275 260.521 275.275C260.021 275.275 259.561 275.398 259.141 275.645C258.728 275.885 258.398 276.212 258.151 276.625C257.905 277.038 257.781 277.498 257.781 278.005V283.855H256.101V273.855H257.781V275.105C258.135 274.638 258.581 274.268 259.121 273.995C259.661 273.715 260.248 273.575 260.881 273.575C261.628 273.575 262.308 273.758 262.921 274.125C263.541 274.485 264.031 274.972 264.391 275.585C264.758 276.198 264.941 276.882 264.941 277.635ZM274.556 273.855H276.236V284.175C276.236 284.835 276.093 285.448 275.806 286.015C275.526 286.588 275.146 287.085 274.666 287.505C274.186 287.932 273.639 288.262 273.026 288.495C272.413 288.735 271.773 288.855 271.106 288.855C270.413 288.855 269.743 288.698 269.096 288.385C268.449 288.078 267.883 287.665 267.396 287.145C266.916 286.632 266.569 286.055 266.356 285.415L267.896 284.715C268.023 285.175 268.249 285.588 268.576 285.955C268.909 286.328 269.296 286.622 269.736 286.835C270.183 287.055 270.639 287.165 271.106 287.165C271.546 287.165 271.969 287.088 272.376 286.935C272.789 286.782 273.159 286.568 273.486 286.295C273.819 286.028 274.079 285.712 274.266 285.345C274.459 284.985 274.556 284.595 274.556 284.175V282.185C274.216 282.758 273.766 283.225 273.206 283.585C272.653 283.938 272.006 284.115 271.266 284.115C270.559 284.115 269.896 283.978 269.276 283.705C268.656 283.432 268.113 283.055 267.646 282.575C267.179 282.088 266.813 281.528 266.546 280.895C266.279 280.262 266.146 279.582 266.146 278.855C266.146 278.128 266.279 277.448 266.546 276.815C266.813 276.175 267.179 275.615 267.646 275.135C268.113 274.648 268.656 274.268 269.276 273.995C269.896 273.722 270.559 273.585 271.266 273.585C272.006 273.585 272.653 273.762 273.206 274.115C273.766 274.468 274.216 274.935 274.556 275.515V273.855ZM271.276 282.485C271.923 282.485 272.483 282.318 272.956 281.985C273.436 281.652 273.806 281.208 274.066 280.655C274.326 280.102 274.456 279.502 274.456 278.855C274.456 278.188 274.323 277.582 274.056 277.035C273.796 276.482 273.426 276.042 272.946 275.715C272.473 275.382 271.916 275.215 271.276 275.215C270.649 275.215 270.076 275.378 269.556 275.705C269.036 276.032 268.623 276.472 268.316 277.025C268.016 277.572 267.866 278.182 267.866 278.855C267.866 279.528 268.019 280.142 268.326 280.695C268.639 281.242 269.053 281.678 269.566 282.005C270.086 282.325 270.656 282.485 271.276 282.485ZM56.9998 297.855H58.6798V307.855H56.9998V297.855ZM57.8598 296.225C57.5931 296.225 57.3698 296.138 57.1898 295.965C57.0098 295.792 56.9198 295.575 56.9198 295.315C56.9198 295.055 57.0098 294.838 57.1898 294.665C57.3698 294.492 57.5898 294.405 57.8498 294.405C58.1098 294.405 58.3298 294.492 58.5098 294.665C58.6898 294.838 58.7798 295.055 58.7798 295.315C58.7798 295.575 58.6898 295.792 58.5098 295.965C58.3365 296.138 58.1198 296.225 57.8598 296.225ZM69.8632 301.635V307.855H68.1832V302.005C68.1832 301.498 68.0599 301.038 67.8132 300.625C67.5666 300.212 67.2366 299.885 66.8232 299.645C66.4099 299.398 65.9499 299.275 65.4432 299.275C64.9432 299.275 64.4832 299.398 64.0632 299.645C63.6499 299.885 63.3199 300.212 63.0732 300.625C62.8266 301.038 62.7032 301.498 62.7032 302.005V307.855H61.0232V297.855H62.7032V299.105C63.0566 298.638 63.5032 298.268 64.0432 297.995C64.5832 297.715 65.1699 297.575 65.8032 297.575C66.5499 297.575 67.2299 297.758 67.8432 298.125C68.4632 298.485 68.9532 298.972 69.3132 299.585C69.6799 300.198 69.8632 300.882 69.8632 301.635ZM74.9131 308.045C74.3731 308.025 73.8464 307.925 73.3331 307.745C72.8264 307.558 72.3798 307.308 71.9931 306.995C71.6131 306.675 71.3364 306.308 71.1631 305.895L72.6031 305.275C72.7031 305.502 72.8831 305.715 73.1431 305.915C73.4031 306.115 73.7031 306.275 74.0431 306.395C74.3831 306.515 74.7264 306.575 75.0731 306.575C75.4398 306.575 75.7831 306.518 76.1031 306.405C76.4231 306.292 76.6831 306.125 76.8831 305.905C77.0898 305.678 77.1931 305.408 77.1931 305.095C77.1931 304.762 77.0798 304.502 76.8531 304.315C76.6331 304.122 76.3531 303.972 76.0131 303.865C75.6798 303.752 75.3398 303.645 74.9931 303.545C74.3064 303.372 73.6931 303.165 73.1531 302.925C72.6131 302.678 72.1864 302.368 71.8731 301.995C71.5664 301.615 71.4131 301.132 71.4131 300.545C71.4131 299.925 71.5831 299.388 71.9231 298.935C72.2698 298.482 72.7231 298.132 73.2831 297.885C73.8431 297.638 74.4431 297.515 75.0831 297.515C75.8898 297.515 76.6264 297.688 77.2931 298.035C77.9598 298.382 78.4564 298.852 78.7831 299.445L77.4331 300.235C77.3198 299.995 77.1464 299.785 76.9131 299.605C76.6798 299.418 76.4131 299.272 76.1131 299.165C75.8131 299.058 75.5064 299.002 75.1931 298.995C74.8064 298.982 74.4431 299.032 74.1031 299.145C73.7698 299.258 73.4998 299.432 73.2931 299.665C73.0931 299.892 72.9931 300.175 72.9931 300.515C72.9931 300.848 73.0998 301.102 73.3131 301.275C73.5331 301.448 73.8164 301.588 74.1631 301.695C74.5164 301.795 74.8998 301.912 75.3131 302.045C75.9198 302.238 76.4864 302.462 77.0131 302.715C77.5398 302.968 77.9631 303.285 78.2831 303.665C78.6098 304.045 78.7698 304.515 78.7631 305.075C78.7631 305.688 78.5798 306.225 78.2131 306.685C77.8464 307.138 77.3698 307.485 76.7831 307.725C76.2031 307.965 75.5798 308.072 74.9131 308.045ZM85.6564 299.535H83.3864L83.3764 307.855H81.6964L81.7064 299.535H79.9864V297.855H81.7064L81.6964 294.715H83.3764L83.3864 297.855H85.6564V299.535ZM87.3514 297.855H89.0314V307.855H87.3514V297.855ZM88.2114 296.225C87.9447 296.225 87.7214 296.138 87.5414 295.965C87.3614 295.792 87.2714 295.575 87.2714 295.315C87.2714 295.055 87.3614 294.838 87.5414 294.665C87.7214 294.492 87.9414 294.405 88.2014 294.405C88.4614 294.405 88.6814 294.492 88.8614 294.665C89.0414 294.838 89.1314 295.055 89.1314 295.315C89.1314 295.575 89.0414 295.792 88.8614 295.965C88.688 296.138 88.4714 296.225 88.2114 296.225ZM96.6134 299.535H94.3434L94.3334 307.855H92.6534L92.6634 299.535H90.9434V297.855H92.6634L92.6534 294.715H94.3334L94.3434 297.855H96.6134V299.535ZM98.0061 304.055V297.855H99.6861V303.685C99.6861 304.192 99.8094 304.652 100.056 305.065C100.303 305.478 100.633 305.808 101.046 306.055C101.466 306.295 101.926 306.415 102.426 306.415C102.933 306.415 103.389 306.295 103.796 306.055C104.209 305.808 104.539 305.478 104.786 305.065C105.033 304.652 105.156 304.192 105.156 303.685V297.855H106.836L106.846 307.855H105.166L105.156 306.585C104.803 307.052 104.356 307.425 103.816 307.705C103.276 307.978 102.693 308.115 102.066 308.115C101.319 308.115 100.636 307.935 100.016 307.575C99.4027 307.208 98.9127 306.718 98.5461 306.105C98.1861 305.492 98.0061 304.808 98.0061 304.055ZM114.035 299.535H111.765L111.755 307.855H110.075L110.085 299.535H108.365V297.855H110.085L110.075 294.715H111.755L111.765 297.855H114.035V299.535ZM119.974 308.115C119.054 308.115 118.214 307.878 117.454 307.405C116.701 306.932 116.097 306.298 115.644 305.505C115.197 304.705 114.974 303.822 114.974 302.855C114.974 302.122 115.104 301.438 115.364 300.805C115.624 300.165 115.981 299.605 116.434 299.125C116.894 298.638 117.427 298.258 118.034 297.985C118.641 297.712 119.287 297.575 119.974 297.575C120.727 297.575 121.417 297.728 122.044 298.035C122.677 298.335 123.217 298.755 123.664 299.295C124.117 299.835 124.454 300.462 124.674 301.175C124.901 301.888 124.984 302.652 124.924 303.465H116.764C116.844 304.032 117.031 304.538 117.324 304.985C117.617 305.425 117.991 305.775 118.444 306.035C118.904 306.295 119.414 306.428 119.974 306.435C120.574 306.435 121.117 306.282 121.604 305.975C122.091 305.662 122.484 305.235 122.784 304.695L124.494 305.095C124.094 305.982 123.491 306.708 122.684 307.275C121.877 307.835 120.974 308.115 119.974 308.115ZM116.714 302.145H123.234C123.181 301.585 123.001 301.075 122.694 300.615C122.387 300.148 121.997 299.775 121.524 299.495C121.051 299.215 120.534 299.075 119.974 299.075C119.414 299.075 118.901 299.212 118.434 299.485C117.967 299.758 117.581 300.128 117.274 300.595C116.974 301.055 116.787 301.572 116.714 302.145ZM129.698 308.045C129.158 308.025 128.632 307.925 128.118 307.745C127.612 307.558 127.165 307.308 126.778 306.995C126.398 306.675 126.122 306.308 125.948 305.895L127.388 305.275C127.488 305.502 127.668 305.715 127.928 305.915C128.188 306.115 128.488 306.275 128.828 306.395C129.168 306.515 129.512 306.575 129.858 306.575C130.225 306.575 130.568 306.518 130.888 306.405C131.208 306.292 131.468 306.125 131.668 305.905C131.875 305.678 131.978 305.408 131.978 305.095C131.978 304.762 131.865 304.502 131.638 304.315C131.418 304.122 131.138 303.972 130.798 303.865C130.465 303.752 130.125 303.645 129.778 303.545C129.092 303.372 128.478 303.165 127.938 302.925C127.398 302.678 126.972 302.368 126.658 301.995C126.352 301.615 126.198 301.132 126.198 300.545C126.198 299.925 126.368 299.388 126.708 298.935C127.055 298.482 127.508 298.132 128.068 297.885C128.628 297.638 129.228 297.515 129.868 297.515C130.675 297.515 131.412 297.688 132.078 298.035C132.745 298.382 133.242 298.852 133.568 299.445L132.218 300.235C132.105 299.995 131.932 299.785 131.698 299.605C131.465 299.418 131.198 299.272 130.898 299.165C130.598 299.058 130.292 299.002 129.978 298.995C129.592 298.982 129.228 299.032 128.888 299.145C128.555 299.258 128.285 299.432 128.078 299.665C127.878 299.892 127.778 300.175 127.778 300.515C127.778 300.848 127.885 301.102 128.098 301.275C128.318 301.448 128.602 301.588 128.948 301.695C129.302 301.795 129.685 301.912 130.098 302.045C130.705 302.238 131.272 302.462 131.798 302.715C132.325 302.968 132.748 303.285 133.068 303.665C133.395 304.045 133.555 304.515 133.548 305.075C133.548 305.688 133.365 306.225 132.998 306.685C132.632 307.138 132.155 307.485 131.568 307.725C130.988 307.965 130.365 308.072 129.698 308.045ZM148.906 301.635V307.855H147.226V302.005C147.226 301.498 147.103 301.038 146.856 300.625C146.61 300.212 146.28 299.885 145.866 299.645C145.453 299.398 144.993 299.275 144.486 299.275C143.986 299.275 143.526 299.398 143.106 299.645C142.693 299.885 142.363 300.212 142.116 300.625C141.87 301.038 141.746 301.498 141.746 302.005V307.855H140.066V297.855H141.746V299.105C142.1 298.638 142.546 298.268 143.086 297.995C143.626 297.715 144.213 297.575 144.846 297.575C145.593 297.575 146.273 297.758 146.886 298.125C147.506 298.485 147.996 298.972 148.356 299.585C148.723 300.198 148.906 300.882 148.906 301.635ZM155.111 308.115C154.191 308.115 153.351 307.878 152.591 307.405C151.837 306.932 151.234 306.298 150.781 305.505C150.334 304.705 150.111 303.822 150.111 302.855C150.111 302.122 150.241 301.438 150.501 300.805C150.761 300.165 151.117 299.605 151.571 299.125C152.031 298.638 152.564 298.258 153.171 297.985C153.777 297.712 154.424 297.575 155.111 297.575C155.864 297.575 156.554 297.728 157.181 298.035C157.814 298.335 158.354 298.755 158.801 299.295C159.254 299.835 159.591 300.462 159.811 301.175C160.037 301.888 160.121 302.652 160.061 303.465H151.901C151.981 304.032 152.167 304.538 152.461 304.985C152.754 305.425 153.127 305.775 153.581 306.035C154.041 306.295 154.551 306.428 155.111 306.435C155.711 306.435 156.254 306.282 156.741 305.975C157.227 305.662 157.621 305.235 157.921 304.695L159.631 305.095C159.231 305.982 158.627 306.708 157.821 307.275C157.014 307.835 156.111 308.115 155.111 308.115ZM151.851 302.145H158.371C158.317 301.585 158.137 301.075 157.831 300.615C157.524 300.148 157.134 299.775 156.661 299.495C156.187 299.215 155.671 299.075 155.111 299.075C154.551 299.075 154.037 299.212 153.571 299.485C153.104 299.758 152.717 300.128 152.411 300.595C152.111 301.055 151.924 301.572 151.851 302.145ZM169.727 297.855H171.407V307.855H169.727L169.657 306.165C169.344 306.745 168.911 307.215 168.357 307.575C167.811 307.935 167.157 308.115 166.397 308.115C165.664 308.115 164.977 307.978 164.337 307.705C163.697 307.425 163.131 307.042 162.637 306.555C162.151 306.062 161.771 305.495 161.497 304.855C161.224 304.215 161.087 303.525 161.087 302.785C161.087 302.072 161.221 301.398 161.487 300.765C161.754 300.132 162.124 299.578 162.597 299.105C163.077 298.625 163.631 298.252 164.257 297.985C164.884 297.712 165.557 297.575 166.277 297.575C167.064 297.575 167.754 297.762 168.347 298.135C168.941 298.502 169.421 298.978 169.787 299.565L169.727 297.855ZM166.367 306.485C167.027 306.485 167.597 306.325 168.077 306.005C168.564 305.678 168.937 305.238 169.197 304.685C169.464 304.132 169.597 303.522 169.597 302.855C169.597 302.175 169.464 301.562 169.197 301.015C168.931 300.462 168.554 300.025 168.067 299.705C167.587 299.378 167.021 299.215 166.367 299.215C165.707 299.215 165.107 299.378 164.567 299.705C164.027 300.032 163.597 300.472 163.277 301.025C162.964 301.572 162.807 302.182 162.807 302.855C162.807 303.528 162.971 304.142 163.297 304.695C163.624 305.242 164.057 305.678 164.597 306.005C165.137 306.325 165.727 306.485 166.367 306.485ZM173.406 307.855V297.855H175.086V299.105C175.439 298.638 175.886 298.268 176.426 297.995C176.966 297.715 177.553 297.575 178.186 297.575C178.573 297.575 178.946 297.625 179.306 297.725L178.626 299.405C178.353 299.318 178.086 299.275 177.826 299.275C177.326 299.275 176.866 299.398 176.446 299.645C176.033 299.885 175.703 300.212 175.456 300.625C175.209 301.038 175.086 301.498 175.086 302.005V307.855H173.406ZM192.365 297.855H194.145L188.675 312.855H186.895L188.705 307.855L185.115 297.855H186.955L189.545 305.545L192.365 297.855ZM199.837 308.115C198.917 308.115 198.077 307.878 197.317 307.405C196.564 306.932 195.961 306.298 195.507 305.505C195.061 304.705 194.837 303.822 194.837 302.855C194.837 302.122 194.967 301.438 195.227 300.805C195.487 300.165 195.844 299.605 196.297 299.125C196.757 298.638 197.291 298.258 197.897 297.985C198.504 297.712 199.151 297.575 199.837 297.575C200.757 297.575 201.594 297.812 202.347 298.285C203.107 298.758 203.711 299.395 204.157 300.195C204.611 300.995 204.837 301.882 204.837 302.855C204.837 303.582 204.707 304.262 204.447 304.895C204.187 305.528 203.827 306.088 203.367 306.575C202.914 307.055 202.384 307.432 201.777 307.705C201.177 307.978 200.531 308.115 199.837 308.115ZM199.837 306.435C200.464 306.435 201.027 306.272 201.527 305.945C202.034 305.612 202.431 305.175 202.717 304.635C203.011 304.088 203.157 303.495 203.157 302.855C203.157 302.202 203.007 301.602 202.707 301.055C202.414 300.508 202.017 300.072 201.517 299.745C201.017 299.418 200.457 299.255 199.837 299.255C199.211 299.255 198.647 299.422 198.147 299.755C197.647 300.082 197.251 300.518 196.957 301.065C196.664 301.612 196.517 302.208 196.517 302.855C196.517 303.522 196.667 304.128 196.967 304.675C197.267 305.215 197.671 305.645 198.177 305.965C198.684 306.278 199.237 306.435 199.837 306.435ZM205.955 304.055V297.855H207.635V303.685C207.635 304.192 207.759 304.652 208.005 305.065C208.252 305.478 208.582 305.808 208.995 306.055C209.415 306.295 209.875 306.415 210.375 306.415C210.882 306.415 211.339 306.295 211.745 306.055C212.159 305.808 212.489 305.478 212.735 305.065C212.982 304.652 213.105 304.192 213.105 303.685V297.855H214.785L214.795 307.855H213.115L213.105 306.585C212.752 307.052 212.305 307.425 211.765 307.705C211.225 307.978 210.642 308.115 210.015 308.115C209.269 308.115 208.585 307.935 207.965 307.575C207.352 307.208 206.862 306.718 206.495 306.105C206.135 305.492 205.955 304.808 205.955 304.055ZM217.314 308.115C217.061 308.115 216.844 308.025 216.664 307.845C216.491 307.665 216.404 307.445 216.404 307.185C216.404 306.938 216.491 306.725 216.664 306.545C216.844 306.365 217.061 306.275 217.314 306.275C217.574 306.275 217.794 306.365 217.974 306.545C218.154 306.725 218.244 306.938 218.244 307.185C218.244 307.445 218.154 307.665 217.974 307.845C217.794 308.025 217.574 308.115 217.314 308.115Z" fill="#090909"/>
<path d="M89.6656 190.855V174.055H99.5896V176.983H92.5936V180.391H98.4376V183.319H92.5936V190.855H89.6656ZM100.634 178.855H103.562V190.855H100.634V178.855ZM102.122 177.307C101.69 177.307 101.326 177.167 101.03 176.887C100.734 176.599 100.586 176.239 100.586 175.807C100.586 175.383 100.734 175.027 101.03 174.739C101.326 174.451 101.686 174.307 102.11 174.307C102.534 174.307 102.89 174.451 103.178 174.739C103.474 175.027 103.622 175.383 103.622 175.807C103.622 176.239 103.478 176.599 103.19 176.887C102.902 177.167 102.546 177.307 102.122 177.307ZM117.345 183.271V190.855H114.417V184.039C114.417 183.567 114.301 183.139 114.069 182.755C113.837 182.363 113.525 182.055 113.133 181.831C112.749 181.599 112.321 181.483 111.849 181.483C111.377 181.483 110.945 181.599 110.553 181.831C110.169 182.055 109.861 182.363 109.629 182.755C109.405 183.139 109.293 183.567 109.293 184.039V190.855H106.365L106.353 178.855H109.281L109.293 179.923C109.701 179.491 110.189 179.151 110.757 178.903C111.325 178.647 111.937 178.519 112.593 178.519C113.465 178.519 114.261 178.735 114.981 179.167C115.701 179.591 116.273 180.163 116.697 180.883C117.129 181.595 117.345 182.391 117.345 183.271ZM128.574 172.855H131.502V190.855H128.574V189.355C128.19 189.891 127.706 190.327 127.122 190.663C126.538 190.999 125.862 191.167 125.094 191.167C124.222 191.167 123.406 191.003 122.646 190.675C121.886 190.347 121.214 189.895 120.63 189.319C120.054 188.735 119.602 188.063 119.274 187.303C118.946 186.543 118.782 185.727 118.782 184.855C118.782 183.983 118.946 183.167 119.274 182.407C119.602 181.647 120.054 180.979 120.63 180.403C121.214 179.819 121.886 179.363 122.646 179.035C123.406 178.707 124.222 178.543 125.094 178.543C125.862 178.543 126.538 178.711 127.122 179.047C127.706 179.375 128.19 179.811 128.574 180.355V172.855ZM125.13 188.347C125.754 188.347 126.306 188.191 126.786 187.879C127.266 187.567 127.642 187.147 127.914 186.619C128.186 186.083 128.322 185.495 128.322 184.855C128.322 184.207 128.186 183.619 127.914 183.091C127.642 182.555 127.262 182.131 126.774 181.819C126.294 181.507 125.746 181.351 125.13 181.351C124.514 181.351 123.95 181.511 123.438 181.831C122.934 182.143 122.53 182.563 122.226 183.091C121.93 183.619 121.782 184.207 121.782 184.855C121.782 185.503 121.934 186.091 122.238 186.619C122.542 187.147 122.946 187.567 123.45 187.879C123.962 188.191 124.522 188.347 125.13 188.347ZM144.83 191.167C143.846 191.167 142.966 190.927 142.19 190.447C141.414 189.967 140.798 189.335 140.342 188.551C139.894 187.759 139.67 186.907 139.67 185.995C139.67 185.483 139.718 185.035 139.814 184.651C139.91 184.267 140.074 183.895 140.306 183.535C140.538 183.167 140.854 182.767 141.254 182.335C141.654 181.895 142.158 181.371 142.766 180.763C142.438 180.427 142.158 180.127 141.926 179.863C141.702 179.599 141.522 179.343 141.386 179.095C141.25 178.839 141.15 178.579 141.086 178.315C141.03 178.051 141.002 177.751 141.002 177.415C141.002 176.679 141.178 176.023 141.53 175.447C141.882 174.863 142.35 174.403 142.934 174.067C143.518 173.731 144.15 173.563 144.83 173.563C145.542 173.563 146.186 173.735 146.762 174.079C147.346 174.415 147.81 174.875 148.154 175.459C148.506 176.043 148.682 176.695 148.682 177.415C148.682 177.759 148.65 178.067 148.586 178.339C148.53 178.611 148.43 178.871 148.286 179.119C148.15 179.367 147.966 179.623 147.734 179.887C147.51 180.151 147.234 180.443 146.906 180.763L150.074 183.931L153.098 180.895V185.035L152.126 186.007L154.922 188.791L152.846 190.855L150.074 188.083C149.458 188.699 148.93 189.207 148.49 189.607C148.05 190.007 147.646 190.323 147.278 190.555C146.918 190.779 146.546 190.935 146.162 191.023C145.786 191.119 145.342 191.167 144.83 191.167ZM144.83 188.239C145.11 188.239 145.354 188.207 145.562 188.143C145.77 188.071 145.978 187.951 146.186 187.783C146.394 187.607 146.638 187.375 146.918 187.087C147.206 186.799 147.566 186.439 147.998 186.007L144.83 182.839C144.382 183.295 144.01 183.667 143.714 183.955C143.426 184.243 143.202 184.491 143.042 184.699C142.882 184.899 142.766 185.099 142.694 185.299C142.63 185.499 142.598 185.735 142.598 186.007C142.598 186.439 142.702 186.823 142.91 187.159C143.126 187.495 143.402 187.759 143.738 187.951C144.082 188.143 144.446 188.239 144.83 188.239ZM144.83 179.119C145.19 178.775 145.458 178.515 145.634 178.339C145.818 178.163 145.942 178.011 146.006 177.883C146.078 177.747 146.114 177.571 146.114 177.355C146.114 176.955 145.978 176.643 145.706 176.419C145.434 176.195 145.142 176.083 144.83 176.083C144.494 176.083 144.198 176.207 143.942 176.455C143.694 176.703 143.57 177.003 143.57 177.355C143.57 177.571 143.606 177.751 143.678 177.895C143.758 178.039 143.89 178.199 144.074 178.375C144.258 178.551 144.51 178.799 144.83 179.119ZM170.871 191.167C169.735 191.167 168.667 190.943 167.667 190.495C166.667 190.039 165.787 189.411 165.027 188.611C164.275 187.811 163.683 186.887 163.251 185.839C162.827 184.783 162.615 183.655 162.615 182.455C162.615 181.247 162.827 180.119 163.251 179.071C163.683 178.015 164.275 177.091 165.027 176.299C165.787 175.499 166.667 174.875 167.667 174.427C168.667 173.971 169.735 173.743 170.871 173.743C172.231 173.743 173.483 174.059 174.627 174.691C175.771 175.315 176.719 176.151 177.471 177.199L174.855 178.603C174.383 178.019 173.795 177.551 173.091 177.199C172.395 176.847 171.655 176.671 170.871 176.671C170.135 176.671 169.443 176.823 168.795 177.127C168.147 177.423 167.579 177.839 167.091 178.375C166.603 178.903 166.223 179.519 165.951 180.223C165.679 180.919 165.543 181.663 165.543 182.455C165.543 183.255 165.679 184.003 165.951 184.699C166.231 185.395 166.615 186.011 167.103 186.547C167.591 187.075 168.155 187.491 168.795 187.795C169.443 188.091 170.135 188.239 170.871 188.239C171.671 188.239 172.415 188.063 173.103 187.711C173.799 187.351 174.383 186.879 174.855 186.295L177.471 187.711C176.719 188.751 175.771 189.587 174.627 190.219C173.483 190.851 172.231 191.167 170.871 191.167ZM184.383 191.167C183.279 191.167 182.271 190.883 181.359 190.315C180.455 189.747 179.731 188.987 179.187 188.035C178.651 187.075 178.383 186.015 178.383 184.855C178.383 183.975 178.539 183.155 178.851 182.395C179.163 181.627 179.591 180.955 180.135 180.379C180.687 179.795 181.327 179.339 182.055 179.011C182.783 178.683 183.559 178.519 184.383 178.519C185.487 178.519 186.491 178.803 187.395 179.371C188.307 179.939 189.031 180.703 189.567 181.663C190.111 182.623 190.383 183.687 190.383 184.855C190.383 185.727 190.227 186.543 189.915 187.303C189.603 188.063 189.171 188.735 188.619 189.319C188.075 189.895 187.439 190.347 186.711 190.675C185.991 191.003 185.215 191.167 184.383 191.167ZM184.383 188.239C184.967 188.239 185.491 188.083 185.955 187.771C186.419 187.459 186.783 187.047 187.047 186.535C187.319 186.023 187.455 185.463 187.455 184.855C187.455 184.231 187.315 183.663 187.035 183.151C186.763 182.631 186.391 182.219 185.919 181.915C185.455 181.603 184.943 181.447 184.383 181.447C183.807 181.447 183.287 181.603 182.823 181.915C182.359 182.227 181.991 182.643 181.719 183.163C181.447 183.683 181.311 184.247 181.311 184.855C181.311 185.487 181.451 186.059 181.731 186.571C182.011 187.083 182.383 187.491 182.847 187.795C183.319 188.091 183.831 188.239 184.383 188.239ZM203.244 183.271V190.855H200.316V184.039C200.316 183.567 200.2 183.139 199.968 182.755C199.736 182.363 199.424 182.055 199.032 181.831C198.648 181.599 198.22 181.483 197.748 181.483C197.276 181.483 196.844 181.599 196.452 181.831C196.068 182.055 195.76 182.363 195.528 182.755C195.304 183.139 195.192 183.567 195.192 184.039V190.855H192.264L192.252 178.855H195.18L195.192 179.923C195.6 179.491 196.088 179.151 196.656 178.903C197.224 178.647 197.836 178.519 198.492 178.519C199.364 178.519 200.16 178.735 200.88 179.167C201.6 179.591 202.172 180.163 202.596 180.883C203.028 181.595 203.244 182.391 203.244 183.271ZM216.626 183.271V190.855H213.698V184.039C213.698 183.567 213.582 183.139 213.35 182.755C213.118 182.363 212.806 182.055 212.414 181.831C212.03 181.599 211.602 181.483 211.13 181.483C210.658 181.483 210.226 181.599 209.834 181.831C209.45 182.055 209.142 182.363 208.91 182.755C208.686 183.139 208.574 183.567 208.574 184.039V190.855H205.646L205.634 178.855H208.562L208.574 179.923C208.982 179.491 209.47 179.151 210.038 178.903C210.606 178.647 211.218 178.519 211.874 178.519C212.746 178.519 213.542 178.735 214.262 179.167C214.982 179.591 215.554 180.163 215.978 180.883C216.41 181.595 216.626 182.391 216.626 183.271ZM224.063 191.167C222.959 191.167 221.951 190.883 221.039 190.315C220.135 189.747 219.411 188.983 218.867 188.023C218.331 187.063 218.063 186.003 218.063 184.843C218.063 183.971 218.219 183.155 218.531 182.395C218.843 181.627 219.271 180.955 219.815 180.379C220.367 179.795 221.007 179.339 221.735 179.011C222.463 178.683 223.239 178.519 224.063 178.519C224.999 178.519 225.855 178.719 226.631 179.119C227.415 179.511 228.079 180.051 228.623 180.739C229.167 181.427 229.563 182.211 229.811 183.091C230.059 183.971 230.115 184.891 229.979 185.851H221.207C221.319 186.299 221.503 186.703 221.759 187.063C222.015 187.415 222.339 187.699 222.731 187.915C223.123 188.123 223.567 188.231 224.063 188.239C224.575 188.247 225.039 188.127 225.455 187.879C225.879 187.623 226.231 187.279 226.511 186.847L229.499 187.543C229.011 188.607 228.283 189.479 227.315 190.159C226.347 190.831 225.263 191.167 224.063 191.167ZM221.111 183.655H227.015C226.927 183.175 226.739 182.743 226.451 182.359C226.171 181.967 225.823 181.655 225.407 181.423C224.991 181.191 224.543 181.075 224.063 181.075C223.583 181.075 223.139 181.191 222.731 181.423C222.323 181.647 221.975 181.955 221.687 182.347C221.407 182.731 221.215 183.167 221.111 183.655ZM239.418 187.243L242.058 188.671C241.506 189.423 240.814 190.027 239.982 190.483C239.15 190.939 238.242 191.167 237.258 191.167C236.154 191.167 235.146 190.883 234.234 190.315C233.33 189.747 232.606 188.987 232.062 188.035C231.526 187.075 231.258 186.015 231.258 184.855C231.258 183.975 231.414 183.155 231.726 182.395C232.038 181.627 232.466 180.955 233.01 180.379C233.562 179.795 234.202 179.339 234.93 179.011C235.658 178.683 236.434 178.519 237.258 178.519C238.242 178.519 239.15 178.747 239.982 179.203C240.814 179.659 241.506 180.271 242.058 181.039L239.418 182.455C239.138 182.135 238.806 181.887 238.422 181.711C238.046 181.535 237.658 181.447 237.258 181.447C236.682 181.447 236.162 181.607 235.698 181.927C235.234 182.239 234.866 182.655 234.594 183.175C234.322 183.687 234.186 184.247 234.186 184.855C234.186 185.455 234.322 186.015 234.594 186.535C234.866 187.047 235.234 187.459 235.698 187.771C236.162 188.083 236.682 188.239 237.258 188.239C237.674 188.239 238.07 188.151 238.446 187.975C238.822 187.791 239.146 187.547 239.418 187.243ZM250.644 181.783H248.316V190.855H245.388V181.783H243.612V178.855H245.388V175.087H248.316V178.855H250.644V181.783Z" fill="#090909"/>
<path d="M152.912 138.363C152.853 137.805 152.601 137.37 152.158 137.059C151.719 136.748 151.148 136.592 150.445 136.592C149.951 136.592 149.527 136.667 149.173 136.816C148.819 136.965 148.549 137.167 148.361 137.423C148.174 137.679 148.078 137.971 148.073 138.299C148.073 138.572 148.135 138.808 148.259 139.008C148.387 139.209 148.559 139.379 148.777 139.52C148.994 139.656 149.235 139.771 149.499 139.865C149.763 139.959 150.029 140.038 150.298 140.101L151.525 140.408C152.019 140.523 152.495 140.679 152.951 140.875C153.411 141.071 153.822 141.318 154.184 141.616C154.551 141.915 154.84 142.275 155.054 142.697C155.267 143.118 155.373 143.613 155.373 144.18C155.373 144.947 155.177 145.622 154.785 146.206C154.393 146.785 153.826 147.239 153.085 147.567C152.348 147.891 151.455 148.053 150.406 148.053C149.388 148.053 148.504 147.895 147.754 147.58C147.008 147.265 146.424 146.805 146.002 146.199C145.585 145.594 145.359 144.857 145.325 143.988H147.658C147.692 144.444 147.833 144.823 148.08 145.126C148.327 145.428 148.649 145.654 149.045 145.803C149.446 145.952 149.893 146.027 150.387 146.027C150.903 146.027 151.355 145.95 151.742 145.797C152.134 145.639 152.441 145.422 152.663 145.145C152.884 144.864 152.997 144.535 153.002 144.16C152.997 143.819 152.897 143.538 152.701 143.317C152.505 143.091 152.23 142.903 151.877 142.754C151.527 142.601 151.118 142.464 150.649 142.345L149.16 141.962C148.082 141.685 147.23 141.265 146.603 140.702C145.981 140.136 145.67 139.383 145.67 138.446C145.67 137.675 145.879 136.999 146.296 136.42C146.718 135.84 147.291 135.39 148.016 135.071C148.74 134.747 149.561 134.585 150.477 134.585C151.406 134.585 152.22 134.747 152.919 135.071C153.622 135.39 154.174 135.836 154.574 136.407C154.975 136.974 155.181 137.626 155.194 138.363H152.912ZM161.208 138.037V139.827H155.564V138.037H161.208ZM156.957 135.685H159.271V144.902C159.271 145.213 159.318 145.452 159.412 145.618C159.51 145.78 159.637 145.89 159.795 145.95C159.953 146.01 160.127 146.04 160.319 146.04C160.464 146.04 160.596 146.029 160.716 146.008C160.839 145.986 160.933 145.967 160.997 145.95L161.387 147.759C161.263 147.802 161.086 147.849 160.856 147.9C160.63 147.951 160.353 147.981 160.025 147.989C159.446 148.006 158.924 147.919 158.459 147.727C157.995 147.531 157.626 147.229 157.353 146.819C157.085 146.41 156.953 145.899 156.957 145.285V135.685ZM166.304 148.047C165.32 148.047 164.47 147.842 163.754 147.433C163.042 147.02 162.494 146.436 162.111 145.682C161.727 144.923 161.536 144.03 161.536 143.003C161.536 141.993 161.727 141.107 162.111 140.344C162.499 139.577 163.04 138.981 163.734 138.555C164.429 138.124 165.245 137.909 166.183 137.909C166.788 137.909 167.359 138.007 167.896 138.203C168.437 138.395 168.914 138.693 169.327 139.098C169.745 139.503 170.073 140.018 170.312 140.645C170.55 141.267 170.67 142.008 170.67 142.869V143.579H162.622V142.019H168.452C168.447 141.576 168.352 141.182 168.164 140.837C167.977 140.487 167.715 140.212 167.378 140.012C167.046 139.812 166.658 139.712 166.215 139.712C165.742 139.712 165.326 139.827 164.968 140.057C164.61 140.283 164.331 140.581 164.131 140.952C163.935 141.318 163.835 141.721 163.83 142.16V143.521C163.83 144.092 163.935 144.582 164.144 144.991C164.352 145.396 164.644 145.707 165.019 145.925C165.394 146.138 165.833 146.244 166.336 146.244C166.673 146.244 166.977 146.197 167.25 146.104C167.523 146.006 167.759 145.863 167.96 145.675C168.16 145.488 168.311 145.256 168.413 144.979L170.574 145.221C170.438 145.792 170.178 146.291 169.794 146.717C169.415 147.139 168.929 147.467 168.337 147.702C167.744 147.932 167.067 148.047 166.304 148.047ZM171.547 151.537V138.037H173.823V139.66H173.957C174.076 139.422 174.245 139.168 174.462 138.9C174.679 138.627 174.973 138.395 175.344 138.203C175.715 138.007 176.188 137.909 176.763 137.909C177.522 137.909 178.206 138.103 178.815 138.491C179.429 138.874 179.915 139.443 180.272 140.197C180.635 140.947 180.816 141.868 180.816 142.959C180.816 144.037 180.639 144.953 180.285 145.707C179.932 146.462 179.45 147.037 178.841 147.433C178.231 147.829 177.541 148.028 176.77 148.028C176.207 148.028 175.741 147.934 175.37 147.746C174.999 147.559 174.701 147.333 174.475 147.069C174.253 146.8 174.081 146.547 173.957 146.308H173.861V151.537H171.547ZM173.817 142.946C173.817 143.581 173.906 144.137 174.085 144.614C174.268 145.091 174.53 145.464 174.871 145.733C175.216 145.997 175.634 146.129 176.124 146.129C176.635 146.129 177.064 145.993 177.409 145.72C177.754 145.443 178.014 145.066 178.189 144.589C178.368 144.107 178.457 143.56 178.457 142.946C178.457 142.337 178.37 141.795 178.195 141.322C178.02 140.849 177.76 140.479 177.415 140.21C177.07 139.942 176.64 139.807 176.124 139.807C175.63 139.807 175.21 139.937 174.865 140.197C174.52 140.457 174.258 140.822 174.079 141.29C173.904 141.759 173.817 142.311 173.817 142.946ZM185.077 147.855V146.142L189.621 141.687C190.056 141.248 190.418 140.858 190.708 140.517C190.998 140.176 191.215 139.846 191.36 139.526C191.505 139.207 191.577 138.866 191.577 138.503C191.577 138.09 191.484 137.736 191.296 137.442C191.109 137.144 190.851 136.914 190.523 136.752C190.195 136.59 189.822 136.509 189.404 136.509C188.974 136.509 188.597 136.599 188.273 136.778C187.949 136.952 187.697 137.202 187.518 137.525C187.344 137.849 187.256 138.235 187.256 138.682H185C185 137.851 185.19 137.129 185.569 136.515C185.948 135.902 186.47 135.427 187.135 135.09C187.804 134.753 188.571 134.585 189.436 134.585C190.314 134.585 191.085 134.749 191.75 135.077C192.415 135.405 192.93 135.855 193.297 136.426C193.668 136.997 193.853 137.649 193.853 138.382C193.853 138.872 193.759 139.354 193.572 139.827C193.384 140.3 193.054 140.824 192.581 141.399C192.112 141.974 191.454 142.671 190.606 143.489L188.349 145.784V145.873H194.051V147.855H185.077Z" fill="#4581FF"/>
<rect x="129.3" y="10.8" width="93" height="93.055" rx="25.2593" fill="#09706A"/>
<path d="M196.924 66.4666H187.757C186.492 66.4666 185.466 67.4926 185.466 68.7582V77.9249C185.466 79.1905 186.492 80.2166 187.757 80.2166H196.924C198.19 80.2166 199.216 79.1905 199.216 77.9249V68.7582C199.216 67.4926 198.19 66.4666 196.924 66.4666Z" stroke="white" stroke-width="4" stroke-linecap="round" stroke-linejoin="round"/>
<path d="M164.841 66.4666H155.674C154.409 66.4666 153.383 67.4926 153.383 68.7582V77.9249C153.383 79.1905 154.409 80.2166 155.674 80.2166H164.841C166.107 80.2166 167.133 79.1905 167.133 77.9249V68.7582C167.133 67.4926 166.107 66.4666 164.841 66.4666Z" stroke="white" stroke-width="4" stroke-linecap="round" stroke-linejoin="round"/>
<path d="M180.883 34.3833H171.716C170.451 34.3833 169.425 35.4093 169.425 36.675V45.8416C169.425 47.1073 170.451 48.1333 171.716 48.1333H180.883C182.149 48.1333 183.175 47.1073 183.175 45.8416V36.675C183.175 35.4093 182.149 34.3833 180.883 34.3833Z" stroke="white" stroke-width="4" stroke-linecap="round" stroke-linejoin="round"/>
<path d="M160.258 66.4666V59.5916C160.258 58.9838 160.499 58.401 160.929 57.9712C161.359 57.5414 161.942 57.3 162.549 57.3H190.049C190.657 57.3 191.24 57.5414 191.67 57.9712C192.1 58.401 192.341 58.9838 192.341 59.5916V66.4666M176.299 57.3V48.1333" stroke="white" stroke-width="4" stroke-linecap="round" stroke-linejoin="round"/>
</g>
<defs>
<filter id="filter0_d_4172_3489" x="-0.000195503" y="4.86374e-05" width="351.6" height="375.655" filterUnits="userSpaceOnUse" color-interpolation-filters="sRGB">
<feFlood flood-opacity="0" result="BackgroundImageFix"/>
<feColorMatrix in="SourceAlpha" type="matrix" values="0 0 0 0 0 0 0 0 0 0 0 0 0 0 0 0 0 0 127 0" result="hardAlpha"/>
<feOffset dy="1"/>
<feGaussianBlur stdDeviation="5.9"/>
<feComposite in2="hardAlpha" operator="out"/>
<feColorMatrix type="matrix" values="0 0 0 0 0 0 0 0 0 0 0 0 0 0 0 0 0 0 0.25 0"/>
<feBlend mode="normal" in2="BackgroundImageFix" result="effect1_dropShadow_4172_3489"/>
<feBlend mode="normal" in="SourceGraphic" in2="effect1_dropShadow_4172_3489" result="shape"/>
</filter>
</defs>
</svg>
