<svg width="443" height="322" viewBox="0 0 443 322" fill="none" xmlns="http://www.w3.org/2000/svg">
<g filter="url(#filter0_d_4216_1807)">
<rect x="11.7998" y="10.7998" width="419" height="298" rx="21" fill="white" shape-rendering="crispEdges"/>
<rect x="12.2998" y="11.2998" width="418" height="297" rx="20.5" stroke="#E3E1E1" shape-rendering="crispEdges"/>
<path d="M56.9998 204.8V190.8H61.6198C62.3731 190.8 63.0498 190.983 63.6498 191.35C64.2565 191.716 64.7365 192.213 65.0898 192.84C65.4498 193.46 65.6298 194.153 65.6298 194.92C65.6298 195.7 65.4465 196.403 65.0798 197.03C64.7198 197.65 64.2331 198.143 63.6198 198.51C63.0131 198.87 62.3465 199.05 61.6198 199.05H58.6798V204.8H56.9998ZM58.6798 197.37H61.4698C61.9231 197.37 62.3365 197.26 62.7098 197.04C63.0898 196.813 63.3898 196.51 63.6098 196.13C63.8365 195.743 63.9498 195.31 63.9498 194.83C63.9498 194.343 63.8365 193.91 63.6098 193.53C63.3898 193.143 63.0898 192.84 62.7098 192.62C62.3365 192.393 61.9231 192.28 61.4698 192.28H58.6798V197.37ZM67.3514 194.8H69.0314V204.8H67.3514V194.8ZM68.2114 193.17C67.9447 193.17 67.7214 193.083 67.5414 192.91C67.3614 192.736 67.2714 192.52 67.2714 192.26C67.2714 192 67.3614 191.783 67.5414 191.61C67.7214 191.436 67.9414 191.35 68.2014 191.35C68.4614 191.35 68.6814 191.436 68.8614 191.61C69.0414 191.783 69.1314 192 69.1314 192.26C69.1314 192.52 69.0414 192.736 68.8614 192.91C68.688 193.083 68.4714 193.17 68.2114 193.17ZM76.6134 196.48H74.3434L74.3334 204.8H72.6534L72.6634 196.48H70.9434V194.8H72.6634L72.6534 191.66H74.3334L74.3434 194.8H76.6134V196.48ZM85.0421 202.16L86.5421 202.97C86.0888 203.603 85.5121 204.11 84.8121 204.49C84.1188 204.87 83.3655 205.06 82.5521 205.06C81.6321 205.06 80.7921 204.823 80.0321 204.35C79.2788 203.876 78.6755 203.243 78.2221 202.45C77.7755 201.65 77.5521 200.766 77.5521 199.8C77.5521 199.066 77.6821 198.383 77.9421 197.75C78.2021 197.11 78.5588 196.55 79.0121 196.07C79.4721 195.583 80.0055 195.203 80.6121 194.93C81.2188 194.656 81.8655 194.52 82.5521 194.52C83.3655 194.52 84.1188 194.71 84.8121 195.09C85.5121 195.47 86.0888 195.98 86.5421 196.62L85.0421 197.43C84.7221 197.036 84.3421 196.733 83.9021 196.52C83.4621 196.306 83.0121 196.2 82.5521 196.2C81.9321 196.2 81.3688 196.366 80.8621 196.7C80.3621 197.026 79.9655 197.463 79.6721 198.01C79.3788 198.556 79.2321 199.153 79.2321 199.8C79.2321 200.446 79.3788 201.043 79.6721 201.59C79.9721 202.13 80.3721 202.563 80.8721 202.89C81.3788 203.216 81.9388 203.38 82.5521 203.38C83.0455 203.38 83.5088 203.266 83.9421 203.04C84.3755 202.813 84.7421 202.52 85.0421 202.16ZM97.0117 198.58V204.8H95.3317V198.95C95.3317 198.443 95.2083 197.983 94.9617 197.57C94.715 197.156 94.385 196.83 93.9717 196.59C93.5583 196.343 93.0983 196.22 92.5917 196.22C92.0917 196.22 91.6317 196.343 91.2117 196.59C90.7983 196.83 90.4683 197.156 90.2217 197.57C89.975 197.983 89.8517 198.443 89.8517 198.95V204.8H88.1717V189.8H89.8517V196.05C90.205 195.583 90.6517 195.213 91.1917 194.94C91.7317 194.66 92.3183 194.52 92.9517 194.52C93.6983 194.52 94.3783 194.703 94.9917 195.07C95.6117 195.43 96.1017 195.916 96.4617 196.53C96.8283 197.143 97.0117 197.826 97.0117 198.58ZM111.866 189.8H113.546V204.8H111.866V203.1C111.526 203.686 111.07 204.16 110.496 204.52C109.923 204.88 109.25 205.06 108.476 205.06C107.75 205.06 107.07 204.923 106.436 204.65C105.803 204.376 105.243 204 104.756 203.52C104.276 203.033 103.9 202.473 103.626 201.84C103.353 201.206 103.216 200.526 103.216 199.8C103.216 199.073 103.353 198.393 103.626 197.76C103.9 197.12 104.276 196.56 104.756 196.08C105.243 195.593 105.803 195.213 106.436 194.94C107.07 194.666 107.75 194.53 108.476 194.53C109.25 194.53 109.923 194.71 110.496 195.07C111.07 195.43 111.526 195.903 111.866 196.49V189.8ZM108.496 203.43C109.156 203.43 109.726 203.27 110.206 202.95C110.693 202.623 111.066 202.183 111.326 201.63C111.593 201.076 111.726 200.466 111.726 199.8C111.726 199.12 111.593 198.506 111.326 197.96C111.06 197.406 110.683 196.97 110.196 196.65C109.716 196.323 109.15 196.16 108.496 196.16C107.836 196.16 107.236 196.323 106.696 196.65C106.163 196.976 105.736 197.416 105.416 197.97C105.096 198.516 104.936 199.126 104.936 199.8C104.936 200.473 105.1 201.086 105.426 201.64C105.753 202.186 106.186 202.623 106.726 202.95C107.266 203.27 107.856 203.43 108.496 203.43ZM120.247 205.06C119.327 205.06 118.487 204.823 117.727 204.35C116.974 203.876 116.371 203.243 115.917 202.45C115.471 201.65 115.247 200.766 115.247 199.8C115.247 199.066 115.377 198.383 115.637 197.75C115.897 197.11 116.254 196.55 116.707 196.07C117.167 195.583 117.701 195.203 118.307 194.93C118.914 194.656 119.561 194.52 120.247 194.52C121.001 194.52 121.691 194.673 122.317 194.98C122.951 195.28 123.491 195.7 123.937 196.24C124.391 196.78 124.727 197.406 124.947 198.12C125.174 198.833 125.257 199.596 125.197 200.41H117.037C117.117 200.976 117.304 201.483 117.597 201.93C117.891 202.37 118.264 202.72 118.717 202.98C119.177 203.24 119.687 203.373 120.247 203.38C120.847 203.38 121.391 203.226 121.877 202.92C122.364 202.606 122.757 202.18 123.057 201.64L124.767 202.04C124.367 202.926 123.764 203.653 122.957 204.22C122.151 204.78 121.247 205.06 120.247 205.06ZM116.987 199.09H123.507C123.454 198.53 123.274 198.02 122.967 197.56C122.661 197.093 122.271 196.72 121.797 196.44C121.324 196.16 120.807 196.02 120.247 196.02C119.687 196.02 119.174 196.156 118.707 196.43C118.241 196.703 117.854 197.073 117.547 197.54C117.247 198 117.061 198.516 116.987 199.09ZM133.714 202.16L135.214 202.97C134.761 203.603 134.184 204.11 133.484 204.49C132.791 204.87 132.037 205.06 131.224 205.06C130.304 205.06 129.464 204.823 128.704 204.35C127.951 203.876 127.347 203.243 126.894 202.45C126.447 201.65 126.224 200.766 126.224 199.8C126.224 199.066 126.354 198.383 126.614 197.75C126.874 197.11 127.231 196.55 127.684 196.07C128.144 195.583 128.677 195.203 129.284 194.93C129.891 194.656 130.537 194.52 131.224 194.52C132.037 194.52 132.791 194.71 133.484 195.09C134.184 195.47 134.761 195.98 135.214 196.62L133.714 197.43C133.394 197.036 133.014 196.733 132.574 196.52C132.134 196.306 131.684 196.2 131.224 196.2C130.604 196.2 130.041 196.366 129.534 196.7C129.034 197.026 128.637 197.463 128.344 198.01C128.051 198.556 127.904 199.153 127.904 199.8C127.904 200.446 128.051 201.043 128.344 201.59C128.644 202.13 129.044 202.563 129.544 202.89C130.051 203.216 130.611 203.38 131.224 203.38C131.717 203.38 132.181 203.266 132.614 203.04C133.047 202.813 133.414 202.52 133.714 202.16ZM144.954 204.8H143.024L140.364 200.21L138.524 202.41V204.8H136.844V189.8H138.524V199.8L142.714 194.8H144.904L141.504 198.85L144.954 204.8ZM149.62 204.99C149.08 204.97 148.553 204.87 148.04 204.69C147.533 204.503 147.087 204.253 146.7 203.94C146.32 203.62 146.043 203.253 145.87 202.84L147.31 202.22C147.41 202.446 147.59 202.66 147.85 202.86C148.11 203.06 148.41 203.22 148.75 203.34C149.09 203.46 149.433 203.52 149.78 203.52C150.147 203.52 150.49 203.463 150.81 203.35C151.13 203.236 151.39 203.07 151.59 202.85C151.797 202.623 151.9 202.353 151.9 202.04C151.9 201.706 151.787 201.446 151.56 201.26C151.34 201.066 151.06 200.916 150.72 200.81C150.387 200.696 150.047 200.59 149.7 200.49C149.013 200.316 148.4 200.11 147.86 199.87C147.32 199.623 146.893 199.313 146.58 198.94C146.273 198.56 146.12 198.076 146.12 197.49C146.12 196.87 146.29 196.333 146.63 195.88C146.977 195.426 147.43 195.076 147.99 194.83C148.55 194.583 149.15 194.46 149.79 194.46C150.597 194.46 151.333 194.633 152 194.98C152.667 195.326 153.163 195.796 153.49 196.39L152.14 197.18C152.027 196.94 151.853 196.73 151.62 196.55C151.387 196.363 151.12 196.216 150.82 196.11C150.52 196.003 150.213 195.946 149.9 195.94C149.513 195.926 149.15 195.976 148.81 196.09C148.477 196.203 148.207 196.376 148 196.61C147.8 196.836 147.7 197.12 147.7 197.46C147.7 197.793 147.807 198.046 148.02 198.22C148.24 198.393 148.523 198.533 148.87 198.64C149.223 198.74 149.607 198.856 150.02 198.99C150.627 199.183 151.193 199.406 151.72 199.66C152.247 199.913 152.67 200.23 152.99 200.61C153.317 200.99 153.477 201.46 153.47 202.02C153.47 202.633 153.287 203.17 152.92 203.63C152.553 204.083 152.077 204.43 151.49 204.67C150.91 204.91 150.287 205.016 149.62 204.99ZM154.725 205.92L155.345 202.54H157.025L155.845 205.92H154.725ZM169.286 194.52C170.26 194.52 171.143 194.756 171.936 195.23C172.736 195.703 173.373 196.34 173.846 197.14C174.32 197.933 174.556 198.816 174.556 199.79C174.556 200.516 174.42 201.2 174.146 201.84C173.873 202.473 173.493 203.033 173.006 203.52C172.526 204 171.966 204.376 171.326 204.65C170.693 204.923 170.013 205.06 169.286 205.06C168.513 205.06 167.84 204.88 167.266 204.52C166.7 204.153 166.246 203.676 165.906 203.09V204.8H164.226V189.8H165.906V196.49C166.246 195.903 166.7 195.43 167.266 195.07C167.84 194.703 168.513 194.52 169.286 194.52ZM169.266 203.42C169.926 203.42 170.526 203.256 171.066 202.93C171.606 202.603 172.036 202.166 172.356 201.62C172.676 201.066 172.836 200.456 172.836 199.79C172.836 199.11 172.673 198.496 172.346 197.95C172.02 197.396 171.586 196.96 171.046 196.64C170.506 196.313 169.913 196.15 169.266 196.15C168.613 196.15 168.043 196.313 167.556 196.64C167.076 196.966 166.703 197.406 166.436 197.96C166.176 198.513 166.046 199.123 166.046 199.79C166.046 200.463 166.176 201.076 166.436 201.63C166.703 202.176 167.08 202.613 167.566 202.94C168.053 203.26 168.62 203.42 169.266 203.42ZM176.219 204.8V194.8H177.899V196.05C178.252 195.583 178.699 195.213 179.239 194.94C179.779 194.66 180.365 194.52 180.999 194.52C181.385 194.52 181.759 194.57 182.119 194.67L181.439 196.35C181.165 196.263 180.899 196.22 180.639 196.22C180.139 196.22 179.679 196.343 179.259 196.59C178.845 196.83 178.515 197.156 178.269 197.57C178.022 197.983 177.899 198.443 177.899 198.95V204.8H176.219ZM187.24 205.06C186.32 205.06 185.48 204.823 184.72 204.35C183.966 203.876 183.363 203.243 182.91 202.45C182.463 201.65 182.24 200.766 182.24 199.8C182.24 199.066 182.37 198.383 182.63 197.75C182.89 197.11 183.246 196.55 183.7 196.07C184.16 195.583 184.693 195.203 185.3 194.93C185.906 194.656 186.553 194.52 187.24 194.52C188.16 194.52 188.996 194.756 189.75 195.23C190.51 195.703 191.113 196.34 191.56 197.14C192.013 197.94 192.24 198.826 192.24 199.8C192.24 200.526 192.11 201.206 191.85 201.84C191.59 202.473 191.23 203.033 190.77 203.52C190.316 204 189.786 204.376 189.18 204.65C188.58 204.923 187.933 205.06 187.24 205.06ZM187.24 203.38C187.866 203.38 188.43 203.216 188.93 202.89C189.436 202.556 189.833 202.12 190.12 201.58C190.413 201.033 190.56 200.44 190.56 199.8C190.56 199.146 190.41 198.546 190.11 198C189.816 197.453 189.42 197.016 188.92 196.69C188.42 196.363 187.86 196.2 187.24 196.2C186.613 196.2 186.05 196.366 185.55 196.7C185.05 197.026 184.653 197.463 184.36 198.01C184.066 198.556 183.92 199.153 183.92 199.8C183.92 200.466 184.07 201.073 184.37 201.62C184.67 202.16 185.073 202.59 185.58 202.91C186.086 203.223 186.64 203.38 187.24 203.38ZM200.726 202.16L202.226 202.97C201.772 203.603 201.196 204.11 200.496 204.49C199.802 204.87 199.049 205.06 198.236 205.06C197.316 205.06 196.476 204.823 195.716 204.35C194.962 203.876 194.359 203.243 193.906 202.45C193.459 201.65 193.236 200.766 193.236 199.8C193.236 199.066 193.366 198.383 193.626 197.75C193.886 197.11 194.242 196.55 194.696 196.07C195.156 195.583 195.689 195.203 196.296 194.93C196.902 194.656 197.549 194.52 198.236 194.52C199.049 194.52 199.802 194.71 200.496 195.09C201.196 195.47 201.772 195.98 202.226 196.62L200.726 197.43C200.406 197.036 200.026 196.733 199.586 196.52C199.146 196.306 198.696 196.2 198.236 196.2C197.616 196.2 197.052 196.366 196.546 196.7C196.046 197.026 195.649 197.463 195.356 198.01C195.062 198.556 194.916 199.153 194.916 199.8C194.916 200.446 195.062 201.043 195.356 201.59C195.656 202.13 196.056 202.563 196.556 202.89C197.062 203.216 197.622 203.38 198.236 203.38C198.729 203.38 199.192 203.266 199.626 203.04C200.059 202.813 200.426 202.52 200.726 202.16ZM212.695 198.58V204.8H211.015V198.95C211.015 198.443 210.892 197.983 210.645 197.57C210.399 197.156 210.069 196.83 209.655 196.59C209.242 196.343 208.782 196.22 208.275 196.22C207.775 196.22 207.315 196.343 206.895 196.59C206.482 196.83 206.152 197.156 205.905 197.57C205.659 197.983 205.535 198.443 205.535 198.95V204.8H203.855V189.8H205.535V196.05C205.889 195.583 206.335 195.213 206.875 194.94C207.415 194.66 208.002 194.52 208.635 194.52C209.382 194.52 210.062 194.703 210.675 195.07C211.295 195.43 211.785 195.916 212.145 196.53C212.512 197.143 212.695 197.826 212.695 198.58ZM214.295 201V194.8H215.975V200.63C215.975 201.136 216.098 201.596 216.345 202.01C216.592 202.423 216.922 202.753 217.335 203C217.755 203.24 218.215 203.36 218.715 203.36C219.222 203.36 219.678 203.24 220.085 203C220.498 202.753 220.828 202.423 221.075 202.01C221.322 201.596 221.445 201.136 221.445 200.63V194.8H223.125L223.135 204.8H221.455L221.445 203.53C221.092 203.996 220.645 204.37 220.105 204.65C219.565 204.923 218.982 205.06 218.355 205.06C217.608 205.06 216.925 204.88 216.305 204.52C215.692 204.153 215.202 203.663 214.835 203.05C214.475 202.436 214.295 201.753 214.295 201ZM225.144 204.8V194.8H226.824V196.05C227.178 195.583 227.624 195.213 228.164 194.94C228.704 194.66 229.291 194.52 229.924 194.52C230.311 194.52 230.684 194.57 231.044 194.67L230.364 196.35C230.091 196.263 229.824 196.22 229.564 196.22C229.064 196.22 228.604 196.343 228.184 196.59C227.771 196.83 227.441 197.156 227.194 197.57C226.948 197.983 226.824 198.443 226.824 198.95V204.8H225.144ZM236.165 205.06C235.245 205.06 234.405 204.823 233.645 204.35C232.892 203.876 232.289 203.243 231.835 202.45C231.389 201.65 231.165 200.766 231.165 199.8C231.165 199.066 231.295 198.383 231.555 197.75C231.815 197.11 232.172 196.55 232.625 196.07C233.085 195.583 233.619 195.203 234.225 194.93C234.832 194.656 235.479 194.52 236.165 194.52C236.919 194.52 237.609 194.673 238.235 194.98C238.869 195.28 239.409 195.7 239.855 196.24C240.309 196.78 240.645 197.406 240.865 198.12C241.092 198.833 241.175 199.596 241.115 200.41H232.955C233.035 200.976 233.222 201.483 233.515 201.93C233.809 202.37 234.182 202.72 234.635 202.98C235.095 203.24 235.605 203.373 236.165 203.38C236.765 203.38 237.309 203.226 237.795 202.92C238.282 202.606 238.675 202.18 238.975 201.64L240.685 202.04C240.285 202.926 239.682 203.653 238.875 204.22C238.069 204.78 237.165 205.06 236.165 205.06ZM232.905 199.09H239.425C239.372 198.53 239.192 198.02 238.885 197.56C238.579 197.093 238.189 196.72 237.715 196.44C237.242 196.16 236.725 196.02 236.165 196.02C235.605 196.02 235.092 196.156 234.625 196.43C234.159 196.703 233.772 197.073 233.465 197.54C233.165 198 232.979 198.516 232.905 199.09ZM245.89 204.99C245.35 204.97 244.823 204.87 244.31 204.69C243.803 204.503 243.356 204.253 242.97 203.94C242.59 203.62 242.313 203.253 242.14 202.84L243.58 202.22C243.68 202.446 243.86 202.66 244.12 202.86C244.38 203.06 244.68 203.22 245.02 203.34C245.36 203.46 245.703 203.52 246.05 203.52C246.416 203.52 246.76 203.463 247.08 203.35C247.4 203.236 247.66 203.07 247.86 202.85C248.066 202.623 248.17 202.353 248.17 202.04C248.17 201.706 248.056 201.446 247.83 201.26C247.61 201.066 247.33 200.916 246.99 200.81C246.656 200.696 246.316 200.59 245.97 200.49C245.283 200.316 244.67 200.11 244.13 199.87C243.59 199.623 243.163 199.313 242.85 198.94C242.543 198.56 242.39 198.076 242.39 197.49C242.39 196.87 242.56 196.333 242.9 195.88C243.246 195.426 243.7 195.076 244.26 194.83C244.82 194.583 245.42 194.46 246.06 194.46C246.866 194.46 247.603 194.633 248.27 194.98C248.936 195.326 249.433 195.796 249.76 196.39L248.41 197.18C248.296 196.94 248.123 196.73 247.89 196.55C247.656 196.363 247.39 196.216 247.09 196.11C246.79 196.003 246.483 195.946 246.17 195.94C245.783 195.926 245.42 195.976 245.08 196.09C244.746 196.203 244.476 196.376 244.27 196.61C244.07 196.836 243.97 197.12 243.97 197.46C243.97 197.793 244.076 198.046 244.29 198.22C244.51 198.393 244.793 198.533 245.14 198.64C245.493 198.74 245.876 198.856 246.29 198.99C246.896 199.183 247.463 199.406 247.99 199.66C248.516 199.913 248.94 200.23 249.26 200.61C249.586 200.99 249.746 201.46 249.74 202.02C249.74 202.633 249.556 203.17 249.19 203.63C248.823 204.083 248.346 204.43 247.76 204.67C247.18 204.91 246.556 205.016 245.89 204.99ZM250.994 205.92L251.614 202.54H253.294L252.114 205.92H250.994ZM263.436 204.8L259.856 190.8H261.586L264.406 201.85L267.216 190.8H268.726L271.546 201.85L274.356 190.8H276.086L272.526 204.8H270.566L267.976 194.66L265.386 204.8H263.436ZM286.738 198.58V204.8H285.058V198.95C285.058 198.443 284.935 197.983 284.688 197.57C284.442 197.156 284.112 196.83 283.698 196.59C283.285 196.343 282.825 196.22 282.318 196.22C281.818 196.22 281.358 196.343 280.938 196.59C280.525 196.83 280.195 197.156 279.948 197.57C279.702 197.983 279.578 198.443 279.578 198.95V204.8H277.898V189.8H279.578V196.05C279.932 195.583 280.378 195.213 280.918 194.94C281.458 194.66 282.045 194.52 282.678 194.52C283.425 194.52 284.105 194.703 284.718 195.07C285.338 195.43 285.828 195.916 286.188 196.53C286.555 197.143 286.738 197.826 286.738 198.58ZM296.583 194.8H298.263V204.8H296.583L296.513 203.11C296.199 203.69 295.766 204.16 295.213 204.52C294.666 204.88 294.013 205.06 293.253 205.06C292.519 205.06 291.833 204.923 291.193 204.65C290.553 204.37 289.986 203.986 289.493 203.5C289.006 203.006 288.626 202.44 288.353 201.8C288.079 201.16 287.943 200.47 287.943 199.73C287.943 199.016 288.076 198.343 288.343 197.71C288.609 197.076 288.979 196.523 289.453 196.05C289.933 195.57 290.486 195.196 291.113 194.93C291.739 194.656 292.413 194.52 293.133 194.52C293.919 194.52 294.609 194.706 295.203 195.08C295.796 195.446 296.276 195.923 296.643 196.51L296.583 194.8ZM293.223 203.43C293.883 203.43 294.453 203.27 294.933 202.95C295.419 202.623 295.793 202.183 296.053 201.63C296.319 201.076 296.453 200.466 296.453 199.8C296.453 199.12 296.319 198.506 296.053 197.96C295.786 197.406 295.409 196.97 294.923 196.65C294.443 196.323 293.876 196.16 293.223 196.16C292.563 196.16 291.963 196.323 291.423 196.65C290.883 196.976 290.453 197.416 290.133 197.97C289.819 198.516 289.663 199.126 289.663 199.8C289.663 200.473 289.826 201.086 290.153 201.64C290.479 202.186 290.913 202.623 291.453 202.95C291.993 203.27 292.583 203.43 293.223 203.43ZM305.442 196.48H303.172L303.162 204.8H301.482L301.492 196.48H299.772V194.8H301.492L301.482 191.66H303.162L303.172 194.8H305.442V196.48ZM310.187 204.99C309.647 204.97 309.12 204.87 308.607 204.69C308.1 204.503 307.653 204.253 307.267 203.94C306.887 203.62 306.61 203.253 306.437 202.84L307.877 202.22C307.977 202.446 308.157 202.66 308.417 202.86C308.677 203.06 308.977 203.22 309.317 203.34C309.657 203.46 310 203.52 310.347 203.52C310.713 203.52 311.057 203.463 311.377 203.35C311.697 203.236 311.957 203.07 312.157 202.85C312.363 202.623 312.467 202.353 312.467 202.04C312.467 201.706 312.353 201.446 312.127 201.26C311.907 201.066 311.627 200.916 311.287 200.81C310.953 200.696 310.613 200.59 310.267 200.49C309.58 200.316 308.967 200.11 308.427 199.87C307.887 199.623 307.46 199.313 307.147 198.94C306.84 198.56 306.687 198.076 306.687 197.49C306.687 196.87 306.857 196.333 307.197 195.88C307.543 195.426 307.997 195.076 308.557 194.83C309.117 194.583 309.717 194.46 310.357 194.46C311.163 194.46 311.9 194.633 312.567 194.98C313.233 195.326 313.73 195.796 314.057 196.39L312.707 197.18C312.593 196.94 312.42 196.73 312.187 196.55C311.953 196.363 311.687 196.216 311.387 196.11C311.087 196.003 310.78 195.946 310.467 195.94C310.08 195.926 309.717 195.976 309.377 196.09C309.043 196.203 308.773 196.376 308.567 196.61C308.367 196.836 308.267 197.12 308.267 197.46C308.267 197.793 308.373 198.046 308.587 198.22C308.807 198.393 309.09 198.533 309.437 198.64C309.79 198.74 310.173 198.856 310.587 198.99C311.193 199.183 311.76 199.406 312.287 199.66C312.813 199.913 313.237 200.23 313.557 200.61C313.883 200.99 314.043 201.46 314.037 202.02C314.037 202.633 313.853 203.17 313.487 203.63C313.12 204.083 312.643 204.43 312.057 204.67C311.477 204.91 310.853 205.016 310.187 204.99ZM320.44 190.8H322.47L327.56 204.8H325.78L324.74 201.94H318.17L317.14 204.8H315.35L320.44 190.8ZM318.79 200.26H324.12L321.45 192.95L318.79 200.26ZM330.848 209.8H329.168V194.8H330.848V196.51C331.188 195.923 331.641 195.45 332.208 195.09C332.774 194.723 333.448 194.54 334.228 194.54C334.954 194.54 335.634 194.676 336.268 194.95C336.908 195.223 337.468 195.603 337.948 196.09C338.428 196.57 338.804 197.126 339.078 197.76C339.351 198.393 339.488 199.073 339.488 199.8C339.488 200.526 339.351 201.21 339.078 201.85C338.804 202.49 338.428 203.053 337.948 203.54C337.468 204.02 336.908 204.396 336.268 204.67C335.634 204.943 334.954 205.08 334.228 205.08C333.448 205.08 332.774 204.9 332.208 204.54C331.641 204.173 331.188 203.696 330.848 203.11V209.8ZM334.208 196.17C333.561 196.17 332.994 196.333 332.508 196.66C332.021 196.986 331.644 197.423 331.378 197.97C331.118 198.516 330.988 199.126 330.988 199.8C330.988 200.466 331.118 201.076 331.378 201.63C331.644 202.183 332.018 202.623 332.498 202.95C332.984 203.276 333.554 203.44 334.208 203.44C334.854 203.44 335.448 203.28 335.988 202.96C336.528 202.633 336.961 202.196 337.288 201.65C337.614 201.096 337.778 200.48 337.778 199.8C337.778 199.133 337.618 198.526 337.298 197.98C336.978 197.426 336.548 196.986 336.008 196.66C335.468 196.333 334.868 196.17 334.208 196.17ZM342.84 209.8H341.16V194.8H342.84V196.51C343.18 195.923 343.633 195.45 344.2 195.09C344.767 194.723 345.44 194.54 346.22 194.54C346.947 194.54 347.627 194.676 348.26 194.95C348.9 195.223 349.46 195.603 349.94 196.09C350.42 196.57 350.797 197.126 351.07 197.76C351.343 198.393 351.48 199.073 351.48 199.8C351.48 200.526 351.343 201.21 351.07 201.85C350.797 202.49 350.42 203.053 349.94 203.54C349.46 204.02 348.9 204.396 348.26 204.67C347.627 204.943 346.947 205.08 346.22 205.08C345.44 205.08 344.767 204.9 344.2 204.54C343.633 204.173 343.18 203.696 342.84 203.11V209.8ZM346.2 196.17C345.553 196.17 344.987 196.333 344.5 196.66C344.013 196.986 343.637 197.423 343.37 197.97C343.11 198.516 342.98 199.126 342.98 199.8C342.98 200.466 343.11 201.076 343.37 201.63C343.637 202.183 344.01 202.623 344.49 202.95C344.977 203.276 345.547 203.44 346.2 203.44C346.847 203.44 347.44 203.28 347.98 202.96C348.52 202.633 348.953 202.196 349.28 201.65C349.607 201.096 349.77 200.48 349.77 199.8C349.77 199.133 349.61 198.526 349.29 197.98C348.97 197.426 348.54 196.986 348 196.66C347.46 196.333 346.86 196.17 346.2 196.17ZM62.1798 220.48H59.9098L59.8998 228.8H58.2198L58.2298 220.48H56.5098V218.8H58.2298L58.2198 215.66H59.8998L59.9098 218.8H62.1798V220.48ZM68.1186 229.06C67.1986 229.06 66.3586 228.823 65.5986 228.35C64.8452 227.876 64.2419 227.243 63.7886 226.45C63.3419 225.65 63.1186 224.766 63.1186 223.8C63.1186 223.066 63.2486 222.383 63.5086 221.75C63.7686 221.11 64.1252 220.55 64.5786 220.07C65.0386 219.583 65.5719 219.203 66.1786 218.93C66.7852 218.656 67.4319 218.52 68.1186 218.52C68.8719 218.52 69.5619 218.673 70.1886 218.98C70.8219 219.28 71.3619 219.7 71.8086 220.24C72.2619 220.78 72.5986 221.406 72.8186 222.12C73.0452 222.833 73.1286 223.596 73.0686 224.41H64.9086C64.9886 224.976 65.1752 225.483 65.4686 225.93C65.7619 226.37 66.1352 226.72 66.5886 226.98C67.0486 227.24 67.5586 227.373 68.1186 227.38C68.7186 227.38 69.2619 227.226 69.7486 226.92C70.2352 226.606 70.6286 226.18 70.9286 225.64L72.6386 226.04C72.2386 226.926 71.6352 227.653 70.8286 228.22C70.0219 228.78 69.1186 229.06 68.1186 229.06ZM64.8586 223.09H71.3786C71.3252 222.53 71.1452 222.02 70.8386 221.56C70.5319 221.093 70.1419 220.72 69.6686 220.44C69.1952 220.16 68.6786 220.02 68.1186 220.02C67.5586 220.02 67.0452 220.156 66.5786 220.43C66.1119 220.703 65.7252 221.073 65.4186 221.54C65.1186 222 64.9319 222.516 64.8586 223.09ZM74.7537 228.8V218.8H76.4337V220.05C76.787 219.583 77.2304 219.213 77.7637 218.94C78.3037 218.66 78.8904 218.52 79.5237 218.52C80.2637 218.52 80.9404 218.7 81.5537 219.06C82.167 219.42 82.6504 219.896 83.0037 220.49C83.357 219.896 83.837 219.42 84.4437 219.06C85.057 218.7 85.7304 218.52 86.4637 218.52C87.217 218.52 87.9004 218.703 88.5137 219.07C89.127 219.43 89.6137 219.916 89.9737 220.53C90.3404 221.143 90.5237 221.826 90.5237 222.58V228.8H88.8437V222.98C88.8437 222.486 88.7237 222.03 88.4837 221.61C88.2437 221.19 87.9204 220.853 87.5137 220.6C87.107 220.346 86.657 220.22 86.1637 220.22C85.6704 220.22 85.2204 220.34 84.8137 220.58C84.407 220.813 84.0837 221.14 83.8437 221.56C83.6037 221.973 83.4837 222.446 83.4837 222.98V228.8H81.8037V222.98C81.8037 222.446 81.6837 221.973 81.4437 221.56C81.2037 221.14 80.877 220.813 80.4637 220.58C80.057 220.34 79.607 220.22 79.1137 220.22C78.627 220.22 78.177 220.346 77.7637 220.6C77.357 220.853 77.0337 221.19 76.7937 221.61C76.5537 222.03 76.4337 222.486 76.4337 222.98V228.8H74.7537ZM94.2071 233.8H92.5271V218.8H94.2071V220.51C94.5471 219.923 95.0005 219.45 95.5671 219.09C96.1338 218.723 96.8071 218.54 97.5871 218.54C98.3138 218.54 98.9938 218.676 99.6271 218.95C100.267 219.223 100.827 219.603 101.307 220.09C101.787 220.57 102.164 221.126 102.437 221.76C102.71 222.393 102.847 223.073 102.847 223.8C102.847 224.526 102.71 225.21 102.437 225.85C102.164 226.49 101.787 227.053 101.307 227.54C100.827 228.02 100.267 228.396 99.6271 228.67C98.9938 228.943 98.3138 229.08 97.5871 229.08C96.8071 229.08 96.1338 228.9 95.5671 228.54C95.0005 228.173 94.5471 227.696 94.2071 227.11V233.8ZM97.5671 220.17C96.9205 220.17 96.3538 220.333 95.8671 220.66C95.3805 220.986 95.0038 221.423 94.7371 221.97C94.4771 222.516 94.3471 223.126 94.3471 223.8C94.3471 224.466 94.4771 225.076 94.7371 225.63C95.0038 226.183 95.3771 226.623 95.8571 226.95C96.3438 227.276 96.9138 227.44 97.5671 227.44C98.2138 227.44 98.8071 227.28 99.3471 226.96C99.8871 226.633 100.32 226.196 100.647 225.65C100.974 225.096 101.137 224.48 101.137 223.8C101.137 223.133 100.977 222.526 100.657 221.98C100.337 221.426 99.9071 220.986 99.3671 220.66C98.8271 220.333 98.2271 220.17 97.5671 220.17ZM104.422 228.8V213.8H106.102V228.8H104.422ZM116.446 218.8H118.126V228.8H116.446L116.376 227.11C116.063 227.69 115.629 228.16 115.076 228.52C114.529 228.88 113.876 229.06 113.116 229.06C112.383 229.06 111.696 228.923 111.056 228.65C110.416 228.37 109.849 227.986 109.356 227.5C108.869 227.006 108.489 226.44 108.216 225.8C107.943 225.16 107.806 224.47 107.806 223.73C107.806 223.016 107.939 222.343 108.206 221.71C108.473 221.076 108.843 220.523 109.316 220.05C109.796 219.57 110.349 219.196 110.976 218.93C111.603 218.656 112.276 218.52 112.996 218.52C113.783 218.52 114.473 218.706 115.066 219.08C115.659 219.446 116.139 219.923 116.506 220.51L116.446 218.8ZM113.086 227.43C113.746 227.43 114.316 227.27 114.796 226.95C115.283 226.623 115.656 226.183 115.916 225.63C116.183 225.076 116.316 224.466 116.316 223.8C116.316 223.12 116.183 222.506 115.916 221.96C115.649 221.406 115.273 220.97 114.786 220.65C114.306 220.323 113.739 220.16 113.086 220.16C112.426 220.16 111.826 220.323 111.286 220.65C110.746 220.976 110.316 221.416 109.996 221.97C109.683 222.516 109.526 223.126 109.526 223.8C109.526 224.473 109.689 225.086 110.016 225.64C110.343 226.186 110.776 226.623 111.316 226.95C111.856 227.27 112.446 227.43 113.086 227.43ZM125.305 220.48H123.035L123.025 228.8H121.345L121.355 220.48H119.635V218.8H121.355L121.345 215.66H123.025L123.035 218.8H125.305V220.48ZM131.244 229.06C130.324 229.06 129.484 228.823 128.724 228.35C127.97 227.876 127.367 227.243 126.914 226.45C126.467 225.65 126.244 224.766 126.244 223.8C126.244 223.066 126.374 222.383 126.634 221.75C126.894 221.11 127.25 220.55 127.704 220.07C128.164 219.583 128.697 219.203 129.304 218.93C129.91 218.656 130.557 218.52 131.244 218.52C131.997 218.52 132.687 218.673 133.314 218.98C133.947 219.28 134.487 219.7 134.934 220.24C135.387 220.78 135.724 221.406 135.944 222.12C136.17 222.833 136.254 223.596 136.194 224.41H128.034C128.114 224.976 128.3 225.483 128.594 225.93C128.887 226.37 129.26 226.72 129.714 226.98C130.174 227.24 130.684 227.373 131.244 227.38C131.844 227.38 132.387 227.226 132.874 226.92C133.36 226.606 133.754 226.18 134.054 225.64L135.764 226.04C135.364 226.926 134.76 227.653 133.954 228.22C133.147 228.78 132.244 229.06 131.244 229.06ZM127.984 223.09H134.504C134.45 222.53 134.27 222.02 133.964 221.56C133.657 221.093 133.267 220.72 132.794 220.44C132.32 220.16 131.804 220.02 131.244 220.02C130.684 220.02 130.17 220.156 129.704 220.43C129.237 220.703 128.85 221.073 128.544 221.54C128.244 222 128.057 222.516 127.984 223.09ZM140.968 228.99C140.428 228.97 139.901 228.87 139.388 228.69C138.881 228.503 138.434 228.253 138.048 227.94C137.668 227.62 137.391 227.253 137.218 226.84L138.658 226.22C138.758 226.446 138.938 226.66 139.198 226.86C139.458 227.06 139.758 227.22 140.098 227.34C140.438 227.46 140.781 227.52 141.128 227.52C141.494 227.52 141.838 227.463 142.158 227.35C142.478 227.236 142.738 227.07 142.938 226.85C143.144 226.623 143.248 226.353 143.248 226.04C143.248 225.706 143.134 225.446 142.908 225.26C142.688 225.066 142.408 224.916 142.068 224.81C141.734 224.696 141.394 224.59 141.048 224.49C140.361 224.316 139.748 224.11 139.208 223.87C138.668 223.623 138.241 223.313 137.928 222.94C137.621 222.56 137.468 222.076 137.468 221.49C137.468 220.87 137.638 220.333 137.978 219.88C138.324 219.426 138.778 219.076 139.338 218.83C139.898 218.583 140.498 218.46 141.138 218.46C141.944 218.46 142.681 218.633 143.348 218.98C144.014 219.326 144.511 219.796 144.838 220.39L143.488 221.18C143.374 220.94 143.201 220.73 142.968 220.55C142.734 220.363 142.468 220.216 142.168 220.11C141.868 220.003 141.561 219.946 141.248 219.94C140.861 219.926 140.498 219.976 140.158 220.09C139.824 220.203 139.554 220.376 139.348 220.61C139.148 220.836 139.048 221.12 139.048 221.46C139.048 221.793 139.154 222.046 139.368 222.22C139.588 222.393 139.871 222.533 140.218 222.64C140.571 222.74 140.954 222.856 141.368 222.99C141.974 223.183 142.541 223.406 143.068 223.66C143.594 223.913 144.018 224.23 144.338 224.61C144.664 224.99 144.824 225.46 144.818 226.02C144.818 226.633 144.634 227.17 144.268 227.63C143.901 228.083 143.424 228.43 142.838 228.67C142.258 228.91 141.634 229.016 140.968 228.99ZM146.072 229.92L146.692 226.54H148.372L147.192 229.92H146.072ZM159.974 229.06C159.054 229.06 158.214 228.823 157.454 228.35C156.701 227.876 156.097 227.243 155.644 226.45C155.197 225.65 154.974 224.766 154.974 223.8C154.974 223.066 155.104 222.383 155.364 221.75C155.624 221.11 155.981 220.55 156.434 220.07C156.894 219.583 157.427 219.203 158.034 218.93C158.641 218.656 159.287 218.52 159.974 218.52C160.727 218.52 161.417 218.673 162.044 218.98C162.677 219.28 163.217 219.7 163.664 220.24C164.117 220.78 164.454 221.406 164.674 222.12C164.901 222.833 164.984 223.596 164.924 224.41H156.764C156.844 224.976 157.031 225.483 157.324 225.93C157.617 226.37 157.991 226.72 158.444 226.98C158.904 227.24 159.414 227.373 159.974 227.38C160.574 227.38 161.117 227.226 161.604 226.92C162.091 226.606 162.484 226.18 162.784 225.64L164.494 226.04C164.094 226.926 163.491 227.653 162.684 228.22C161.877 228.78 160.974 229.06 159.974 229.06ZM156.714 223.09H163.234C163.181 222.53 163.001 222.02 162.694 221.56C162.387 221.093 161.997 220.72 161.524 220.44C161.051 220.16 160.534 220.02 159.974 220.02C159.414 220.02 158.901 220.156 158.434 220.43C157.967 220.703 157.581 221.073 157.274 221.54C156.974 222 156.787 222.516 156.714 223.09ZM166.609 228.8V218.8H168.289V220.05C168.643 219.583 169.086 219.213 169.619 218.94C170.159 218.66 170.746 218.52 171.379 218.52C172.119 218.52 172.796 218.7 173.409 219.06C174.023 219.42 174.506 219.896 174.859 220.49C175.213 219.896 175.693 219.42 176.299 219.06C176.913 218.7 177.586 218.52 178.319 218.52C179.073 218.52 179.756 218.703 180.369 219.07C180.983 219.43 181.469 219.916 181.829 220.53C182.196 221.143 182.379 221.826 182.379 222.58V228.8H180.699V222.98C180.699 222.486 180.579 222.03 180.339 221.61C180.099 221.19 179.776 220.853 179.369 220.6C178.963 220.346 178.513 220.22 178.019 220.22C177.526 220.22 177.076 220.34 176.669 220.58C176.263 220.813 175.939 221.14 175.699 221.56C175.459 221.973 175.339 222.446 175.339 222.98V228.8H173.659V222.98C173.659 222.446 173.539 221.973 173.299 221.56C173.059 221.14 172.733 220.813 172.319 220.58C171.913 220.34 171.463 220.22 170.969 220.22C170.483 220.22 170.033 220.346 169.619 220.6C169.213 220.853 168.889 221.19 168.649 221.61C168.409 222.03 168.289 222.486 168.289 222.98V228.8H166.609ZM192.227 218.8H193.907V228.8H192.227L192.157 227.11C191.844 227.69 191.411 228.16 190.857 228.52C190.311 228.88 189.657 229.06 188.897 229.06C188.164 229.06 187.477 228.923 186.837 228.65C186.197 228.37 185.631 227.986 185.137 227.5C184.651 227.006 184.271 226.44 183.997 225.8C183.724 225.16 183.587 224.47 183.587 223.73C183.587 223.016 183.721 222.343 183.987 221.71C184.254 221.076 184.624 220.523 185.097 220.05C185.577 219.57 186.131 219.196 186.757 218.93C187.384 218.656 188.057 218.52 188.777 218.52C189.564 218.52 190.254 218.706 190.847 219.08C191.441 219.446 191.921 219.923 192.287 220.51L192.227 218.8ZM188.867 227.43C189.527 227.43 190.097 227.27 190.577 226.95C191.064 226.623 191.437 226.183 191.697 225.63C191.964 225.076 192.097 224.466 192.097 223.8C192.097 223.12 191.964 222.506 191.697 221.96C191.431 221.406 191.054 220.97 190.567 220.65C190.087 220.323 189.521 220.16 188.867 220.16C188.207 220.16 187.607 220.323 187.067 220.65C186.527 220.976 186.097 221.416 185.777 221.97C185.464 222.516 185.307 223.126 185.307 223.8C185.307 224.473 185.471 225.086 185.797 225.64C186.124 226.186 186.557 226.623 187.097 226.95C187.637 227.27 188.227 227.43 188.867 227.43ZM195.906 218.8H197.586V228.8H195.906V218.8ZM196.766 217.17C196.499 217.17 196.276 217.083 196.096 216.91C195.916 216.736 195.826 216.52 195.826 216.26C195.826 216 195.916 215.783 196.096 215.61C196.276 215.436 196.496 215.35 196.756 215.35C197.016 215.35 197.236 215.436 197.416 215.61C197.596 215.783 197.686 216 197.686 216.26C197.686 216.52 197.596 216.736 197.416 216.91C197.243 217.083 197.026 217.17 196.766 217.17ZM200.047 228.8V213.8H201.727V228.8H200.047ZM215.823 226.16L217.323 226.97C216.87 227.603 216.293 228.11 215.593 228.49C214.9 228.87 214.147 229.06 213.333 229.06C212.413 229.06 211.573 228.823 210.813 228.35C210.06 227.876 209.457 227.243 209.003 226.45C208.557 225.65 208.333 224.766 208.333 223.8C208.333 223.066 208.463 222.383 208.723 221.75C208.983 221.11 209.34 220.55 209.793 220.07C210.253 219.583 210.787 219.203 211.393 218.93C212 218.656 212.647 218.52 213.333 218.52C214.147 218.52 214.9 218.71 215.593 219.09C216.293 219.47 216.87 219.98 217.323 220.62L215.823 221.43C215.503 221.036 215.123 220.733 214.683 220.52C214.243 220.306 213.793 220.2 213.333 220.2C212.713 220.2 212.15 220.366 211.643 220.7C211.143 221.026 210.747 221.463 210.453 222.01C210.16 222.556 210.013 223.153 210.013 223.8C210.013 224.446 210.16 225.043 210.453 225.59C210.753 226.13 211.153 226.563 211.653 226.89C212.16 227.216 212.72 227.38 213.333 227.38C213.827 227.38 214.29 227.266 214.723 227.04C215.157 226.813 215.523 226.52 215.823 226.16ZM226.993 218.8H228.673V228.8H226.993L226.923 227.11C226.61 227.69 226.176 228.16 225.623 228.52C225.076 228.88 224.423 229.06 223.663 229.06C222.93 229.06 222.243 228.923 221.603 228.65C220.963 228.37 220.396 227.986 219.903 227.5C219.416 227.006 219.036 226.44 218.763 225.8C218.49 225.16 218.353 224.47 218.353 223.73C218.353 223.016 218.486 222.343 218.753 221.71C219.02 221.076 219.39 220.523 219.863 220.05C220.343 219.57 220.896 219.196 221.523 218.93C222.15 218.656 222.823 218.52 223.543 218.52C224.33 218.52 225.02 218.706 225.613 219.08C226.206 219.446 226.686 219.923 227.053 220.51L226.993 218.8ZM223.633 227.43C224.293 227.43 224.863 227.27 225.343 226.95C225.83 226.623 226.203 226.183 226.463 225.63C226.73 225.076 226.863 224.466 226.863 223.8C226.863 223.12 226.73 222.506 226.463 221.96C226.196 221.406 225.82 220.97 225.333 220.65C224.853 220.323 224.286 220.16 223.633 220.16C222.973 220.16 222.373 220.323 221.833 220.65C221.293 220.976 220.863 221.416 220.543 221.97C220.23 222.516 220.073 223.126 220.073 223.8C220.073 224.473 220.236 225.086 220.563 225.64C220.89 226.186 221.323 226.623 221.863 226.95C222.403 227.27 222.993 227.43 223.633 227.43ZM230.672 228.8V218.8H232.352V220.05C232.705 219.583 233.148 219.213 233.682 218.94C234.222 218.66 234.808 218.52 235.442 218.52C236.182 218.52 236.858 218.7 237.472 219.06C238.085 219.42 238.568 219.896 238.922 220.49C239.275 219.896 239.755 219.42 240.362 219.06C240.975 218.7 241.648 218.52 242.382 218.52C243.135 218.52 243.818 218.703 244.432 219.07C245.045 219.43 245.532 219.916 245.892 220.53C246.258 221.143 246.442 221.826 246.442 222.58V228.8H244.762V222.98C244.762 222.486 244.642 222.03 244.402 221.61C244.162 221.19 243.838 220.853 243.432 220.6C243.025 220.346 242.575 220.22 242.082 220.22C241.588 220.22 241.138 220.34 240.732 220.58C240.325 220.813 240.002 221.14 239.762 221.56C239.522 221.973 239.402 222.446 239.402 222.98V228.8H237.722V222.98C237.722 222.446 237.602 221.973 237.362 221.56C237.122 221.14 236.795 220.813 236.382 220.58C235.975 220.34 235.525 220.22 235.032 220.22C234.545 220.22 234.095 220.346 233.682 220.6C233.275 220.853 232.952 221.19 232.712 221.61C232.472 222.03 232.352 222.486 232.352 222.98V228.8H230.672ZM250.125 233.8H248.445V218.8H250.125V220.51C250.465 219.923 250.918 219.45 251.485 219.09C252.052 218.723 252.725 218.54 253.505 218.54C254.232 218.54 254.912 218.676 255.545 218.95C256.185 219.223 256.745 219.603 257.225 220.09C257.705 220.57 258.082 221.126 258.355 221.76C258.628 222.393 258.765 223.073 258.765 223.8C258.765 224.526 258.628 225.21 258.355 225.85C258.082 226.49 257.705 227.053 257.225 227.54C256.745 228.02 256.185 228.396 255.545 228.67C254.912 228.943 254.232 229.08 253.505 229.08C252.725 229.08 252.052 228.9 251.485 228.54C250.918 228.173 250.465 227.696 250.125 227.11V233.8ZM253.485 220.17C252.838 220.17 252.272 220.333 251.785 220.66C251.298 220.986 250.922 221.423 250.655 221.97C250.395 222.516 250.265 223.126 250.265 223.8C250.265 224.466 250.395 225.076 250.655 225.63C250.922 226.183 251.295 226.623 251.775 226.95C252.262 227.276 252.832 227.44 253.485 227.44C254.132 227.44 254.725 227.28 255.265 226.96C255.805 226.633 256.238 226.196 256.565 225.65C256.892 225.096 257.055 224.48 257.055 223.8C257.055 223.133 256.895 222.526 256.575 221.98C256.255 221.426 255.825 220.986 255.285 220.66C254.745 220.333 254.145 220.17 253.485 220.17ZM268.419 218.8H270.099V228.8H268.419L268.349 227.11C268.035 227.69 267.602 228.16 267.049 228.52C266.502 228.88 265.849 229.06 265.089 229.06C264.355 229.06 263.669 228.923 263.029 228.65C262.389 228.37 261.822 227.986 261.329 227.5C260.842 227.006 260.462 226.44 260.189 225.8C259.915 225.16 259.779 224.47 259.779 223.73C259.779 223.016 259.912 222.343 260.179 221.71C260.445 221.076 260.815 220.523 261.289 220.05C261.769 219.57 262.322 219.196 262.949 218.93C263.575 218.656 264.249 218.52 264.969 218.52C265.755 218.52 266.445 218.706 267.039 219.08C267.632 219.446 268.112 219.923 268.479 220.51L268.419 218.8ZM265.059 227.43C265.719 227.43 266.289 227.27 266.769 226.95C267.255 226.623 267.629 226.183 267.889 225.63C268.155 225.076 268.289 224.466 268.289 223.8C268.289 223.12 268.155 222.506 267.889 221.96C267.622 221.406 267.245 220.97 266.759 220.65C266.279 220.323 265.712 220.16 265.059 220.16C264.399 220.16 263.799 220.323 263.259 220.65C262.719 220.976 262.289 221.416 261.969 221.97C261.655 222.516 261.499 223.126 261.499 223.8C261.499 224.473 261.662 225.086 261.989 225.64C262.315 226.186 262.749 226.623 263.289 226.95C263.829 227.27 264.419 227.43 265.059 227.43ZM272.097 218.8H273.777V228.8H272.097V218.8ZM272.957 217.17C272.691 217.17 272.467 217.083 272.287 216.91C272.107 216.736 272.017 216.52 272.017 216.26C272.017 216 272.107 215.783 272.287 215.61C272.467 215.436 272.687 215.35 272.947 215.35C273.207 215.35 273.427 215.436 273.607 215.61C273.787 215.783 273.877 216 273.877 216.26C273.877 216.52 273.787 216.736 273.607 216.91C273.434 217.083 273.217 217.17 272.957 217.17ZM283.853 218.8H285.533V229.12C285.533 229.78 285.389 230.393 285.103 230.96C284.823 231.533 284.443 232.03 283.963 232.45C283.483 232.876 282.936 233.206 282.323 233.44C281.709 233.68 281.069 233.8 280.403 233.8C279.709 233.8 279.039 233.643 278.393 233.33C277.746 233.023 277.179 232.61 276.693 232.09C276.213 231.576 275.866 231 275.653 230.36L277.193 229.66C277.319 230.12 277.546 230.533 277.873 230.9C278.206 231.273 278.593 231.566 279.033 231.78C279.479 232 279.936 232.11 280.403 232.11C280.843 232.11 281.266 232.033 281.673 231.88C282.086 231.726 282.456 231.513 282.783 231.24C283.116 230.973 283.376 230.656 283.563 230.29C283.756 229.93 283.853 229.54 283.853 229.12V227.13C283.513 227.703 283.063 228.17 282.503 228.53C281.949 228.883 281.303 229.06 280.563 229.06C279.856 229.06 279.193 228.923 278.573 228.65C277.953 228.376 277.409 228 276.943 227.52C276.476 227.033 276.109 226.473 275.843 225.84C275.576 225.206 275.443 224.526 275.443 223.8C275.443 223.073 275.576 222.393 275.843 221.76C276.109 221.12 276.476 220.56 276.943 220.08C277.409 219.593 277.953 219.213 278.573 218.94C279.193 218.666 279.856 218.53 280.563 218.53C281.303 218.53 281.949 218.706 282.503 219.06C283.063 219.413 283.513 219.88 283.853 220.46V218.8ZM280.573 227.43C281.219 227.43 281.779 227.263 282.253 226.93C282.733 226.596 283.103 226.153 283.363 225.6C283.623 225.046 283.753 224.446 283.753 223.8C283.753 223.133 283.619 222.526 283.353 221.98C283.093 221.426 282.723 220.986 282.243 220.66C281.769 220.326 281.213 220.16 280.573 220.16C279.946 220.16 279.373 220.323 278.853 220.65C278.333 220.976 277.919 221.416 277.613 221.97C277.313 222.516 277.163 223.126 277.163 223.8C277.163 224.473 277.316 225.086 277.623 225.64C277.936 226.186 278.349 226.623 278.863 226.95C279.383 227.27 279.953 227.43 280.573 227.43ZM296.777 222.58V228.8H295.097V222.95C295.097 222.443 294.974 221.983 294.727 221.57C294.481 221.156 294.151 220.83 293.737 220.59C293.324 220.343 292.864 220.22 292.357 220.22C291.857 220.22 291.397 220.343 290.977 220.59C290.564 220.83 290.234 221.156 289.987 221.57C289.741 221.983 289.617 222.443 289.617 222.95V228.8H287.937V218.8H289.617V220.05C289.971 219.583 290.417 219.213 290.957 218.94C291.497 218.66 292.084 218.52 292.717 218.52C293.464 218.52 294.144 218.703 294.757 219.07C295.377 219.43 295.867 219.916 296.227 220.53C296.594 221.143 296.777 221.826 296.777 222.58ZM301.827 228.99C301.287 228.97 300.76 228.87 300.247 228.69C299.74 228.503 299.294 228.253 298.907 227.94C298.527 227.62 298.25 227.253 298.077 226.84L299.517 226.22C299.617 226.446 299.797 226.66 300.057 226.86C300.317 227.06 300.617 227.22 300.957 227.34C301.297 227.46 301.64 227.52 301.987 227.52C302.354 227.52 302.697 227.463 303.017 227.35C303.337 227.236 303.597 227.07 303.797 226.85C304.004 226.623 304.107 226.353 304.107 226.04C304.107 225.706 303.994 225.446 303.767 225.26C303.547 225.066 303.267 224.916 302.927 224.81C302.594 224.696 302.254 224.59 301.907 224.49C301.22 224.316 300.607 224.11 300.067 223.87C299.527 223.623 299.1 223.313 298.787 222.94C298.48 222.56 298.327 222.076 298.327 221.49C298.327 220.87 298.497 220.333 298.837 219.88C299.184 219.426 299.637 219.076 300.197 218.83C300.757 218.583 301.357 218.46 301.997 218.46C302.804 218.46 303.54 218.633 304.207 218.98C304.874 219.326 305.37 219.796 305.697 220.39L304.347 221.18C304.234 220.94 304.06 220.73 303.827 220.55C303.594 220.363 303.327 220.216 303.027 220.11C302.727 220.003 302.42 219.946 302.107 219.94C301.72 219.926 301.357 219.976 301.017 220.09C300.684 220.203 300.414 220.376 300.207 220.61C300.007 220.836 299.907 221.12 299.907 221.46C299.907 221.793 300.014 222.046 300.227 222.22C300.447 222.393 300.73 222.533 301.077 222.64C301.43 222.74 301.814 222.856 302.227 222.99C302.834 223.183 303.4 223.406 303.927 223.66C304.454 223.913 304.877 224.23 305.197 224.61C305.524 224.99 305.684 225.46 305.677 226.02C305.677 226.633 305.494 227.17 305.127 227.63C304.76 228.083 304.284 228.43 303.697 228.67C303.117 228.91 302.494 229.016 301.827 228.99ZM312.195 221.96H330.195V223.64H312.195V221.96ZM345.43 218.8H347.11V228.8H345.43L345.36 227.11C345.047 227.69 344.614 228.16 344.06 228.52C343.514 228.88 342.86 229.06 342.1 229.06C341.367 229.06 340.68 228.923 340.04 228.65C339.4 228.37 338.834 227.986 338.34 227.5C337.854 227.006 337.474 226.44 337.2 225.8C336.927 225.16 336.79 224.47 336.79 223.73C336.79 223.016 336.924 222.343 337.19 221.71C337.457 221.076 337.827 220.523 338.3 220.05C338.78 219.57 339.334 219.196 339.96 218.93C340.587 218.656 341.26 218.52 341.98 218.52C342.767 218.52 343.457 218.706 344.05 219.08C344.644 219.446 345.124 219.923 345.49 220.51L345.43 218.8ZM342.07 227.43C342.73 227.43 343.3 227.27 343.78 226.95C344.267 226.623 344.64 226.183 344.9 225.63C345.167 225.076 345.3 224.466 345.3 223.8C345.3 223.12 345.167 222.506 344.9 221.96C344.634 221.406 344.257 220.97 343.77 220.65C343.29 220.323 342.724 220.16 342.07 220.16C341.41 220.16 340.81 220.323 340.27 220.65C339.73 220.976 339.3 221.416 338.98 221.97C338.667 222.516 338.51 223.126 338.51 223.8C338.51 224.473 338.674 225.086 339 225.64C339.327 226.186 339.76 226.623 340.3 226.95C340.84 227.27 341.43 227.43 342.07 227.43ZM349.226 228.8V213.8H350.906V228.8H349.226ZM353.308 228.8V213.8H354.988V228.8H353.308ZM362.195 228.8V218.8H363.875V220.05C364.228 219.583 364.675 219.213 365.215 218.94C365.755 218.66 366.342 218.52 366.975 218.52C367.362 218.52 367.735 218.57 368.095 218.67L367.415 220.35C367.142 220.263 366.875 220.22 366.615 220.22C366.115 220.22 365.655 220.343 365.235 220.59C364.822 220.83 364.492 221.156 364.245 221.57C363.998 221.983 363.875 222.443 363.875 222.95V228.8H362.195ZM373.216 229.06C372.296 229.06 371.456 228.823 370.696 228.35C369.943 227.876 369.34 227.243 368.886 226.45C368.44 225.65 368.216 224.766 368.216 223.8C368.216 223.066 368.346 222.383 368.606 221.75C368.866 221.11 369.223 220.55 369.676 220.07C370.136 219.583 370.67 219.203 371.276 218.93C371.883 218.656 372.53 218.52 373.216 218.52C373.97 218.52 374.66 218.673 375.286 218.98C375.92 219.28 376.46 219.7 376.906 220.24C377.36 220.78 377.696 221.406 377.916 222.12C378.143 222.833 378.226 223.596 378.166 224.41H370.006C370.086 224.976 370.273 225.483 370.566 225.93C370.86 226.37 371.233 226.72 371.686 226.98C372.146 227.24 372.656 227.373 373.216 227.38C373.816 227.38 374.36 227.226 374.846 226.92C375.333 226.606 375.726 226.18 376.026 225.64L377.736 226.04C377.336 226.926 376.733 227.653 375.926 228.22C375.12 228.78 374.216 229.06 373.216 229.06ZM369.956 223.09H376.476C376.423 222.53 376.243 222.02 375.936 221.56C375.63 221.093 375.24 220.72 374.766 220.44C374.293 220.16 373.776 220.02 373.216 220.02C372.656 220.02 372.143 220.156 371.676 220.43C371.21 220.703 370.823 221.073 370.516 221.54C370.216 222 370.03 222.516 369.956 223.09ZM387.833 218.8H389.513V228.8H387.833L387.763 227.11C387.449 227.69 387.016 228.16 386.463 228.52C385.916 228.88 385.263 229.06 384.503 229.06C383.769 229.06 383.083 228.923 382.443 228.65C381.803 228.37 381.236 227.986 380.743 227.5C380.256 227.006 379.876 226.44 379.603 225.8C379.329 225.16 379.193 224.47 379.193 223.73C379.193 223.016 379.326 222.343 379.593 221.71C379.859 221.076 380.229 220.523 380.703 220.05C381.183 219.57 381.736 219.196 382.363 218.93C382.989 218.656 383.663 218.52 384.383 218.52C385.169 218.52 385.859 218.706 386.453 219.08C387.046 219.446 387.526 219.923 387.893 220.51L387.833 218.8ZM384.473 227.43C385.133 227.43 385.703 227.27 386.183 226.95C386.669 226.623 387.043 226.183 387.303 225.63C387.569 225.076 387.703 224.466 387.703 223.8C387.703 223.12 387.569 222.506 387.303 221.96C387.036 221.406 386.659 220.97 386.173 220.65C385.693 220.323 385.126 220.16 384.473 220.16C383.813 220.16 383.213 220.323 382.673 220.65C382.133 220.976 381.703 221.416 381.383 221.97C381.069 222.516 380.913 223.126 380.913 223.8C380.913 224.473 381.076 225.086 381.403 225.64C381.729 226.186 382.163 226.623 382.703 226.95C383.243 227.27 383.833 227.43 384.473 227.43ZM399.366 213.8H401.046V228.8H399.366V227.1C399.026 227.686 398.57 228.16 397.996 228.52C397.423 228.88 396.75 229.06 395.976 229.06C395.25 229.06 394.57 228.923 393.936 228.65C393.303 228.376 392.743 228 392.256 227.52C391.776 227.033 391.4 226.473 391.126 225.84C390.853 225.206 390.716 224.526 390.716 223.8C390.716 223.073 390.853 222.393 391.126 221.76C391.4 221.12 391.776 220.56 392.256 220.08C392.743 219.593 393.303 219.213 393.936 218.94C394.57 218.666 395.25 218.53 395.976 218.53C396.75 218.53 397.423 218.71 397.996 219.07C398.57 219.43 399.026 219.903 399.366 220.49V213.8ZM395.996 227.43C396.656 227.43 397.226 227.27 397.706 226.95C398.193 226.623 398.566 226.183 398.826 225.63C399.093 225.076 399.226 224.466 399.226 223.8C399.226 223.12 399.093 222.506 398.826 221.96C398.56 221.406 398.183 220.97 397.696 220.65C397.216 220.323 396.65 220.16 395.996 220.16C395.336 220.16 394.736 220.323 394.196 220.65C393.663 220.976 393.236 221.416 392.916 221.97C392.596 222.516 392.436 223.126 392.436 223.8C392.436 224.473 392.6 225.086 392.926 225.64C393.253 226.186 393.686 226.623 394.226 226.95C394.766 227.27 395.356 227.43 395.996 227.43ZM409.904 218.8H411.684L406.214 233.8H404.434L406.244 228.8L402.654 218.8H404.494L407.084 226.49L409.904 218.8ZM59.2698 240.33V242.8H62.1998V244.48H59.2698V252.8H57.5898V244.48H56.2998V242.8H57.5898V240.33C57.5898 239.816 57.7131 239.353 57.9598 238.94C58.2131 238.52 58.5498 238.186 58.9698 237.94C59.3965 237.686 59.8631 237.56 60.3698 237.56C60.7431 237.56 61.1065 237.636 61.4598 237.79C61.8131 237.936 62.1265 238.156 62.3998 238.45L61.1998 239.64C61.1065 239.513 60.9831 239.416 60.8298 239.35C60.6831 239.276 60.5298 239.24 60.3698 239.24C60.0698 239.24 59.8098 239.346 59.5898 239.56C59.3765 239.773 59.2698 240.03 59.2698 240.33ZM67.9818 253.06C67.0618 253.06 66.2218 252.823 65.4618 252.35C64.7085 251.876 64.1052 251.243 63.6518 250.45C63.2052 249.65 62.9818 248.766 62.9818 247.8C62.9818 247.066 63.1118 246.383 63.3718 245.75C63.6318 245.11 63.9885 244.55 64.4418 244.07C64.9018 243.583 65.4352 243.203 66.0418 242.93C66.6485 242.656 67.2952 242.52 67.9818 242.52C68.9018 242.52 69.7385 242.756 70.4918 243.23C71.2518 243.703 71.8552 244.34 72.3018 245.14C72.7552 245.94 72.9818 246.826 72.9818 247.8C72.9818 248.526 72.8518 249.206 72.5918 249.84C72.3318 250.473 71.9718 251.033 71.5118 251.52C71.0585 252 70.5285 252.376 69.9218 252.65C69.3218 252.923 68.6752 253.06 67.9818 253.06ZM67.9818 251.38C68.6085 251.38 69.1718 251.216 69.6718 250.89C70.1785 250.556 70.5752 250.12 70.8618 249.58C71.1552 249.033 71.3018 248.44 71.3018 247.8C71.3018 247.146 71.1518 246.546 70.8518 246C70.5585 245.453 70.1618 245.016 69.6618 244.69C69.1618 244.363 68.6018 244.2 67.9818 244.2C67.3552 244.2 66.7918 244.366 66.2918 244.7C65.7918 245.026 65.3952 245.463 65.1018 246.01C64.8085 246.556 64.6618 247.153 64.6618 247.8C64.6618 248.466 64.8118 249.073 65.1118 249.62C65.4118 250.16 65.8152 250.59 66.3218 250.91C66.8285 251.223 67.3818 251.38 67.9818 251.38ZM74.6365 252.8V242.8H76.3165V244.05C76.6699 243.583 77.1165 243.213 77.6565 242.94C78.1965 242.66 78.7832 242.52 79.4165 242.52C79.8032 242.52 80.1765 242.57 80.5365 242.67L79.8565 244.35C79.5832 244.263 79.3165 244.22 79.0565 244.22C78.5565 244.22 78.0965 244.343 77.6765 244.59C77.2632 244.83 76.9332 245.156 76.6865 245.57C76.4399 245.983 76.3165 246.443 76.3165 246.95V252.8H74.6365ZM86.7459 242.8H88.4259V252.8H86.7459V242.8ZM87.6059 241.17C87.3392 241.17 87.1159 241.083 86.9359 240.91C86.7559 240.736 86.6659 240.52 86.6659 240.26C86.6659 240 86.7559 239.783 86.9359 239.61C87.1159 239.436 87.3359 239.35 87.5959 239.35C87.8559 239.35 88.0759 239.436 88.2559 239.61C88.4359 239.783 88.5259 240 88.5259 240.26C88.5259 240.52 88.4359 240.736 88.2559 240.91C88.0826 241.083 87.8659 241.17 87.6059 241.17ZM90.7693 252.8V242.8H92.4493V244.05C92.8027 243.583 93.246 243.213 93.7793 242.94C94.3193 242.66 94.906 242.52 95.5393 242.52C96.2793 242.52 96.956 242.7 97.5693 243.06C98.1827 243.42 98.666 243.896 99.0193 244.49C99.3727 243.896 99.8527 243.42 100.459 243.06C101.073 242.7 101.746 242.52 102.479 242.52C103.233 242.52 103.916 242.703 104.529 243.07C105.143 243.43 105.629 243.916 105.989 244.53C106.356 245.143 106.539 245.826 106.539 246.58V252.8H104.859V246.98C104.859 246.486 104.739 246.03 104.499 245.61C104.259 245.19 103.936 244.853 103.529 244.6C103.123 244.346 102.673 244.22 102.179 244.22C101.686 244.22 101.236 244.34 100.829 244.58C100.423 244.813 100.099 245.14 99.8593 245.56C99.6193 245.973 99.4993 246.446 99.4993 246.98V252.8H97.8193V246.98C97.8193 246.446 97.6993 245.973 97.4593 245.56C97.2193 245.14 96.8927 244.813 96.4793 244.58C96.0727 244.34 95.6227 244.22 95.1293 244.22C94.6427 244.22 94.1927 244.346 93.7793 244.6C93.3727 244.853 93.0493 245.19 92.8093 245.61C92.5693 246.03 92.4493 246.486 92.4493 246.98V252.8H90.7693ZM108.543 252.8V242.8H110.223V244.05C110.576 243.583 111.019 243.213 111.553 242.94C112.093 242.66 112.679 242.52 113.313 242.52C114.053 242.52 114.729 242.7 115.343 243.06C115.956 243.42 116.439 243.896 116.793 244.49C117.146 243.896 117.626 243.42 118.233 243.06C118.846 242.7 119.519 242.52 120.253 242.52C121.006 242.52 121.689 242.703 122.303 243.07C122.916 243.43 123.403 243.916 123.763 244.53C124.129 245.143 124.313 245.826 124.313 246.58V252.8H122.633V246.98C122.633 246.486 122.513 246.03 122.273 245.61C122.033 245.19 121.709 244.853 121.303 244.6C120.896 244.346 120.446 244.22 119.953 244.22C119.459 244.22 119.009 244.34 118.603 244.58C118.196 244.813 117.873 245.14 117.633 245.56C117.393 245.973 117.273 246.446 117.273 246.98V252.8H115.593V246.98C115.593 246.446 115.473 245.973 115.233 245.56C114.993 245.14 114.666 244.813 114.253 244.58C113.846 244.34 113.396 244.22 112.903 244.22C112.416 244.22 111.966 244.346 111.553 244.6C111.146 244.853 110.823 245.19 110.583 245.61C110.343 246.03 110.223 246.486 110.223 246.98V252.8H108.543ZM130.521 253.06C129.601 253.06 128.761 252.823 128.001 252.35C127.248 251.876 126.644 251.243 126.191 250.45C125.744 249.65 125.521 248.766 125.521 247.8C125.521 247.066 125.651 246.383 125.911 245.75C126.171 245.11 126.528 244.55 126.981 244.07C127.441 243.583 127.974 243.203 128.581 242.93C129.188 242.656 129.834 242.52 130.521 242.52C131.274 242.52 131.964 242.673 132.591 242.98C133.224 243.28 133.764 243.7 134.211 244.24C134.664 244.78 135.001 245.406 135.221 246.12C135.448 246.833 135.531 247.596 135.471 248.41H127.311C127.391 248.976 127.578 249.483 127.871 249.93C128.164 250.37 128.538 250.72 128.991 250.98C129.451 251.24 129.961 251.373 130.521 251.38C131.121 251.38 131.664 251.226 132.151 250.92C132.638 250.606 133.031 250.18 133.331 249.64L135.041 250.04C134.641 250.926 134.038 251.653 133.231 252.22C132.424 252.78 131.521 253.06 130.521 253.06ZM127.261 247.09H133.781C133.728 246.53 133.548 246.02 133.241 245.56C132.934 245.093 132.544 244.72 132.071 244.44C131.598 244.16 131.081 244.02 130.521 244.02C129.961 244.02 129.448 244.156 128.981 244.43C128.514 244.703 128.128 245.073 127.821 245.54C127.521 246 127.334 246.516 127.261 247.09ZM145.147 237.8H146.827V252.8H145.147V251.1C144.807 251.686 144.351 252.16 143.777 252.52C143.204 252.88 142.531 253.06 141.757 253.06C141.031 253.06 140.351 252.923 139.717 252.65C139.084 252.376 138.524 252 138.037 251.52C137.557 251.033 137.181 250.473 136.907 249.84C136.634 249.206 136.497 248.526 136.497 247.8C136.497 247.073 136.634 246.393 136.907 245.76C137.181 245.12 137.557 244.56 138.037 244.08C138.524 243.593 139.084 243.213 139.717 242.94C140.351 242.666 141.031 242.53 141.757 242.53C142.531 242.53 143.204 242.71 143.777 243.07C144.351 243.43 144.807 243.903 145.147 244.49V237.8ZM141.777 251.43C142.437 251.43 143.007 251.27 143.487 250.95C143.974 250.623 144.347 250.183 144.607 249.63C144.874 249.076 145.007 248.466 145.007 247.8C145.007 247.12 144.874 246.506 144.607 245.96C144.341 245.406 143.964 244.97 143.477 244.65C142.997 244.323 142.431 244.16 141.777 244.16C141.117 244.16 140.517 244.323 139.977 244.65C139.444 244.976 139.017 245.416 138.697 245.97C138.377 246.516 138.217 247.126 138.217 247.8C138.217 248.473 138.381 249.086 138.707 249.64C139.034 250.186 139.467 250.623 140.007 250.95C140.547 251.27 141.137 251.43 141.777 251.43ZM149.226 242.8H150.906V252.8H149.226V242.8ZM150.086 241.17C149.82 241.17 149.596 241.083 149.416 240.91C149.236 240.736 149.146 240.52 149.146 240.26C149.146 240 149.236 239.783 149.416 239.61C149.596 239.436 149.816 239.35 150.076 239.35C150.336 239.35 150.556 239.436 150.736 239.61C150.916 239.783 151.006 240 151.006 240.26C151.006 240.52 150.916 240.736 150.736 240.91C150.563 241.083 150.346 241.17 150.086 241.17ZM161.212 242.8H162.892V252.8H161.212L161.142 251.11C160.828 251.69 160.395 252.16 159.842 252.52C159.295 252.88 158.642 253.06 157.882 253.06C157.148 253.06 156.462 252.923 155.822 252.65C155.182 252.37 154.615 251.986 154.122 251.5C153.635 251.006 153.255 250.44 152.982 249.8C152.708 249.16 152.572 248.47 152.572 247.73C152.572 247.016 152.705 246.343 152.972 245.71C153.238 245.076 153.608 244.523 154.082 244.05C154.562 243.57 155.115 243.196 155.742 242.93C156.368 242.656 157.042 242.52 157.762 242.52C158.548 242.52 159.238 242.706 159.832 243.08C160.425 243.446 160.905 243.923 161.272 244.51L161.212 242.8ZM157.852 251.43C158.512 251.43 159.082 251.27 159.562 250.95C160.048 250.623 160.422 250.183 160.682 249.63C160.948 249.076 161.082 248.466 161.082 247.8C161.082 247.12 160.948 246.506 160.682 245.96C160.415 245.406 160.038 244.97 159.552 244.65C159.072 244.323 158.505 244.16 157.852 244.16C157.192 244.16 156.592 244.323 156.052 244.65C155.512 244.976 155.082 245.416 154.762 245.97C154.448 246.516 154.292 247.126 154.292 247.8C154.292 248.473 154.455 249.086 154.782 249.64C155.108 250.186 155.542 250.623 156.082 250.95C156.622 251.27 157.212 251.43 157.852 251.43ZM170.07 244.48H167.8L167.79 252.8H166.11L166.12 244.48H164.4V242.8H166.12L166.11 239.66H167.79L167.8 242.8H170.07V244.48ZM176.009 253.06C175.089 253.06 174.249 252.823 173.489 252.35C172.736 251.876 172.133 251.243 171.679 250.45C171.233 249.65 171.009 248.766 171.009 247.8C171.009 247.066 171.139 246.383 171.399 245.75C171.659 245.11 172.016 244.55 172.469 244.07C172.929 243.583 173.463 243.203 174.069 242.93C174.676 242.656 175.323 242.52 176.009 242.52C176.763 242.52 177.453 242.673 178.079 242.98C178.713 243.28 179.253 243.7 179.699 244.24C180.153 244.78 180.489 245.406 180.709 246.12C180.936 246.833 181.019 247.596 180.959 248.41H172.799C172.879 248.976 173.066 249.483 173.359 249.93C173.653 250.37 174.026 250.72 174.479 250.98C174.939 251.24 175.449 251.373 176.009 251.38C176.609 251.38 177.153 251.226 177.639 250.92C178.126 250.606 178.519 250.18 178.819 249.64L180.529 250.04C180.129 250.926 179.526 251.653 178.719 252.22C177.913 252.78 177.009 253.06 176.009 253.06ZM172.749 247.09H179.269C179.216 246.53 179.036 246.02 178.729 245.56C178.423 245.093 178.033 244.72 177.559 244.44C177.086 244.16 176.569 244.02 176.009 244.02C175.449 244.02 174.936 244.156 174.469 244.43C174.003 244.703 173.616 245.073 173.309 245.54C173.009 246 172.823 246.516 172.749 247.09ZM187.186 249V242.8H188.866V248.63C188.866 249.136 188.989 249.596 189.236 250.01C189.482 250.423 189.812 250.753 190.226 251C190.646 251.24 191.106 251.36 191.606 251.36C192.112 251.36 192.569 251.24 192.976 251C193.389 250.753 193.719 250.423 193.966 250.01C194.212 249.596 194.336 249.136 194.336 248.63V242.8H196.016L196.026 252.8H194.346L194.336 251.53C193.982 251.996 193.536 252.37 192.996 252.65C192.456 252.923 191.872 253.06 191.246 253.06C190.499 253.06 189.816 252.88 189.196 252.52C188.582 252.153 188.092 251.663 187.726 251.05C187.366 250.436 187.186 249.753 187.186 249ZM201.085 252.99C200.545 252.97 200.018 252.87 199.505 252.69C198.998 252.503 198.552 252.253 198.165 251.94C197.785 251.62 197.508 251.253 197.335 250.84L198.775 250.22C198.875 250.446 199.055 250.66 199.315 250.86C199.575 251.06 199.875 251.22 200.215 251.34C200.555 251.46 200.898 251.52 201.245 251.52C201.612 251.52 201.955 251.463 202.275 251.35C202.595 251.236 202.855 251.07 203.055 250.85C203.262 250.623 203.365 250.353 203.365 250.04C203.365 249.706 203.252 249.446 203.025 249.26C202.805 249.066 202.525 248.916 202.185 248.81C201.852 248.696 201.512 248.59 201.165 248.49C200.478 248.316 199.865 248.11 199.325 247.87C198.785 247.623 198.358 247.313 198.045 246.94C197.738 246.56 197.585 246.076 197.585 245.49C197.585 244.87 197.755 244.333 198.095 243.88C198.442 243.426 198.895 243.076 199.455 242.83C200.015 242.583 200.615 242.46 201.255 242.46C202.062 242.46 202.798 242.633 203.465 242.98C204.132 243.326 204.628 243.796 204.955 244.39L203.605 245.18C203.492 244.94 203.318 244.73 203.085 244.55C202.852 244.363 202.585 244.216 202.285 244.11C201.985 244.003 201.678 243.946 201.365 243.94C200.978 243.926 200.615 243.976 200.275 244.09C199.942 244.203 199.672 244.376 199.465 244.61C199.265 244.836 199.165 245.12 199.165 245.46C199.165 245.793 199.272 246.046 199.485 246.22C199.705 246.393 199.988 246.533 200.335 246.64C200.688 246.74 201.072 246.856 201.485 246.99C202.092 247.183 202.658 247.406 203.185 247.66C203.712 247.913 204.135 248.23 204.455 248.61C204.782 248.99 204.942 249.46 204.935 250.02C204.935 250.633 204.752 251.17 204.385 251.63C204.018 252.083 203.542 252.43 202.955 252.67C202.375 252.91 201.752 253.016 201.085 252.99ZM210.951 253.06C210.031 253.06 209.191 252.823 208.431 252.35C207.677 251.876 207.074 251.243 206.621 250.45C206.174 249.65 205.951 248.766 205.951 247.8C205.951 247.066 206.081 246.383 206.341 245.75C206.601 245.11 206.957 244.55 207.411 244.07C207.871 243.583 208.404 243.203 209.011 242.93C209.617 242.656 210.264 242.52 210.951 242.52C211.704 242.52 212.394 242.673 213.021 242.98C213.654 243.28 214.194 243.7 214.641 244.24C215.094 244.78 215.431 245.406 215.651 246.12C215.877 246.833 215.961 247.596 215.901 248.41H207.741C207.821 248.976 208.007 249.483 208.301 249.93C208.594 250.37 208.967 250.72 209.421 250.98C209.881 251.24 210.391 251.373 210.951 251.38C211.551 251.38 212.094 251.226 212.581 250.92C213.067 250.606 213.461 250.18 213.761 249.64L215.471 250.04C215.071 250.926 214.467 251.653 213.661 252.22C212.854 252.78 211.951 253.06 210.951 253.06ZM207.691 247.09H214.211C214.157 246.53 213.977 246.02 213.671 245.56C213.364 245.093 212.974 244.72 212.501 244.44C212.027 244.16 211.511 244.02 210.951 244.02C210.391 244.02 209.877 244.156 209.411 244.43C208.944 244.703 208.557 245.073 208.251 245.54C207.951 246 207.764 246.516 207.691 247.09ZM218.037 253.06C217.784 253.06 217.567 252.97 217.387 252.79C217.214 252.61 217.127 252.39 217.127 252.13C217.127 251.883 217.214 251.67 217.387 251.49C217.567 251.31 217.784 251.22 218.037 251.22C218.297 251.22 218.517 251.31 218.697 251.49C218.877 251.67 218.967 251.883 218.967 252.13C218.967 252.39 218.877 252.61 218.697 252.79C218.517 252.97 218.297 253.06 218.037 253.06Z" fill="#090909"/>
<path d="M57.2398 159.8L60.5038 143H62.9278L67.0198 153.764L71.1118 143H73.5358L76.7998 159.8H73.8118L71.7958 149.408L68.0158 159.416H66.0118L62.2318 149.408L60.2278 159.8H57.2398ZM87.4519 147.8H90.3799V159.8H87.4519L87.3199 158.312C86.9919 158.848 86.5559 159.284 86.0119 159.62C85.4759 159.948 84.8399 160.112 84.1039 160.112C83.2159 160.112 82.3839 159.944 81.6079 159.608C80.8319 159.272 80.1479 158.808 79.5559 158.216C78.9719 157.624 78.5119 156.94 78.1759 156.164C77.8479 155.388 77.6839 154.556 77.6839 153.668C77.6839 152.812 77.8399 152.008 78.1519 151.256C78.4719 150.504 78.9159 149.844 79.4839 149.276C80.0519 148.708 80.7079 148.264 81.4519 147.944C82.1959 147.624 82.9959 147.464 83.8519 147.464C84.6439 147.464 85.3519 147.64 85.9759 147.992C86.6079 148.344 87.1439 148.792 87.5839 149.336L87.4519 147.8ZM84.0319 157.292C84.6559 157.292 85.2079 157.136 85.6879 156.824C86.1679 156.512 86.5439 156.092 86.8159 155.564C87.0879 155.028 87.2239 154.44 87.2239 153.8C87.2239 153.152 87.0879 152.564 86.8159 152.036C86.5439 151.5 86.1639 151.076 85.6759 150.764C85.1959 150.452 84.6479 150.296 84.0319 150.296C83.4159 150.296 82.8519 150.456 82.3399 150.776C81.8359 151.088 81.4319 151.508 81.1279 152.036C80.8319 152.564 80.6839 153.152 80.6839 153.8C80.6839 154.448 80.8359 155.036 81.1399 155.564C81.4439 156.092 81.8479 156.512 82.3519 156.824C82.8639 157.136 83.4239 157.292 84.0319 157.292ZM92.7831 159.8L92.7711 147.8H95.6991L95.7111 148.868C96.1191 148.436 96.6071 148.096 97.1751 147.848C97.7431 147.592 98.3551 147.464 99.0111 147.464C99.4511 147.464 99.8911 147.528 100.331 147.656L99.1791 150.608C98.8751 150.488 98.5711 150.428 98.2671 150.428C97.7951 150.428 97.3631 150.544 96.9711 150.776C96.5871 151 96.2791 151.308 96.0471 151.7C95.8231 152.084 95.7111 152.512 95.7111 152.984V159.8H92.7831ZM112.393 159.8H109.021L106.285 155.084L104.605 157.088V159.8H101.677V141.8H104.605V152.54L108.577 147.8H112.405L108.289 152.708L112.393 159.8ZM118.793 160.112C117.689 160.112 116.681 159.828 115.769 159.26C114.865 158.692 114.141 157.928 113.597 156.968C113.061 156.008 112.793 154.948 112.793 153.788C112.793 152.916 112.949 152.1 113.261 151.34C113.573 150.572 114.001 149.9 114.545 149.324C115.097 148.74 115.737 148.284 116.465 147.956C117.193 147.628 117.969 147.464 118.793 147.464C119.729 147.464 120.585 147.664 121.361 148.064C122.145 148.456 122.809 148.996 123.353 149.684C123.897 150.372 124.293 151.156 124.541 152.036C124.789 152.916 124.845 153.836 124.709 154.796H115.937C116.049 155.244 116.233 155.648 116.489 156.008C116.745 156.36 117.069 156.644 117.461 156.86C117.853 157.068 118.297 157.176 118.793 157.184C119.305 157.192 119.769 157.072 120.185 156.824C120.609 156.568 120.961 156.224 121.241 155.792L124.229 156.488C123.741 157.552 123.013 158.424 122.045 159.104C121.077 159.776 119.993 160.112 118.793 160.112ZM115.841 152.6H121.745C121.657 152.12 121.469 151.688 121.181 151.304C120.901 150.912 120.553 150.6 120.137 150.368C119.721 150.136 119.273 150.02 118.793 150.02C118.313 150.02 117.869 150.136 117.461 150.368C117.053 150.592 116.705 150.9 116.417 151.292C116.137 151.676 115.945 152.112 115.841 152.6ZM133.094 150.728H130.766V159.8H127.838V150.728H126.062V147.8H127.838V144.032H130.766V147.8H133.094V150.728ZM135.076 147.8H138.004V159.8H135.076V147.8ZM136.564 146.252C136.132 146.252 135.768 146.112 135.472 145.832C135.176 145.544 135.028 145.184 135.028 144.752C135.028 144.328 135.176 143.972 135.472 143.684C135.768 143.396 136.128 143.252 136.552 143.252C136.976 143.252 137.332 143.396 137.62 143.684C137.916 143.972 138.064 144.328 138.064 144.752C138.064 145.184 137.92 145.544 137.632 145.832C137.344 146.112 136.988 146.252 136.564 146.252ZM151.786 152.216V159.8H148.858V152.984C148.858 152.512 148.742 152.084 148.51 151.7C148.278 151.308 147.966 151 147.574 150.776C147.19 150.544 146.762 150.428 146.29 150.428C145.818 150.428 145.386 150.544 144.994 150.776C144.61 151 144.302 151.308 144.07 151.7C143.846 152.084 143.734 152.512 143.734 152.984V159.8H140.806L140.794 147.8H143.722L143.734 148.868C144.142 148.436 144.63 148.096 145.198 147.848C145.766 147.592 146.378 147.464 147.034 147.464C147.906 147.464 148.702 147.68 149.422 148.112C150.142 148.536 150.714 149.108 151.138 149.828C151.57 150.54 151.786 151.336 151.786 152.216ZM162.847 147.8H165.775V160.028C165.775 160.892 165.599 161.676 165.247 162.38C164.895 163.092 164.415 163.7 163.807 164.204C163.199 164.716 162.503 165.108 161.719 165.38C160.935 165.66 160.111 165.8 159.247 165.8C158.407 165.8 157.599 165.628 156.823 165.284C156.047 164.94 155.359 164.468 154.759 163.868C154.167 163.276 153.715 162.6 153.403 161.84L156.079 160.628C156.239 161.068 156.479 161.452 156.799 161.78C157.127 162.116 157.503 162.376 157.927 162.56C158.351 162.752 158.791 162.848 159.247 162.848C159.711 162.848 160.155 162.784 160.579 162.656C161.011 162.528 161.399 162.34 161.743 162.092C162.087 161.852 162.355 161.556 162.547 161.204C162.747 160.86 162.847 160.468 162.847 160.028V158.336C162.471 158.864 161.999 159.292 161.431 159.62C160.863 159.948 160.207 160.112 159.463 160.112C158.599 160.112 157.791 159.948 157.039 159.62C156.287 159.292 155.623 158.84 155.047 158.264C154.479 157.68 154.031 157.008 153.703 156.248C153.383 155.488 153.223 154.672 153.223 153.8C153.223 152.928 153.383 152.112 153.703 151.352C154.031 150.592 154.479 149.924 155.047 149.348C155.623 148.764 156.287 148.308 157.039 147.98C157.791 147.652 158.599 147.488 159.463 147.488C160.207 147.488 160.863 147.652 161.431 147.98C161.999 148.3 162.471 148.724 162.847 149.252V147.8ZM159.499 157.292C160.115 157.292 160.659 157.136 161.131 156.824C161.611 156.504 161.987 156.08 162.259 155.552C162.531 155.016 162.667 154.432 162.667 153.8C162.667 153.16 162.527 152.576 162.247 152.048C161.975 151.52 161.599 151.096 161.119 150.776C160.647 150.456 160.107 150.296 159.499 150.296C158.899 150.296 158.351 150.456 157.855 150.776C157.359 151.088 156.963 151.508 156.667 152.036C156.371 152.564 156.223 153.152 156.223 153.8C156.223 154.448 156.371 155.036 156.667 155.564C156.963 156.092 157.359 156.512 157.855 156.824C158.351 157.136 158.899 157.292 159.499 157.292ZM174.427 159.8L177.691 143H180.115L184.207 153.764L188.299 143H190.723L193.987 159.8H190.999L188.983 149.408L185.203 159.416H183.199L179.419 149.408L177.415 159.8H174.427ZM204.639 147.8H207.567V159.8H204.639L204.507 158.312C204.179 158.848 203.743 159.284 203.199 159.62C202.663 159.948 202.027 160.112 201.291 160.112C200.403 160.112 199.571 159.944 198.795 159.608C198.019 159.272 197.335 158.808 196.743 158.216C196.159 157.624 195.699 156.94 195.363 156.164C195.035 155.388 194.871 154.556 194.871 153.668C194.871 152.812 195.027 152.008 195.339 151.256C195.659 150.504 196.103 149.844 196.671 149.276C197.239 148.708 197.895 148.264 198.639 147.944C199.383 147.624 200.183 147.464 201.039 147.464C201.831 147.464 202.539 147.64 203.163 147.992C203.795 148.344 204.331 148.792 204.771 149.336L204.639 147.8ZM201.219 157.292C201.843 157.292 202.395 157.136 202.875 156.824C203.355 156.512 203.731 156.092 204.003 155.564C204.275 155.028 204.411 154.44 204.411 153.8C204.411 153.152 204.275 152.564 204.003 152.036C203.731 151.5 203.351 151.076 202.863 150.764C202.383 150.452 201.835 150.296 201.219 150.296C200.603 150.296 200.039 150.456 199.527 150.776C199.023 151.088 198.619 151.508 198.315 152.036C198.019 152.564 197.871 153.152 197.871 153.8C197.871 154.448 198.023 155.036 198.327 155.564C198.631 156.092 199.035 156.512 199.539 156.824C200.051 157.136 200.611 157.292 201.219 157.292ZM216.391 150.728H214.063V159.8H211.135V150.728H209.359V147.8H211.135V144.032H214.063V147.8H216.391V150.728ZM223.559 160.112C222.455 160.112 221.447 159.828 220.535 159.26C219.631 158.692 218.907 157.928 218.363 156.968C217.827 156.008 217.559 154.948 217.559 153.788C217.559 152.916 217.715 152.1 218.027 151.34C218.339 150.572 218.767 149.9 219.311 149.324C219.863 148.74 220.503 148.284 221.231 147.956C221.959 147.628 222.735 147.464 223.559 147.464C224.495 147.464 225.351 147.664 226.127 148.064C226.911 148.456 227.575 148.996 228.119 149.684C228.663 150.372 229.059 151.156 229.307 152.036C229.555 152.916 229.611 153.836 229.475 154.796H220.703C220.815 155.244 220.999 155.648 221.255 156.008C221.511 156.36 221.835 156.644 222.227 156.86C222.619 157.068 223.063 157.176 223.559 157.184C224.071 157.192 224.535 157.072 224.951 156.824C225.375 156.568 225.727 156.224 226.007 155.792L228.995 156.488C228.507 157.552 227.779 158.424 226.811 159.104C225.843 159.776 224.759 160.112 223.559 160.112ZM220.607 152.6H226.511C226.423 152.12 226.235 151.688 225.947 151.304C225.667 150.912 225.319 150.6 224.903 150.368C224.487 150.136 224.039 150.02 223.559 150.02C223.079 150.02 222.635 150.136 222.227 150.368C221.819 150.592 221.471 150.9 221.183 151.292C220.903 151.676 220.711 152.112 220.607 152.6ZM231.439 159.8L231.427 147.8H234.355L234.367 148.868C234.775 148.436 235.263 148.096 235.831 147.848C236.399 147.592 237.011 147.464 237.667 147.464C238.107 147.464 238.547 147.528 238.987 147.656L237.835 150.608C237.531 150.488 237.227 150.428 236.923 150.428C236.451 150.428 236.019 150.544 235.627 150.776C235.243 151 234.935 151.308 234.703 151.7C234.479 152.084 234.367 152.512 234.367 152.984V159.8H231.439ZM240.287 147.8H243.215V159.8H240.287V147.8ZM241.775 146.252C241.343 146.252 240.979 146.112 240.683 145.832C240.387 145.544 240.239 145.184 240.239 144.752C240.239 144.328 240.387 143.972 240.683 143.684C240.979 143.396 241.339 143.252 241.763 143.252C242.187 143.252 242.543 143.396 242.831 143.684C243.127 143.972 243.275 144.328 243.275 144.752C243.275 145.184 243.131 145.544 242.843 145.832C242.555 146.112 242.199 146.252 241.775 146.252ZM254.866 147.8H257.794V159.8H254.866L254.734 158.312C254.406 158.848 253.97 159.284 253.426 159.62C252.89 159.948 252.254 160.112 251.518 160.112C250.63 160.112 249.798 159.944 249.022 159.608C248.246 159.272 247.562 158.808 246.97 158.216C246.386 157.624 245.926 156.94 245.59 156.164C245.262 155.388 245.098 154.556 245.098 153.668C245.098 152.812 245.254 152.008 245.566 151.256C245.886 150.504 246.33 149.844 246.898 149.276C247.466 148.708 248.122 148.264 248.866 147.944C249.61 147.624 250.41 147.464 251.266 147.464C252.058 147.464 252.766 147.64 253.39 147.992C254.022 148.344 254.558 148.792 254.998 149.336L254.866 147.8ZM251.446 157.292C252.07 157.292 252.622 157.136 253.102 156.824C253.582 156.512 253.958 156.092 254.23 155.564C254.502 155.028 254.638 154.44 254.638 153.8C254.638 153.152 254.502 152.564 254.23 152.036C253.958 151.5 253.578 151.076 253.09 150.764C252.61 150.452 252.062 150.296 251.446 150.296C250.83 150.296 250.266 150.456 249.754 150.776C249.25 151.088 248.846 151.508 248.542 152.036C248.246 152.564 248.098 153.152 248.098 153.8C248.098 154.448 248.25 155.036 248.554 155.564C248.858 156.092 249.262 156.512 249.766 156.824C250.278 157.136 250.838 157.292 251.446 157.292ZM260.255 159.8V141.8H263.183V159.8H260.255ZM269.608 160.016C268.984 159.976 268.38 159.852 267.796 159.644C267.22 159.428 266.708 159.136 266.26 158.768C265.812 158.4 265.468 157.96 265.228 157.448L267.7 156.392C267.796 156.552 267.952 156.724 268.168 156.908C268.384 157.084 268.64 157.232 268.936 157.352C269.24 157.472 269.572 157.532 269.932 157.532C270.236 157.532 270.524 157.492 270.796 157.412C271.076 157.324 271.3 157.192 271.468 157.016C271.644 156.84 271.732 156.612 271.732 156.332C271.732 156.036 271.628 155.808 271.42 155.648C271.22 155.48 270.964 155.356 270.652 155.276C270.348 155.188 270.052 155.108 269.764 155.036C269.004 154.884 268.296 154.648 267.64 154.328C266.992 154.008 266.468 153.596 266.068 153.092C265.676 152.58 265.48 151.964 265.48 151.244C265.48 150.452 265.688 149.768 266.104 149.192C266.528 148.616 267.076 148.172 267.748 147.86C268.428 147.548 269.16 147.392 269.944 147.392C270.896 147.392 271.768 147.592 272.56 147.992C273.36 148.384 273.992 148.94 274.456 149.66L272.14 151.028C272.028 150.836 271.872 150.66 271.672 150.5C271.472 150.332 271.244 150.196 270.988 150.092C270.732 149.98 270.464 149.916 270.184 149.9C269.824 149.884 269.496 149.916 269.2 149.996C268.904 150.076 268.664 150.212 268.48 150.404C268.304 150.596 268.216 150.852 268.216 151.172C268.216 151.476 268.336 151.704 268.576 151.856C268.816 152 269.104 152.112 269.44 152.192C269.784 152.272 270.112 152.36 270.424 152.456C271.128 152.688 271.788 152.972 272.404 153.308C273.028 153.644 273.528 154.056 273.904 154.544C274.28 155.032 274.46 155.616 274.444 156.296C274.444 157.072 274.212 157.752 273.748 158.336C273.284 158.912 272.684 159.352 271.948 159.656C271.22 159.96 270.44 160.08 269.608 160.016Z" fill="#090909"/>
<rect x="55.7998" y="29.7998" width="73.9563" height="74" rx="20.0869" fill="#0F357A"/>
<path d="M105.842 57.3418H80.7585C80.2833 57.3418 79.8276 57.5306 79.4916 57.8666C79.1556 58.2026 78.9668 58.6583 78.9668 59.1335V82.4251C78.9668 82.9003 79.1556 83.356 79.4916 83.692C79.8276 84.028 80.2833 84.2168 80.7585 84.2168H105.842C106.317 84.2168 106.773 84.028 107.109 83.692C107.445 83.356 107.633 82.9003 107.633 82.4251V59.1335C107.633 58.6583 107.445 58.2026 107.109 57.8666C106.773 57.5306 106.317 57.3418 105.842 57.3418Z" stroke="white" stroke-width="3.5" stroke-linecap="round" stroke-linejoin="round"/>
<path d="M87.0293 60.925V54.6541C87.0293 53.8306 87.1915 53.0152 87.5066 52.2544C87.8218 51.4936 88.2837 50.8023 88.866 50.22C89.4483 49.6377 90.1396 49.1758 90.9004 48.8606C91.6612 48.5455 92.4766 48.3833 93.3001 48.3833C94.1236 48.3833 94.9391 48.5455 95.6999 48.8606C96.4607 49.1758 97.152 49.6377 97.7343 50.22C98.3166 50.8023 98.7785 51.4936 99.0936 52.2544C99.4088 53.0152 99.571 53.8306 99.571 54.6541V60.925" stroke="white" stroke-width="3.5" stroke-linecap="round" stroke-linejoin="round"/>
</g>
<defs>
<filter id="filter0_d_4216_1807" x="-0.000195503" y="-0.000195503" width="442.6" height="321.6" filterUnits="userSpaceOnUse" color-interpolation-filters="sRGB">
<feFlood flood-opacity="0" result="BackgroundImageFix"/>
<feColorMatrix in="SourceAlpha" type="matrix" values="0 0 0 0 0 0 0 0 0 0 0 0 0 0 0 0 0 0 127 0" result="hardAlpha"/>
<feOffset dy="1"/>
<feGaussianBlur stdDeviation="5.9"/>
<feComposite in2="hardAlpha" operator="out"/>
<feColorMatrix type="matrix" values="0 0 0 0 0 0 0 0 0 0 0 0 0 0 0 0 0 0 0.25 0"/>
<feBlend mode="normal" in2="BackgroundImageFix" result="effect1_dropShadow_4216_1807"/>
<feBlend mode="normal" in="SourceGraphic" in2="effect1_dropShadow_4216_1807" result="shape"/>
</filter>
</defs>
</svg>
