<svg width="36" height="36" viewBox="0 0 36 36" fill="none" xmlns="http://www.w3.org/2000/svg">
<rect x="0.5" y="0.5" width="35" height="35" rx="6.5" fill="#1452D4" fill-opacity="0.11" stroke="#1452D4"/>
<path d="M25.675 26.375L26.375 25.675L24.5 23.8V21H23.5V24.2L25.675 26.375ZM11 27C10.45 27 9.97933 26.8043 9.588 26.413C9.19667 26.0217 9.00067 25.5507 9 25V11C9 10.45 9.196 9.97933 9.588 9.588C9.98 9.19667 10.4507 9.00067 11 9H25C25.55 9 26.021 9.196 26.413 9.588C26.805 9.98 27.0007 10.4507 27 11V17.7C26.6833 17.55 26.3583 17.421 26.025 17.313C25.6917 17.205 25.35 17.1257 25 17.075V11H11V25H17.05C17.1 25.3667 17.1793 25.7167 17.288 26.05C17.3967 26.3833 17.5257 26.7 17.675 27H11ZM11 24V25V11V17.075V17V24ZM13 23H17.075C17.125 22.65 17.2043 22.3083 17.313 21.975C17.4217 21.6417 17.5423 21.3167 17.675 21H13V23ZM13 19H19.1C19.6333 18.5 20.2293 18.0833 20.888 17.75C21.5467 17.4167 22.2507 17.1917 23 17.075V17H13V19ZM13 15H23V13H13V15ZM24 29C22.6167 29 21.4377 28.5123 20.463 27.537C19.4883 26.5617 19.0007 25.3827 19 24C18.9993 22.6173 19.487 21.4383 20.463 20.463C21.439 19.4877 22.618 19 24 19C25.382 19 26.5613 19.4877 27.538 20.463C28.5147 21.4383 29.002 22.6173 29 24C28.998 25.3827 28.5103 26.562 27.537 27.538C26.5637 28.514 25.3847 29.0013 24 29Z" fill="#1452D4"/>
</svg>
