<svg width="36" height="36" viewBox="0 0 36 36" fill="none" xmlns="http://www.w3.org/2000/svg">
<rect x="0.5" y="0.5" width="35" height="35" rx="6.5" fill="white" stroke="#7DC20D"/>
<path fill-rule="evenodd" clip-rule="evenodd" d="M20.5197 15.066C18.4359 15.6621 16.2268 15.6624 14.1427 15.067C13.2333 16.0618 12.4691 17.1802 11.8727 18.389C11.2427 19.688 10.9527 20.884 11.0057 21.829C11.0557 22.688 11.3767 23.356 12.1357 23.881C12.9837 24.468 14.5657 24.999 17.3557 24.999C18.5607 24.999 19.5377 24.898 20.3267 24.735L22.0927 26.318C20.8837 26.751 19.3267 26.998 17.3557 26.998C5.37475 26.998 8.57575 18.019 12.8697 13.5L11.0357 10.8C11.4002 10.5686 11.7809 10.3638 12.1747 10.187C12.3814 10.0917 12.6044 9.99667 12.8437 9.902C14.0457 9.429 15.6437 9 17.3557 9C18.9827 9 20.4967 9.387 21.6657 9.832C21.7224 9.852 21.7777 9.873 21.8317 9.895C22.6417 10.215 23.2717 10.557 23.6357 10.8L21.7897 13.5C23.4617 15.209 24.9837 17.657 25.4917 20H23.4317C23.2658 19.4233 23.0482 18.8627 22.7817 18.325C22.1915 17.1337 21.4297 16.0353 20.5207 15.065M19.5307 13.258C18.0814 13.5956 16.5739 13.5953 15.1247 13.257L14.8627 12.871C15.7807 12.957 16.7367 12.919 17.6337 12.66C18.5362 12.3972 19.4522 12.1836 20.3777 12.02L19.5307 13.258ZM21.5007 10.946C20.4527 10.91 18.9297 11.009 17.5127 11.169C17.2297 11.201 16.9347 11.256 16.6327 11.312C15.5507 11.512 14.3947 11.727 13.5007 10.946C14.0727 10.799 15.6497 10.507 17.4377 10.499H17.5127C19.3317 10.499 20.9297 10.797 21.5007 10.946Z" fill="#7DC20D"/>
<path d="M21.709 24.632L22.709 23.515L23.602 24.315V21H25.102V24.314L25.994 23.514L26.994 24.631L24.353 27L21.709 24.632Z" fill="#7DC20D"/>
<path fill-rule="evenodd" clip-rule="evenodd" d="M16.7492 24V23.477C16.3806 23.4196 16.0344 23.2637 15.7471 23.0257C15.4598 22.7877 15.2422 22.4765 15.1172 22.125C15.0825 22.0317 15.0667 21.9325 15.0708 21.833C15.0748 21.7336 15.0986 21.6359 15.1407 21.5458C15.1829 21.4556 15.2425 21.3748 15.3163 21.3079C15.39 21.241 15.4763 21.1895 15.5701 21.1563C15.6639 21.1231 15.7634 21.109 15.8628 21.1146C15.9622 21.1203 16.0594 21.1457 16.1489 21.1893C16.2383 21.2329 16.3182 21.2939 16.3838 21.3687C16.4495 21.4435 16.4996 21.5306 16.5312 21.625C16.5712 21.741 16.6492 21.839 16.7492 21.905V20.852C16.2622 20.7771 15.8181 20.5303 15.4972 20.1563C15.1764 19.7823 15 19.3058 15 18.813C15 18.3202 15.1764 17.8437 15.4972 17.4697C15.8181 17.0957 16.2622 16.8489 16.7492 16.774V16.25H18.2492V16.774C19.0092 16.889 19.6322 17.42 19.8812 18.125C19.9159 18.2183 19.9317 18.3175 19.9277 18.417C19.9237 18.5164 19.8999 18.6141 19.8577 18.7042C19.8156 18.7944 19.7559 18.8752 19.6822 18.9421C19.6085 19.009 19.5222 19.0605 19.4284 19.0937C19.3345 19.1269 19.235 19.141 19.1357 19.1354C19.0363 19.1297 18.9391 19.1043 18.8496 19.0607C18.7602 19.0171 18.6803 18.9561 18.6146 18.8813C18.549 18.8065 18.4989 18.7194 18.4672 18.625C18.4268 18.5105 18.3503 18.4122 18.2492 18.345V19.398C18.737 19.4723 19.1819 19.7188 19.5034 20.093C19.825 20.4672 20.0017 20.9442 20.0017 21.4375C20.0017 21.9308 19.825 22.4078 19.5034 22.782C19.1819 23.1562 18.737 23.4027 18.2492 23.477V24H16.7492ZM18.4992 21.438C18.4992 21.632 18.3992 21.804 18.2492 21.905V20.97C18.3992 21.07 18.4992 21.243 18.4992 21.438ZM16.4992 18.811C16.4992 18.617 16.5992 18.445 16.7492 18.344V19.279C16.6723 19.2278 16.6092 19.1584 16.5655 19.0769C16.5219 18.9954 16.4991 18.9044 16.4992 18.812" fill="#7DC20D"/>
</svg>
